<svg id="svg" version="1.1" xmlns="http://www.w3.org/2000/svg" xmlns:xlink="http://www.w3.org/1999/xlink" width="400"
     height="408.73545181116776" viewBox="0, 0, 400,408.73545181116776">
  <g id="svgg">
    <path id="path0"
          d="M203.631 10.188 C 203.689 10.479,204.048 11.549,204.429 12.565 L 205.121 14.413 203.900 17.556 C 203.229 19.284,202.070 22.270,201.325 24.191 L 199.971 27.683 200.077 29.131 C 200.793 38.930,205.412 47.893,211.281 50.870 C 212.376 51.426,212.226 51.513,214.037 49.276 C 214.929 48.175,216.256 46.542,216.986 45.648 C 217.716 44.754,219.246 42.876,220.385 41.474 C 221.524 40.073,222.598 38.773,222.770 38.586 C 222.942 38.399,223.812 37.408,224.702 36.384 C 229.525 30.836,229.080 31.252,230.446 31.036 C 235.476 30.243,237.930 29.755,238.185 29.498 C 238.339 29.343,239.443 27.645,240.638 25.724 C 245.195 18.402,246.224 16.759,246.687 16.067 L 247.163 15.354 246.622 15.243 C 246.033 15.123,243.594 14.572,242.504 14.313 C 241.803 14.147,240.148 13.796,238.501 13.465 C 234.369 12.635,232.915 12.381,229.216 11.843 C 228.279 11.706,226.976 11.514,226.320 11.415 C 221.790 10.733,212.678 9.961,206.916 9.771 L 203.525 9.660 203.631 10.188 M179.131 11.595 C 176.191 11.731,170.485 12.174,168.143 12.447 C 167.347 12.540,165.928 12.687,164.991 12.775 C 164.055 12.862,162.713 13.042,162.010 13.176 C 161.307 13.310,160.273 13.506,159.710 13.613 C 158.676 13.808,157.645 14.037,156.559 14.312 C 156.231 14.395,155.196 14.629,154.259 14.833 C 152.589 15.194,148.836 16.144,145.953 16.933 C 141.885 18.047,133.769 20.674,131.431 21.632 C 131.244 21.709,130.285 22.061,129.302 22.414 C 128.318 22.767,127.206 23.191,126.831 23.357 C 126.457 23.522,125.268 24.012,124.191 24.446 C 123.113 24.879,121.827 25.421,121.333 25.649 C 120.838 25.878,120.403 26.065,120.365 26.065 C 120.327 26.065,119.774 26.302,119.135 26.592 C 118.496 26.883,117.439 27.362,116.787 27.657 C 112.647 29.533,102.803 34.646,100.343 36.199 C 99.971 36.434,99.627 36.627,99.579 36.627 C 98.751 36.627,85.014 45.882,78.876 50.575 C 76.743 52.205,72.182 55.887,71.144 56.814 C 71.039 56.908,70.379 57.483,69.676 58.092 C 68.974 58.701,68.315 59.276,68.212 59.370 C 68.109 59.463,67.349 60.153,66.522 60.903 C 60.722 66.163,53.516 73.562,49.416 78.466 C 49.188 78.738,48.536 79.499,47.968 80.156 C 47.019 81.253,45.327 83.345,42.630 86.752 C 40.539 89.395,34.242 98.268,34.242 98.572 C 34.242 98.616,34.108 98.796,33.944 98.973 C 32.413 100.628,32.271 105.191,33.739 105.575 C 34.189 105.692,34.188 105.730,33.553 110.307 C 33.449 111.056,33.260 112.474,33.133 113.458 C 33.007 114.442,32.812 115.937,32.700 116.780 C 31.706 124.310,37.820 131.478,48.762 135.611 L 50.251 136.172 50.168 136.783 C 50.122 137.119,49.893 138.781,49.659 140.477 C 49.425 142.174,49.233 143.756,49.233 143.993 C 49.233 144.337,49.779 144.907,51.908 146.787 C 53.379 148.086,54.795 149.340,55.055 149.574 C 55.466 149.946,55.648 150.490,56.481 153.833 C 58.429 161.646,58.597 162.266,58.817 162.434 C 61.159 164.226,62.191 165.021,63.519 166.058 C 64.396 166.743,65.419 167.459,65.793 167.650 C 69.154 169.364,70.204 174.175,68.541 180.239 C 67.613 183.624,66.878 184.934,62.536 190.937 C 54.847 201.568,54.108 203.089,53.676 209.184 C 53.520 211.380,53.672 215.974,53.925 216.674 C 53.971 216.803,54.130 217.493,54.277 218.207 C 54.424 218.922,54.729 220.037,54.955 220.685 C 55.332 221.766,55.350 221.957,55.173 222.973 C 54.423 227.279,56.048 230.801,62.108 238.005 C 62.771 238.793,63.765 240.051,64.318 240.801 C 67.574 245.216,71.679 249.082,76.065 251.863 C 76.627 252.220,77.109 252.530,77.135 252.553 C 77.162 252.576,76.993 253.254,76.759 254.059 C 74.977 260.211,76.028 265.539,79.666 268.792 C 80.847 269.849,80.875 269.934,80.585 271.564 C 80.495 272.072,80.301 273.445,80.153 274.617 C 80.006 275.788,79.811 277.244,79.719 277.853 C 79.628 278.463,79.400 280.149,79.213 281.601 C 78.609 286.290,78.503 286.944,78.104 288.416 C 76.160 295.586,76.166 300.789,78.121 303.353 L 78.588 303.965 78.040 307.988 C 77.500 311.946,77.063 314.775,76.575 317.462 C 75.468 323.564,76.143 330.555,78.039 332.630 C 78.276 332.889,78.445 333.626,78.704 335.526 C 78.895 336.928,79.126 338.535,79.217 339.097 C 79.308 339.659,79.460 340.694,79.555 341.397 C 79.649 342.100,79.807 343.211,79.905 343.867 C 80.003 344.523,80.194 345.865,80.330 346.848 C 80.908 351.045,80.825 350.765,82.113 352.897 C 88.260 363.076,95.246 370.095,101.611 372.491 C 102.890 372.972,104.259 373.283,104.259 373.091 C 104.259 372.921,103.604 369.223,103.413 368.313 C 103.325 367.892,103.135 366.895,102.991 366.099 C 102.489 363.313,101.337 357.044,100.846 354.429 C 100.671 353.492,100.396 352.020,100.236 351.158 L 99.945 349.591 101.872 345.366 C 102.932 343.042,104.027 340.643,104.306 340.034 C 104.585 339.425,105.038 338.433,105.311 337.828 C 105.584 337.224,105.937 336.458,106.095 336.125 C 106.336 335.617,110.431 331.450,113.690 328.396 C 114.172 327.945,116.520 326.263,118.910 324.659 C 121.299 323.055,124.628 320.818,126.308 319.687 L 129.361 317.632 131.811 313.969 C 134.642 309.736,137.065 305.912,137.756 304.586 C 138.020 304.078,138.890 302.814,139.689 301.776 C 145.789 293.850,147.141 292.163,147.445 292.096 C 153.197 290.833,156.599 289.687,160.413 287.730 C 163.406 286.194,163.580 286.039,165.844 282.880 C 166.968 281.312,169.032 278.447,170.431 276.514 C 171.830 274.580,173.082 272.692,173.213 272.317 C 173.344 271.942,174.434 269.029,175.635 265.843 C 176.837 262.658,178.183 259.073,178.626 257.878 L 179.432 255.704 180.559 254.909 C 187.053 250.324,190.319 244.170,190.361 236.441 L 190.375 233.785 189.533 232.778 C 183.857 225.988,173.816 220.607,163.629 218.898 C 162.036 218.631,162.152 218.738,161.077 216.548 C 158.963 212.241,155.950 207.814,153.850 205.932 C 153.466 205.588,153.151 205.166,153.150 204.995 C 153.144 203.442,150.729 197.929,148.656 194.735 C 143.747 187.171,134.414 180.298,125.182 177.447 C 124.306 177.176,124.125 177.031,123.285 175.925 C 119.879 171.437,114.815 168.218,109.029 166.863 C 107.418 166.486,98.039 161.950,97.261 161.172 C 94.510 158.421,91.703 157.618,89.168 158.858 C 88.281 159.292,86.882 160.651,86.882 161.079 C 86.882 161.321,85.233 163.669,84.634 164.279 C 80.802 168.185,75.606 168.227,69.932 164.399 C 69.276 163.956,68.363 163.381,67.904 163.121 C 65.826 161.942,63.968 159.410,63.276 156.814 C 62.652 154.475,62.828 146.968,63.620 142.074 C 63.682 141.693,63.561 141.578,62.552 141.057 C 58.414 138.925,58.361 135.970,62.413 133.272 C 66.730 130.398,68.388 127.734,67.281 125.448 C 66.561 123.960,64.393 122.526,63.349 122.846 C 52.333 126.224,47.894 120.884,51.383 108.449 C 53.280 101.687,63.865 93.664,73.424 91.741 C 82.218 89.973,91.580 93.973,92.266 99.792 C 93.182 107.553,96.378 112.737,99.368 111.312 C 99.997 111.012,99.910 111.326,100.609 106.814 C 100.747 105.924,100.935 104.736,101.026 104.174 C 101.117 103.612,101.346 102.155,101.534 100.937 C 102.502 94.681,103.248 90.049,103.291 90.017 C 103.308 90.004,104.012 89.762,104.855 89.479 C 111.741 87.167,118.471 83.470,124.307 78.794 L 125.701 77.678 126.326 78.102 C 128.390 79.502,133.467 78.277,138.232 75.229 C 138.723 74.915,139.847 74.447,140.730 74.190 C 141.612 73.934,143.637 73.344,145.230 72.880 C 150.847 71.243,150.331 71.349,151.736 71.544 C 156.958 72.270,165.452 70.941,166.304 69.264 C 168.814 64.328,172.300 63.092,175.414 66.032 C 176.220 66.793,177.639 67.523,178.999 67.875 C 184.575 69.320,188.237 64.619,189.518 54.370 C 189.839 51.809,189.843 51.829,189.090 52.218 C 186.428 53.595,184.474 53.407,184.732 51.799 C 184.831 51.177,186.068 48.582,186.361 48.382 C 186.675 48.166,188.275 45.295,188.583 44.394 C 189.417 41.952,188.964 40.987,186.038 38.975 C 184.286 37.771,183.438 36.952,182.555 35.613 C 180.358 32.277,177.597 32.410,173.771 36.038 C 169.851 39.755,167.952 40.363,165.012 38.842 C 162.980 37.790,162.458 37.945,161.757 39.809 C 160.581 42.937,156.098 46.498,150.847 48.475 C 145.632 50.438,143.291 45.489,145.309 36.764 L 145.675 35.179 149.947 32.453 C 152.595 30.763,154.712 29.279,155.517 28.546 C 159.404 25.007,162.096 23.833,163.188 25.198 C 165.330 27.877,167.120 28.112,171.806 26.328 C 172.887 25.916,173.336 25.859,176.630 25.708 L 180.261 25.541 182.524 27.241 C 184.893 29.019,186.128 30.233,186.617 31.264 C 186.967 32.001,186.571 32.262,190.375 28.779 C 192.492 26.840,198.415 22.076,199.788 21.207 C 199.812 21.192,199.524 20.552,199.149 19.784 C 198.774 19.016,198.467 18.361,198.467 18.327 C 198.467 18.267,197.606 16.413,196.066 13.160 L 195.240 11.414 188.548 11.441 C 184.868 11.456,180.630 11.526,179.131 11.595 M240.290 37.514 C 233.071 40.040,229.003 41.703,228.549 42.314 C 226.222 45.442,232.510 49.222,240.958 49.775 L 241.797 49.830 242.294 48.211 C 242.566 47.321,242.896 46.210,243.026 45.743 C 243.155 45.275,243.354 44.862,243.467 44.824 C 243.830 44.703,245.163 43.388,245.413 42.905 C 246.286 41.218,244.989 39.176,242.139 37.748 C 241.180 37.267,241.044 37.250,240.290 37.514 M306.644 42.259 C 305.941 42.332,304.140 42.511,302.641 42.656 C 298.203 43.087,296.400 43.264,295.282 43.378 C 293.947 43.515,294.026 43.257,293.914 47.871 C 293.680 57.513,295.815 63.901,299.404 64.299 C 303.233 64.725,305.378 65.099,305.587 65.379 C 305.708 65.540,306.590 66.993,307.546 68.607 C 308.948 70.972,309.367 71.556,309.710 71.618 C 309.945 71.660,312.034 71.948,314.353 72.256 C 318.294 72.780,318.569 72.839,318.569 73.163 C 318.569 73.519,317.787 79.580,317.623 80.494 C 317.553 80.886,317.850 81.733,318.900 84.133 C 319.676 85.906,320.214 87.350,320.143 87.468 C 319.855 87.945,314.640 94.686,314.415 94.872 C 313.236 95.851,306.660 99.753,306.377 99.642 C 304.320 98.836,297.171 100.247,293.785 102.127 C 293.221 102.440,292.017 103.110,291.108 103.615 L 289.456 104.534 289.986 105.461 C 290.278 105.971,291.775 108.650,293.314 111.414 C 298.111 120.031,300.802 122.813,305.537 124.045 C 307.626 124.589,308.401 124.496,314.389 122.990 C 320.756 121.388,319.952 121.810,320.121 119.977 C 320.784 112.784,321.682 107.323,322.331 106.542 C 322.635 106.175,322.809 106.251,323.111 106.885 C 323.396 107.483,323.527 107.553,328.790 109.942 C 329.306 110.175,331.067 110.983,332.703 111.736 L 335.679 113.105 336.147 112.537 C 338.281 109.949,339.688 112.081,339.692 117.907 C 339.694 119.917,339.880 120.328,341.312 121.465 C 343.453 123.167,345.467 122.643,347.637 119.820 C 349.631 117.227,350.318 117.680,352.105 122.767 C 354.132 128.537,355.120 129.026,357.714 125.543 C 359.245 123.487,359.905 122.791,360.258 122.859 C 360.565 122.918,360.629 123.113,361.234 125.809 C 362.120 129.761,364.242 131.427,368.925 131.847 C 374.370 132.334,377.946 135.214,380.359 141.056 C 381.419 143.622,382.486 148.122,381.957 147.795 C 381.703 147.638,379.253 147.206,377.076 146.934 C 375.670 146.759,373.403 146.680,369.732 146.679 L 364.422 146.678 362.066 144.840 C 353.191 137.913,347.114 133.355,346.353 133.056 C 343.613 131.976,340.001 131.485,334.753 131.480 C 331.157 131.477,330.663 131.442,329.898 131.137 C 322.347 128.126,313.026 127.829,304.807 130.339 C 303.241 130.817,301.595 131.316,301.150 131.447 C 300.705 131.579,299.977 131.794,299.532 131.925 C 297.063 132.654,294.581 133.427,294.208 133.583 C 293.974 133.681,292.977 134.758,291.993 135.978 C 287.198 141.920,285.242 144.020,284.280 144.257 C 277.305 145.974,271.993 150.255,268.905 156.645 C 267.591 159.363,267.405 160.301,267.961 161.392 C 268.944 163.319,269.112 166.072,268.480 169.892 C 268.007 172.749,267.971 172.899,266.879 176.661 C 262.772 190.802,261.487 202.343,263.410 207.814 C 263.778 208.862,263.935 209.038,268.054 213.028 C 279.311 223.935,285.875 228.801,292.854 231.416 C 297.325 233.090,299.238 233.222,309.112 232.533 C 319.015 231.842,323.980 232.723,326.211 235.567 C 327.387 237.067,328.526 237.155,331.175 235.953 C 334.003 234.670,334.882 234.884,335.499 237.005 C 337.066 242.396,336.760 246.514,334.326 252.827 C 329.936 264.213,329.821 266.374,333.138 275.298 C 335.226 280.917,335.512 282.226,335.386 285.588 C 335.203 290.442,333.387 294.056,328.612 299.063 C 324.232 303.656,323.473 304.677,321.485 308.653 C 318.104 315.414,317.771 317.927,319.328 324.957 C 320.060 328.266,320.591 331.206,320.865 333.475 C 321.027 334.811,320.227 337.475,318.563 341.141 C 318.265 341.797,317.875 342.658,317.696 343.055 C 317.368 343.781,316.332 345.942,313.478 351.853 C 312.624 353.622,311.925 355.092,311.925 355.120 C 311.925 355.149,311.702 355.657,311.430 356.249 C 308.229 363.218,307.737 366.239,309.540 367.867 C 311.190 369.358,313.412 368.863,318.135 365.951 C 319.068 365.377,319.930 364.906,320.052 364.906 C 320.173 364.906,320.273 364.846,320.273 364.773 C 320.273 364.699,320.500 364.505,320.777 364.341 C 321.055 364.177,321.381 363.947,321.501 363.830 C 321.622 363.714,322.181 363.264,322.743 362.831 C 323.305 362.398,323.918 361.899,324.106 361.723 C 324.293 361.546,324.607 361.290,324.803 361.152 C 325.289 360.812,326.507 359.800,328.352 358.202 C 329.792 356.955,330.907 355.965,333.752 353.407 C 335.456 351.875,344.179 343.090,345.922 341.150 C 346.759 340.219,347.560 339.332,347.700 339.181 C 348.255 338.585,349.982 336.587,350.319 336.152 C 350.515 335.898,350.818 335.537,350.992 335.349 C 351.567 334.728,355.259 330.143,356.598 328.388 C 357.322 327.438,357.975 326.584,358.048 326.491 C 358.252 326.230,359.991 323.883,360.781 322.802 C 361.169 322.272,362.523 320.279,363.792 318.373 C 365.060 316.466,366.161 314.828,366.239 314.733 C 366.479 314.437,370.698 307.501,370.698 307.402 C 370.698 307.351,370.952 306.910,371.262 306.423 C 371.573 305.935,372.198 304.847,372.653 304.003 C 373.108 303.160,373.736 302.010,374.049 301.448 C 375.237 299.312,378.855 291.963,380.047 289.267 C 380.730 287.721,381.427 286.150,381.595 285.775 C 381.764 285.400,382.183 284.404,382.527 283.560 C 382.871 282.717,383.257 281.797,383.384 281.516 C 384.351 279.384,387.552 270.299,388.755 266.269 C 388.965 265.566,389.313 264.417,389.529 263.714 C 389.886 262.548,390.151 261.608,390.658 259.710 C 390.758 259.336,390.905 258.837,390.984 258.603 C 391.064 258.369,391.285 257.487,391.477 256.644 C 391.668 255.801,391.898 254.842,391.988 254.514 C 392.163 253.869,393.093 249.811,393.256 248.978 C 393.376 248.366,393.845 246.013,394.038 245.060 C 394.315 243.688,394.742 241.273,394.971 239.779 C 395.100 238.935,395.292 237.709,395.397 237.053 C 395.680 235.293,396.045 232.437,396.344 229.642 C 397.818 215.893,397.960 202.415,396.761 189.949 C 396.264 184.781,395.791 180.757,395.400 178.365 C 395.300 177.756,395.111 176.567,394.979 175.724 C 394.675 173.770,394.247 171.343,394.032 170.358 C 393.941 169.936,393.787 169.131,393.691 168.569 C 393.417 166.963,392.926 164.805,391.560 159.199 C 391.126 157.419,390.670 155.618,390.546 155.196 C 390.422 154.774,390.204 154.008,390.060 153.492 C 389.447 151.286,388.177 147.126,387.902 146.422 C 387.829 146.235,387.603 145.545,387.400 144.889 C 387.198 144.233,386.966 143.543,386.885 143.356 C 386.805 143.169,386.610 142.632,386.452 142.164 C 386.294 141.695,386.104 141.158,386.030 140.971 C 385.956 140.784,385.653 139.940,385.358 139.097 C 385.062 138.254,384.747 137.431,384.658 137.268 C 384.570 137.105,384.497 136.890,384.497 136.790 C 384.497 136.690,384.355 136.287,384.181 135.894 C 384.006 135.500,383.499 134.259,383.052 133.135 C 382.606 132.010,382.021 130.606,381.751 130.014 C 381.481 129.422,381.261 128.896,381.261 128.846 C 381.261 128.795,381.042 128.283,380.775 127.707 C 380.508 127.132,380.171 126.393,380.026 126.065 C 378.373 122.335,373.709 113.080,372.887 111.899 C 372.714 111.650,372.572 111.400,372.572 111.344 C 372.572 111.233,371.135 108.714,369.890 106.644 C 367.063 101.941,363.463 96.386,361.298 93.385 C 360.893 92.824,360.447 92.201,360.307 92.001 C 360.047 91.630,357.003 87.536,356.331 86.654 C 355.932 86.131,354.999 84.961,354.543 84.412 C 354.387 84.224,353.991 83.726,353.663 83.305 C 353.088 82.568,352.573 81.938,352.215 81.535 C 352.121 81.430,351.663 80.884,351.196 80.323 C 350.730 79.761,350.308 79.263,350.259 79.216 C 350.210 79.170,349.889 78.786,349.546 78.365 C 349.202 77.943,348.704 77.361,348.438 77.072 C 348.173 76.783,347.342 75.865,346.593 75.033 C 341.943 69.866,334.534 62.534,330.593 59.199 C 330.040 58.731,329.385 58.156,329.139 57.922 C 328.893 57.687,328.277 57.151,327.769 56.729 C 327.261 56.307,326.497 55.667,326.072 55.307 C 324.986 54.386,324.719 54.168,323.850 53.497 C 323.428 53.171,323.045 52.861,322.998 52.807 C 322.951 52.754,322.415 52.334,321.806 51.874 C 321.197 51.414,320.660 50.996,320.613 50.944 C 320.566 50.893,320.068 50.506,319.506 50.085 C 318.944 49.664,318.445 49.277,318.399 49.226 C 318.352 49.174,318.045 48.948,317.717 48.722 C 317.389 48.497,317.083 48.264,317.036 48.204 C 316.989 48.145,316.520 47.796,315.994 47.430 C 315.468 47.063,314.308 46.248,313.416 45.619 C 310.679 43.688,308.232 42.077,308.073 42.102 C 307.990 42.115,307.347 42.186,306.644 42.259 M286.642 61.767 C 284.957 62.385,284.424 63.283,284.974 64.578 C 285.150 64.993,285.469 66.019,285.681 66.858 L 286.068 68.384 285.581 68.779 C 285.313 68.996,284.119 69.914,282.927 70.819 L 280.760 72.463 281.463 73.753 C 282.153 75.019,283.484 77.375,283.569 77.482 C 283.609 77.532,284.690 77.036,288.128 75.388 C 288.860 75.038,289.481 74.778,289.509 74.811 C 289.553 74.865,289.890 76.617,290.734 81.175 C 291.287 84.166,291.568 84.838,292.784 86.086 C 295.341 88.708,299.944 87.715,304.664 83.523 C 305.436 82.837,305.433 82.733,304.586 80.193 C 302.451 73.794,298.800 69.004,294.356 66.769 C 292.744 65.959,292.137 65.439,290.877 63.794 C 289.282 61.713,288.202 61.196,286.642 61.767 M87.649 119.906 C 85.880 120.491,84.749 121.508,83.684 123.475 L 83.126 124.506 84.204 125.037 C 85.255 125.554,87.895 126.091,94.719 127.174 C 105.702 128.918,110.733 128.839,110.733 126.922 C 110.733 125.604,108.746 124.905,103.918 124.526 C 98.854 124.128,98.224 123.905,95.145 121.419 C 92.918 119.622,90.181 119.069,87.649 119.906 M112.766 134.468 C 110.740 135.456,107.793 136.832,106.474 137.408 C 101.744 139.470,102.522 140.064,109.881 140.011 C 115.003 139.975,115.723 140.094,118.934 141.508 C 120.788 142.324,120.786 142.325,121.559 139.420 C 122.026 137.666,122.064 137.308,121.782 137.308 C 120.939 137.308,119.078 136.471,117.059 135.183 C 114.430 133.507,114.659 133.545,112.766 134.468 "
          stroke="none" fill="#04b43c" fill-rule="evenodd"></path>
    <path id="path1"
          d="M193.612 9.726 C 191.082 9.796,187.900 9.936,186.542 10.038 C 181.283 10.432,175.385 11.019,172.913 11.394 C 172.304 11.486,171.001 11.678,170.017 11.821 C 166.714 12.300,166.063 12.415,165.953 12.535 C 165.893 12.601,166.091 12.608,166.394 12.551 C 167.118 12.413,173.320 11.829,176.661 11.583 C 179.790 11.354,193.871 11.142,194.772 11.312 C 195.312 11.413,195.449 11.540,195.762 12.231 C 196.169 13.129,196.467 13.771,199.167 19.565 C 199.531 20.348,199.830 21.044,199.830 21.113 C 199.830 21.261,199.366 21.633,195.997 24.189 C 193.848 25.819,191.700 27.678,187.156 31.845 C 186.790 32.179,186.547 32.355,186.615 32.236 C 187.123 31.337,184.902 28.957,181.037 26.259 L 180.217 25.687 176.693 25.810 C 174.180 25.898,172.997 26.006,172.572 26.187 C 170.012 27.279,167.333 27.776,165.822 27.438 C 164.801 27.209,164.428 26.916,163.174 25.353 C 162.093 24.005,159.102 25.274,155.792 28.486 C 155.324 28.940,152.925 30.624,150.461 32.228 C 147.997 33.832,145.917 35.267,145.838 35.417 C 145.275 36.484,144.561 41.262,144.679 43.172 C 144.990 48.234,147.337 49.911,151.533 48.067 C 156.931 45.695,160.784 42.528,161.681 39.724 C 162.279 37.859,162.867 37.680,165.018 38.714 C 168.031 40.162,169.894 39.621,173.291 36.315 C 177.439 32.278,180.377 32.046,182.686 35.574 C 183.559 36.908,184.116 37.454,185.896 38.722 C 187.735 40.032,187.935 40.204,188.506 40.958 C 189.552 42.340,189.028 44.596,186.934 47.715 C 183.762 52.443,184.241 54.048,188.333 52.398 L 189.779 51.815 189.779 52.210 C 189.779 57.919,187.321 64.935,184.593 67.016 C 182.087 68.928,178.016 68.543,175.424 66.149 C 172.289 63.254,168.809 64.508,166.304 69.435 C 165.488 71.041,157.687 72.289,152.129 71.703 C 150.472 71.528,150.247 71.542,149.063 71.887 C 148.360 72.093,147.172 72.438,146.422 72.656 C 139.632 74.626,139.262 74.753,137.734 75.646 C 132.669 78.606,128.345 79.623,126.440 78.303 C 125.632 77.744,126.018 77.577,123.488 79.577 C 118.193 83.761,110.936 87.635,104.408 89.765 L 103.279 90.133 103.184 90.935 C 103.055 92.023,102.771 93.922,102.566 95.060 C 102.473 95.575,102.279 96.802,102.134 97.785 C 101.989 98.769,101.797 99.996,101.708 100.511 C 101.618 101.026,101.424 102.253,101.275 103.237 C 100.774 106.559,100.258 109.819,100.074 110.826 C 99.999 111.241,99.010 111.755,98.285 111.755 C 95.734 111.755,93.420 107.476,92.333 100.748 C 91.142 93.377,82.045 89.622,71.766 92.258 C 63.635 94.342,53.557 102.004,51.799 107.438 C 47.883 119.543,51.754 125.684,61.700 123.149 C 64.078 122.542,64.177 122.546,65.342 123.301 C 69.333 125.889,68.277 129.543,62.411 133.431 C 58.476 136.040,58.588 139.083,62.690 140.997 L 63.729 141.482 63.616 142.589 C 63.554 143.198,63.434 144.272,63.351 144.974 C 62.970 148.169,62.970 155.046,63.352 156.555 C 64.069 159.392,65.834 161.850,68.058 163.109 C 68.526 163.374,69.415 163.924,70.033 164.330 C 77.083 168.961,83.401 167.668,86.848 160.887 C 88.585 157.471,93.275 157.312,96.735 160.551 C 97.889 161.632,106.859 166.304,108.262 166.556 C 113.946 167.576,120.003 171.306,123.424 175.894 C 124.201 176.936,124.418 177.117,125.146 177.328 C 133.929 179.864,143.549 186.885,148.627 194.463 C 150.609 197.422,153.322 203.576,153.322 205.114 C 153.322 205.229,153.821 205.817,154.430 206.420 C 156.749 208.717,158.871 211.910,161.261 216.701 L 162.156 218.496 163.825 218.807 C 174.432 220.788,183.870 225.853,189.525 232.598 C 191.651 235.135,190.350 243.369,187.000 248.580 C 185.490 250.929,183.013 253.418,180.720 254.891 L 179.582 255.622 178.534 258.433 C 175.877 265.556,173.367 272.200,173.127 272.743 C 172.919 273.213,167.112 281.408,164.918 284.327 C 164.672 284.655,164.338 285.132,164.176 285.387 C 163.193 286.939,155.938 290.209,150.681 291.471 C 149.838 291.674,148.871 291.912,148.532 292.001 C 148.193 292.091,147.765 292.164,147.581 292.164 C 147.375 292.164,146.990 292.509,146.579 293.062 C 145.941 293.921,145.196 294.880,140.534 300.852 C 139.400 302.304,138.278 303.873,138.040 304.338 C 137.331 305.721,135.575 308.503,132.424 313.233 L 129.454 317.692 127.972 318.702 C 127.157 319.257,123.884 321.459,120.698 323.596 C 113.950 328.122,114.711 327.514,110.061 332.093 L 106.409 335.690 105.318 338.075 C 103.627 341.773,103.224 342.662,101.995 345.400 C 101.575 346.337,100.985 347.602,100.685 348.211 C 100.044 349.508,100.039 349.615,100.490 351.959 C 100.680 352.943,100.993 354.629,101.186 355.707 C 101.536 357.668,101.716 358.627,102.033 360.221 C 102.189 361.009,102.513 362.792,103.164 366.440 C 103.306 367.236,103.491 368.233,103.575 368.654 C 103.659 369.076,103.850 370.111,104.000 370.954 C 104.151 371.797,104.310 372.660,104.355 372.871 C 104.685 374.430,98.308 371.478,94.549 368.331 C 88.835 363.546,81.046 353.071,80.603 349.574 C 80.444 348.321,79.395 340.934,79.042 338.586 C 78.943 337.930,78.722 336.414,78.550 335.216 C 78.363 333.911,78.134 332.922,77.979 332.746 C 76.133 330.651,75.398 323.321,76.447 317.462 C 77.125 313.672,77.311 312.529,77.572 310.562 C 78.484 303.688,78.448 304.090,78.195 303.695 C 76.133 300.475,75.976 296.127,77.687 289.608 C 78.301 287.268,78.559 285.846,79.046 282.112 C 79.248 280.566,79.597 277.960,79.821 276.320 C 80.781 269.303,80.738 269.777,80.442 269.607 C 76.547 267.370,74.815 260.711,76.520 254.528 C 77.095 252.440,77.166 252.658,75.597 251.671 C 71.687 249.212,66.767 244.526,64.273 240.886 C 63.984 240.464,62.627 238.778,61.258 237.138 C 55.979 230.818,54.496 227.517,55.024 223.263 C 55.200 221.849,55.188 221.730,54.706 220.223 C 53.767 217.287,53.577 215.817,53.578 211.499 C 53.580 203.380,53.840 202.803,63.675 189.141 C 66.840 184.744,67.492 183.562,68.254 180.835 C 70.147 174.068,69.241 169.749,65.481 167.607 C 65.094 167.386,63.360 166.103,61.626 164.754 L 58.474 162.302 57.063 156.662 C 56.287 153.560,55.589 150.792,55.513 150.511 C 55.414 150.149,54.664 149.377,52.945 147.871 C 51.609 146.699,50.180 145.430,49.770 145.050 L 49.023 144.359 49.565 140.385 C 49.864 138.199,50.045 136.356,49.969 136.290 C 49.892 136.223,49.025 135.836,48.041 135.429 C 36.878 130.818,31.531 124.238,32.611 116.440 C 33.086 113.004,33.851 107.186,33.943 106.303 C 33.975 105.994,33.856 105.795,33.508 105.575 C 32.609 105.009,32.321 103.584,32.725 101.700 C 32.828 101.221,32.882 100.798,32.844 100.760 C 32.752 100.668,28.183 108.132,27.010 110.292 C 26.802 110.675,26.261 111.678,25.806 112.521 C 25.351 113.365,24.763 114.438,24.498 114.906 C 23.951 115.876,20.629 122.562,19.674 124.617 C 18.508 127.125,18.228 127.746,18.228 127.830 C 18.228 127.876,17.960 128.495,17.632 129.205 C 17.304 129.915,17.036 130.538,17.036 130.589 C 17.036 130.673,16.838 131.140,16.102 132.794 C 15.729 133.633,12.998 140.883,12.605 142.078 C 12.405 142.687,12.175 143.339,12.094 143.526 C 12.013 143.714,11.898 144.059,11.839 144.293 C 11.780 144.527,11.590 145.102,11.418 145.571 C 11.246 146.039,10.933 146.997,10.724 147.700 C 10.514 148.403,10.207 149.399,10.042 149.915 C 9.877 150.430,9.578 151.427,9.377 152.129 C 9.176 152.832,8.865 153.905,8.686 154.514 C 8.506 155.124,8.288 155.928,8.199 156.303 C 8.111 156.678,7.812 157.866,7.535 158.944 C 7.258 160.021,6.861 161.670,6.653 162.606 C 6.445 163.543,6.238 164.425,6.193 164.566 C 6.148 164.706,5.994 165.396,5.851 166.099 C 5.709 166.802,5.518 167.721,5.427 168.143 C 5.199 169.205,4.801 171.345,4.491 173.169 C 4.348 174.012,4.157 175.124,4.068 175.639 C 3.978 176.154,3.792 177.342,3.653 178.279 C 3.429 179.802,3.258 181.120,2.715 185.520 C 2.519 187.112,2.100 191.887,1.842 195.486 C 1.582 199.103,1.584 216.454,1.845 220.017 C 2.133 223.937,2.530 228.502,2.712 229.983 C 3.245 234.315,3.841 238.641,4.085 239.949 C 4.190 240.511,4.387 241.623,4.522 242.419 C 4.860 244.410,5.242 246.444,5.449 247.359 C 5.545 247.781,5.733 248.663,5.868 249.319 C 6.542 252.605,7.351 256.020,8.107 258.773 C 8.248 259.289,8.446 260.017,8.546 260.392 C 8.646 260.767,8.789 261.265,8.865 261.499 C 8.940 261.733,9.130 262.385,9.287 262.947 C 9.735 264.552,10.879 268.256,11.417 269.847 C 12.904 274.238,13.854 276.936,13.966 277.087 C 14.036 277.181,14.147 277.482,14.212 277.757 C 14.278 278.032,14.481 278.563,14.662 278.939 C 14.843 279.314,14.991 279.691,14.991 279.776 C 14.991 279.862,15.101 280.173,15.235 280.468 C 15.369 280.764,15.721 281.618,16.016 282.368 C 16.312 283.118,16.620 283.884,16.700 284.072 C 17.247 285.345,17.630 286.205,17.908 286.787 C 18.084 287.156,18.228 287.518,18.228 287.593 C 18.228 287.667,18.527 288.362,18.892 289.136 C 19.257 289.911,19.726 290.925,19.934 291.390 C 20.688 293.070,24.459 300.537,25.400 302.215 C 25.690 302.730,26.092 303.458,26.294 303.833 C 26.496 304.208,26.699 304.553,26.746 304.600 C 26.793 304.647,27.054 305.106,27.326 305.622 C 29.134 309.044,34.177 317.019,37.330 321.442 C 37.973 322.345,38.596 323.227,38.713 323.403 C 38.831 323.579,39.248 324.154,39.641 324.681 C 40.034 325.208,40.555 325.907,40.798 326.235 C 41.898 327.714,45.787 332.692,45.990 332.879 C 46.040 332.926,46.388 333.348,46.763 333.816 C 47.748 335.048,49.824 337.493,50.681 338.432 C 50.775 338.535,51.388 339.222,52.044 339.959 C 57.810 346.440,66.427 354.735,73.087 360.218 C 73.881 360.872,74.570 361.450,74.617 361.503 C 74.664 361.555,75.197 361.978,75.802 362.443 C 76.408 362.908,77.059 363.415,77.250 363.570 C 78.576 364.646,79.998 365.728,82.029 367.206 C 83.317 368.143,84.858 369.265,85.454 369.700 C 86.049 370.134,87.898 371.391,89.563 372.491 C 91.228 373.592,92.917 374.712,93.318 374.981 C 93.719 375.249,94.122 375.468,94.213 375.468 C 94.304 375.468,94.378 375.533,94.378 375.611 C 94.378 375.690,94.589 375.850,94.847 375.966 C 95.104 376.083,95.699 376.432,96.169 376.742 C 96.638 377.053,98.210 377.994,99.661 378.833 C 103.999 381.343,105.585 382.211,109.284 384.096 C 110.877 384.907,112.449 385.704,112.777 385.867 C 114.187 386.567,118.899 388.756,118.995 388.756 C 119.028 388.756,119.655 389.034,120.388 389.373 C 121.754 390.005,129.391 393.075,130.920 393.607 C 131.388 393.770,131.925 393.968,132.112 394.047 C 132.641 394.271,136.184 395.480,138.075 396.084 C 139.012 396.382,140.200 396.765,140.716 396.935 C 142.587 397.550,149.334 399.439,150.937 399.797 C 151.359 399.891,152.125 400.081,152.641 400.218 C 153.156 400.356,154.344 400.636,155.281 400.840 C 156.929 401.200,157.764 401.386,159.199 401.712 C 159.895 401.870,160.934 402.069,163.203 402.477 C 163.905 402.604,164.940 402.793,165.503 402.897 C 167.317 403.235,169.656 403.584,174.702 404.273 C 184.509 405.610,202.177 406.178,211.474 405.454 C 212.706 405.358,214.710 405.204,215.928 405.112 C 218.414 404.925,221.375 404.649,222.402 404.508 C 222.777 404.457,223.620 404.347,224.276 404.264 C 227.544 403.850,228.498 403.720,230.068 403.477 C 231.005 403.332,232.538 403.073,233.475 402.900 C 234.412 402.728,235.486 402.539,235.860 402.481 C 236.235 402.422,236.887 402.299,237.308 402.208 C 237.730 402.117,238.842 401.888,239.779 401.700 C 240.716 401.512,241.980 401.243,242.589 401.102 C 243.198 400.962,244.195 400.739,244.804 400.607 C 246.289 400.285,250.745 399.171,251.278 398.988 C 251.512 398.908,252.145 398.721,252.684 398.573 C 256.351 397.565,257.756 397.139,261.755 395.822 C 264.714 394.847,269.786 393.044,270.613 392.672 C 270.801 392.588,271.874 392.163,272.998 391.727 C 274.123 391.292,275.115 390.867,275.204 390.783 C 275.293 390.699,275.474 390.630,275.605 390.630 C 275.842 390.630,276.147 390.504,278.133 389.583 C 278.709 389.316,279.219 389.097,279.267 389.097 C 279.355 389.097,281.375 388.180,283.646 387.108 C 285.549 386.210,292.273 382.838,293.293 382.270 C 293.781 381.999,294.513 381.594,294.918 381.372 C 296.139 380.702,297.985 379.648,298.943 379.075 C 299.439 378.778,299.872 378.535,299.905 378.535 C 300.091 378.535,308.599 373.189,308.859 372.909 C 308.905 372.858,309.365 372.552,309.881 372.229 C 311.844 370.998,319.250 365.654,319.250 365.469 C 319.250 365.429,319.155 365.457,319.037 365.530 C 313.012 369.297,310.634 369.716,308.946 367.310 C 307.478 365.217,308.638 361.526,314.653 349.148 C 317.562 343.163,318.368 341.408,319.519 338.552 C 321.063 334.719,321.071 333.953,319.639 327.087 C 317.734 317.962,317.763 316.829,320.026 311.492 C 322.210 306.344,323.867 303.859,327.960 299.591 C 335.707 291.513,337.009 286.228,333.565 276.831 C 333.204 275.848,332.643 274.314,332.317 273.424 C 329.861 266.712,330.147 263.071,333.863 253.748 C 336.611 246.853,337.013 242.127,335.310 236.751 C 334.775 235.064,333.832 234.890,331.337 236.018 C 328.355 237.367,327.569 237.278,325.893 235.406 C 323.460 232.689,319.739 232.030,310.194 232.624 C 302.744 233.088,299.086 233.136,297.233 232.795 C 291.395 231.722,284.426 227.803,276.836 221.324 C 272.455 217.583,264.029 209.463,263.549 208.518 C 262.114 205.693,262.020 199.382,263.298 191.738 C 263.670 189.514,263.904 188.291,264.572 185.094 C 264.849 183.771,266.045 179.034,266.443 177.683 C 267.928 172.650,267.948 172.572,268.422 169.761 C 268.592 168.749,268.712 167.090,268.716 165.673 L 268.723 163.288 268.072 161.852 C 267.256 160.050,267.333 159.595,269.027 156.218 C 272.181 149.930,277.395 145.759,284.034 144.210 C 284.601 144.078,285.152 143.870,285.259 143.748 C 287.315 141.414,288.268 140.300,290.476 137.646 C 291.919 135.911,293.257 134.276,293.449 134.013 C 293.794 133.538,294.362 133.333,299.659 131.771 C 300.081 131.647,302.112 131.036,304.174 130.415 C 312.886 127.787,321.171 127.860,328.782 130.633 L 330.409 131.226 335.094 131.344 C 342.960 131.541,345.871 132.214,348.852 134.520 C 351.031 136.206,358.783 142.165,361.861 144.520 L 364.523 146.557 369.272 146.523 C 374.721 146.484,380.809 147.020,381.789 147.625 C 382.276 147.927,381.292 143.627,380.337 141.285 C 377.879 135.256,374.245 132.348,368.662 131.943 C 364.021 131.606,361.558 129.361,360.905 124.872 C 360.537 122.336,360.205 122.379,358.121 125.238 C 355.113 129.364,354.123 128.861,351.699 121.976 C 350.972 119.912,350.913 119.780,350.401 119.073 C 349.664 118.056,348.953 118.180,348.056 119.484 C 345.672 122.949,343.125 123.419,340.533 120.874 C 339.523 119.882,339.558 120.019,339.472 116.695 C 339.347 111.856,338.362 110.491,336.405 112.447 C 335.546 113.307,335.969 113.400,331.795 111.434 C 330.777 110.954,329.923 110.562,329.896 110.562 C 329.869 110.562,329.206 110.265,328.424 109.902 C 326.475 108.998,325.291 108.462,324.225 108.005 C 323.523 107.703,323.269 107.487,323.078 107.030 C 322.331 105.244,321.365 109.092,320.523 117.206 C 320.372 118.658,320.197 120.263,320.133 120.772 L 320.017 121.698 315.758 122.781 C 308.700 124.576,308.254 124.650,306.386 124.332 C 301.948 123.577,297.804 119.967,294.682 114.140 C 294.356 113.531,293.322 111.652,292.383 109.966 C 290.109 105.878,289.756 105.248,289.543 104.902 C 289.425 104.711,289.419 104.551,289.527 104.447 C 289.698 104.280,293.006 102.385,293.126 102.385 C 293.162 102.385,293.478 102.206,293.828 101.987 C 296.595 100.256,303.730 98.800,306.107 99.481 C 306.697 99.651,307.515 99.196,313.226 95.527 C 314.368 94.793,317.313 91.308,319.729 87.829 L 320.122 87.263 318.747 84.079 C 317.991 82.327,317.407 80.837,317.451 80.767 C 317.494 80.698,317.649 79.688,317.796 78.523 C 317.943 77.358,318.166 75.639,318.292 74.702 C 318.417 73.765,318.510 72.985,318.500 72.968 C 318.478 72.934,311.722 71.984,310.221 71.803 L 309.284 71.690 307.339 68.464 C 305.975 66.204,305.287 65.218,305.039 65.168 C 304.844 65.130,304.340 65.055,303.918 65.002 C 297.593 64.215,297.414 64.133,295.926 61.387 C 294.071 57.962,293.052 48.669,294.014 43.952 L 294.136 43.356 295.407 43.245 C 296.538 43.147,298.615 42.943,305.921 42.216 C 307.559 42.053,307.963 41.964,307.795 41.803 C 307.524 41.543,299.920 36.867,298.552 36.119 C 297.990 35.811,297.453 35.503,297.359 35.435 C 297.199 35.317,296.801 35.092,294.549 33.850 C 291.685 32.270,286.936 29.854,284.327 28.649 C 283.250 28.151,282.176 27.644,281.942 27.522 C 281.708 27.400,280.596 26.902,279.472 26.416 C 277.254 25.457,277.214 25.439,275.762 24.797 C 275.220 24.557,274.722 24.359,274.654 24.355 C 274.587 24.352,274.225 24.201,273.850 24.020 C 273.475 23.839,273.050 23.689,272.905 23.686 C 272.759 23.682,272.568 23.613,272.479 23.530 C 272.390 23.448,271.320 23.018,270.102 22.573 C 268.884 22.129,267.655 21.664,267.370 21.539 C 267.086 21.415,266.166 21.088,265.326 20.813 C 264.486 20.539,263.492 20.195,263.118 20.049 C 262.743 19.904,261.286 19.427,259.881 18.991 C 258.475 18.555,257.134 18.134,256.899 18.056 C 256.665 17.978,256.014 17.786,255.451 17.628 C 254.889 17.471,254.238 17.275,254.003 17.193 C 253.769 17.111,252.811 16.844,251.874 16.600 C 250.937 16.356,249.578 16.001,248.853 15.810 C 247.110 15.352,247.548 14.899,243.523 21.319 C 238.659 29.080,238.196 29.780,237.858 29.878 C 237.696 29.925,236.146 30.202,234.412 30.494 C 232.679 30.785,230.791 31.115,230.216 31.227 L 229.171 31.431 225.917 35.149 C 224.128 37.194,220.808 41.142,218.540 43.923 C 212.726 51.052,212.398 51.448,212.323 51.448 C 212.286 51.448,211.783 51.209,211.205 50.918 C 205.721 48.149,201.828 41.271,200.273 31.601 C 199.698 28.028,199.725 27.840,201.416 23.595 C 202.238 21.533,203.377 18.628,203.950 17.138 L 204.990 14.428 204.603 13.390 C 204.391 12.818,204.029 11.768,203.799 11.056 L 203.382 9.761 201.478 9.651 C 200.431 9.591,199.267 9.555,198.893 9.571 C 198.518 9.587,196.141 9.657,193.612 9.726 M242.044 37.546 C 246.308 39.707,246.975 42.919,243.574 44.910 C 243.432 44.993,242.992 46.182,242.586 47.575 L 241.854 50.091 241.242 49.995 C 238.976 49.640,238.237 49.513,236.797 49.226 C 232.830 48.436,231.349 47.861,229.588 46.426 C 227.478 44.707,227.406 42.335,229.436 41.466 C 230.495 41.012,235.641 39.062,237.946 38.240 C 239.141 37.814,240.273 37.397,240.460 37.313 C 240.985 37.079,241.176 37.107,242.044 37.546 M289.231 61.899 C 289.538 62.101,290.279 62.879,290.878 63.629 C 292.349 65.472,292.723 65.799,294.208 66.545 C 299.295 69.099,303.938 75.712,305.367 82.438 C 305.506 83.090,305.679 82.899,303.237 84.777 C 297.204 89.415,291.792 88.293,290.796 82.198 C 290.689 81.542,290.421 80.085,290.202 78.961 C 289.983 77.836,289.752 76.565,289.691 76.136 C 289.504 74.838,289.560 74.838,286.785 76.164 C 283.312 77.823,283.538 77.756,283.258 77.207 C 283.128 76.954,282.505 75.826,281.872 74.702 C 281.240 73.578,280.709 72.610,280.693 72.551 C 280.677 72.492,281.833 71.545,283.262 70.446 C 284.758 69.295,285.859 68.328,285.858 68.167 C 285.855 67.774,285.082 65.020,284.855 64.598 C 283.768 62.567,287.108 60.507,289.231 61.899 M93.113 119.953 C 93.588 120.198,94.738 120.974,95.668 121.677 C 98.504 123.822,99.172 124.052,103.488 124.369 C 108.698 124.751,110.535 125.375,110.833 126.863 C 111.275 129.073,104.712 129.062,91.924 126.832 C 90.603 126.602,88.641 126.265,87.564 126.084 C 84.236 125.523,82.983 124.910,83.288 123.989 C 84.469 120.416,89.779 118.235,93.113 119.953 M117.105 135.074 C 118.879 136.193,119.834 136.681,120.762 136.941 C 122.345 137.386,122.250 137.162,121.722 139.211 C 120.920 142.324,120.756 142.466,118.941 141.635 C 115.922 140.252,115.268 140.147,109.455 140.123 C 104.122 140.101,103.578 140.024,103.578 139.295 C 103.578 138.753,104.392 138.203,106.741 137.157 C 108.485 136.381,109.694 135.818,113.032 134.229 C 114.753 133.409,114.323 133.320,117.105 135.074 "
          stroke="none" fill="#0464b4" fill-rule="evenodd"></path>
    <path id="path2"
          d="M185.053 11.366 C 185.312 11.405,185.696 11.404,185.905 11.364 C 186.115 11.323,185.903 11.291,185.434 11.292 C 184.966 11.294,184.794 11.327,185.053 11.366 M191.525 11.366 C 191.782 11.405,192.204 11.405,192.462 11.366 C 192.719 11.327,192.509 11.295,191.993 11.295 C 191.478 11.295,191.267 11.327,191.525 11.366 M173.162 36.499 L 172.317 37.394 173.211 36.548 C 174.042 35.763,174.184 35.605,174.057 35.605 C 174.030 35.605,173.627 36.007,173.162 36.499 M183.305 36.680 C 183.305 36.710,183.554 36.959,183.859 37.234 L 184.412 37.734 183.912 37.181 C 183.446 36.664,183.305 36.549,183.305 36.680 M180.622 68.261 C 180.786 68.303,181.054 68.303,181.218 68.261 C 181.382 68.218,181.248 68.183,180.920 68.183 C 180.592 68.183,180.458 68.218,180.622 68.261 M298.296 69.591 C 298.614 69.919,298.913 70.187,298.960 70.187 C 299.006 70.187,298.785 69.919,298.467 69.591 C 298.149 69.263,297.851 68.995,297.804 68.995 C 297.757 68.995,297.979 69.263,298.296 69.591 M32.581 103.322 C 32.583 103.697,32.618 103.830,32.659 103.618 C 32.700 103.406,32.698 103.100,32.655 102.937 C 32.613 102.774,32.579 102.947,32.581 103.322 M339.581 117.462 C 339.582 118.211,339.612 118.497,339.648 118.096 C 339.684 117.695,339.683 117.082,339.647 116.733 C 339.610 116.384,339.581 116.712,339.581 117.462 M331.388 131.463 C 331.552 131.506,331.821 131.506,331.985 131.463 C 332.149 131.420,332.014 131.385,331.687 131.385 C 331.359 131.385,331.224 131.420,331.388 131.463 M337.521 131.463 C 337.685 131.506,337.954 131.506,338.118 131.463 C 338.282 131.420,338.147 131.385,337.819 131.385 C 337.491 131.385,337.357 131.420,337.521 131.463 M106.516 140.158 C 106.868 140.195,107.443 140.195,107.794 140.158 C 108.145 140.121,107.858 140.091,107.155 140.091 C 106.452 140.091,106.165 140.121,106.516 140.158 M273.245 150.213 L 272.658 150.852 273.296 150.265 C 273.648 149.942,273.935 149.654,273.935 149.626 C 273.935 149.496,273.791 149.618,273.245 150.213 M62.922 152.129 C 62.922 152.926,62.951 153.252,62.987 152.853 C 63.023 152.455,63.023 151.804,62.987 151.405 C 62.951 151.007,62.922 151.333,62.922 152.129 M77.558 167.243 C 77.817 167.282,78.200 167.281,78.409 167.241 C 78.619 167.200,78.407 167.168,77.939 167.170 C 77.470 167.171,77.299 167.204,77.558 167.243 M265.162 210.392 C 265.623 210.860,266.039 211.244,266.086 211.244 C 266.133 211.244,265.794 210.860,265.332 210.392 C 264.871 209.923,264.455 209.540,264.408 209.540 C 264.361 209.540,264.700 209.923,265.162 210.392 M76.549 297.359 C 76.550 298.109,76.580 298.394,76.616 297.994 C 76.652 297.593,76.651 296.980,76.614 296.631 C 76.578 296.282,76.548 296.610,76.549 297.359 M318.286 318.739 C 318.286 319.442,318.316 319.730,318.352 319.378 C 318.389 319.027,318.389 318.452,318.352 318.101 C 318.316 317.749,318.286 318.037,318.286 318.739 M110.727 331.303 L 109.796 332.283 110.775 331.352 C 111.314 330.840,111.755 330.399,111.755 330.372 C 111.755 330.246,111.592 330.393,110.727 331.303 "
          stroke="none" fill="#048c74" fill-rule="evenodd"></path>
    <path id="path3"
          d="M187.444 11.370 C 188.174 11.402,189.324 11.402,189.999 11.370 C 190.674 11.338,190.077 11.312,188.671 11.312 C 187.266 11.312,186.713 11.338,187.444 11.370 M180.707 11.534 C 180.918 11.575,181.263 11.575,181.474 11.534 C 181.684 11.494,181.512 11.460,181.090 11.460 C 180.669 11.460,180.496 11.494,180.707 11.534 M178.578 25.671 C 178.741 25.714,179.010 25.714,179.174 25.671 C 179.338 25.628,179.204 25.593,178.876 25.593 C 178.548 25.593,178.414 25.628,178.578 25.671 M174.319 25.841 C 174.483 25.884,174.751 25.884,174.915 25.841 C 175.079 25.799,174.945 25.764,174.617 25.764 C 174.289 25.764,174.155 25.799,174.319 25.841 M293.758 49.574 C 293.758 50.464,293.787 50.828,293.822 50.383 C 293.857 49.938,293.857 49.210,293.822 48.765 C 293.787 48.320,293.758 48.684,293.758 49.574 M128.324 78.828 C 128.583 78.867,128.967 78.866,129.176 78.825 C 129.386 78.785,129.174 78.753,128.705 78.754 C 128.237 78.755,128.065 78.788,128.324 78.828 M303.535 99.442 C 303.839 99.480,304.338 99.480,304.642 99.442 C 304.947 99.404,304.698 99.373,304.089 99.373 C 303.480 99.373,303.230 99.404,303.535 99.442 M32.411 118.825 C 32.413 119.199,32.448 119.333,32.488 119.121 C 32.529 118.909,32.528 118.602,32.485 118.439 C 32.442 118.276,32.409 118.450,32.411 118.825 M90.080 119.544 C 90.386 119.582,90.846 119.581,91.102 119.543 C 91.358 119.504,91.107 119.473,90.545 119.474 C 89.983 119.475,89.774 119.506,90.080 119.544 M332.581 131.468 C 332.839 131.507,333.260 131.507,333.518 131.468 C 333.776 131.429,333.565 131.397,333.049 131.397 C 332.534 131.397,332.323 131.429,332.581 131.468 M336.161 131.468 C 336.420 131.507,336.803 131.506,337.013 131.466 C 337.222 131.425,337.010 131.393,336.542 131.395 C 336.073 131.396,335.902 131.429,336.161 131.468 M376.491 135.179 C 376.808 135.507,377.107 135.775,377.154 135.775 C 377.201 135.775,376.979 135.507,376.661 135.179 C 376.343 134.851,376.045 134.583,375.998 134.583 C 375.951 134.583,376.173 134.851,376.491 135.179 M110.264 139.981 C 110.428 140.024,110.696 140.024,110.860 139.981 C 111.024 139.938,110.890 139.903,110.562 139.903 C 110.234 139.903,110.100 139.938,110.264 139.981 M368.782 146.634 C 369.555 146.666,370.820 146.666,371.593 146.634 C 372.366 146.603,371.733 146.577,370.187 146.577 C 368.641 146.577,368.009 146.603,368.782 146.634 M62.913 149.915 C 62.913 150.430,62.945 150.641,62.984 150.383 C 63.023 150.126,63.023 149.704,62.984 149.446 C 62.945 149.189,62.913 149.399,62.913 149.915 M62.908 154.174 C 62.908 154.595,62.942 154.768,62.982 154.557 C 63.023 154.346,63.023 154.001,62.982 153.790 C 62.942 153.580,62.908 153.752,62.908 154.174 M53.541 209.966 C 53.542 210.434,53.575 210.606,53.615 210.347 C 53.654 210.088,53.653 209.705,53.612 209.495 C 53.572 209.286,53.540 209.497,53.541 209.966 M53.541 213.203 C 53.542 213.671,53.575 213.843,53.615 213.584 C 53.654 213.325,53.653 212.941,53.612 212.732 C 53.572 212.522,53.540 212.734,53.541 213.203 M299.191 232.996 C 299.355 233.039,299.623 233.039,299.787 232.996 C 299.951 232.954,299.817 232.919,299.489 232.919 C 299.161 232.919,299.027 232.954,299.191 232.996 M301.831 232.999 C 302.042 233.040,302.387 233.040,302.598 232.999 C 302.809 232.959,302.636 232.925,302.215 232.925 C 301.793 232.925,301.621 232.959,301.831 232.999 M76.023 321.891 C 76.024 322.266,76.059 322.399,76.100 322.187 C 76.141 321.975,76.139 321.669,76.097 321.506 C 76.054 321.343,76.021 321.516,76.023 321.891 M76.019 326.065 C 76.019 326.393,76.054 326.527,76.097 326.363 C 76.140 326.199,76.140 325.931,76.097 325.767 C 76.054 325.603,76.019 325.737,76.019 326.065 M112.257 329.770 L 111.670 330.409 112.308 329.822 C 112.903 329.275,113.026 329.131,112.895 329.131 C 112.867 329.131,112.579 329.419,112.257 329.770 M320.823 334.072 C 320.823 334.399,320.858 334.534,320.901 334.370 C 320.944 334.206,320.944 333.937,320.901 333.773 C 320.858 333.609,320.823 333.744,320.823 334.072 "
          stroke="none" fill="#04a454" fill-rule="evenodd"></path>
    <path id="path4"
          d="M183.092 11.367 C 183.397 11.405,183.895 11.405,184.199 11.367 C 184.504 11.329,184.255 11.298,183.646 11.298 C 183.037 11.298,182.787 11.329,183.092 11.367 M193.313 11.367 C 193.618 11.405,194.116 11.405,194.421 11.367 C 194.725 11.329,194.476 11.298,193.867 11.298 C 193.258 11.298,193.009 11.329,193.313 11.367 M178.580 11.536 C 178.839 11.575,179.222 11.574,179.432 11.534 C 179.641 11.493,179.429 11.461,178.961 11.463 C 178.492 11.464,178.321 11.497,178.580 11.536 M159.275 43.228 L 158.688 43.867 159.327 43.280 C 159.922 42.734,160.044 42.589,159.914 42.589 C 159.886 42.589,159.598 42.877,159.275 43.228 M228.450 45.368 C 228.450 45.398,228.699 45.647,229.003 45.922 L 229.557 46.422 229.057 45.869 C 228.590 45.353,228.450 45.237,228.450 45.368 M185.083 66.482 L 184.583 67.036 185.136 66.535 C 185.652 66.069,185.768 65.928,185.637 65.928 C 185.607 65.928,185.358 66.178,185.083 66.482 M154.131 71.847 C 154.717 71.880,155.675 71.880,156.261 71.847 C 156.846 71.813,156.367 71.786,155.196 71.786 C 154.025 71.786,153.546 71.813,154.131 71.847 M50.318 115.758 C 50.318 116.695,50.347 117.057,50.381 116.562 C 50.416 116.067,50.415 115.300,50.381 114.858 C 50.346 114.416,50.317 114.821,50.318 115.758 M307.368 124.483 C 307.626 124.522,308.047 124.522,308.305 124.483 C 308.563 124.444,308.352 124.412,307.836 124.412 C 307.321 124.412,307.110 124.444,307.368 124.483 M106.005 128.572 C 106.263 128.611,106.684 128.611,106.942 128.572 C 107.200 128.533,106.989 128.501,106.474 128.501 C 105.958 128.501,105.747 128.533,106.005 128.572 M315.034 128.576 C 315.573 128.609,316.454 128.609,316.993 128.576 C 317.532 128.542,317.091 128.514,316.014 128.514 C 314.936 128.514,314.495 128.542,315.034 128.576 M365.545 146.628 C 365.756 146.668,366.101 146.668,366.312 146.628 C 366.523 146.587,366.350 146.554,365.928 146.554 C 365.507 146.554,365.334 146.587,365.545 146.628 M373.893 146.628 C 374.103 146.668,374.448 146.668,374.659 146.628 C 374.870 146.587,374.698 146.554,374.276 146.554 C 373.854 146.554,373.682 146.587,373.893 146.628 M69.214 174.872 C 69.215 175.341,69.248 175.512,69.287 175.253 C 69.327 174.994,69.326 174.611,69.285 174.401 C 69.245 174.192,69.213 174.404,69.214 174.872 M143.697 188.586 C 144.158 189.055,144.574 189.438,144.621 189.438 C 144.668 189.438,144.329 189.055,143.867 188.586 C 143.406 188.118,142.990 187.734,142.943 187.734 C 142.896 187.734,143.235 188.118,143.697 188.586 M262.419 201.193 C 262.419 202.551,262.445 203.107,262.477 202.428 C 262.510 201.748,262.510 200.637,262.477 199.957 C 262.445 199.278,262.419 199.834,262.419 201.193 M267.547 212.777 C 268.103 213.339,268.597 213.799,268.644 213.799 C 268.690 213.799,268.274 213.339,267.717 212.777 C 267.161 212.215,266.667 211.755,266.621 211.755 C 266.574 211.755,266.991 212.215,267.547 212.777 M54.902 224.702 C 54.902 225.124,54.935 225.296,54.975 225.085 C 55.016 224.874,55.016 224.529,54.975 224.319 C 54.935 224.108,54.902 224.280,54.902 224.702 M187.479 230.494 C 187.940 230.963,188.356 231.346,188.403 231.346 C 188.450 231.346,188.111 230.963,187.649 230.494 C 187.188 230.026,186.772 229.642,186.725 229.642 C 186.678 229.642,187.017 230.026,187.479 230.494 M311.714 232.488 C 311.926 232.529,312.233 232.528,312.396 232.485 C 312.558 232.442,312.385 232.409,312.010 232.411 C 311.635 232.413,311.502 232.448,311.714 232.488 M303.878 233.000 C 304.090 233.040,304.396 233.039,304.559 232.996 C 304.722 232.953,304.549 232.920,304.174 232.922 C 303.799 232.924,303.666 232.959,303.878 233.000 M336.346 243.441 C 336.346 244.238,336.375 244.563,336.411 244.165 C 336.447 243.767,336.447 243.115,336.411 242.717 C 336.375 242.319,336.346 242.645,336.346 243.441 M67.291 244.681 C 67.291 244.706,67.885 245.300,68.612 246.001 L 69.932 247.274 68.658 245.954 C 67.476 244.728,67.291 244.556,67.291 244.681 M330.724 265.588 C 330.724 266.384,330.753 266.710,330.789 266.312 C 330.825 265.914,330.825 265.262,330.789 264.864 C 330.753 264.466,330.724 264.791,330.724 265.588 M327.847 299.702 L 327.002 300.596 327.896 299.751 C 328.388 299.286,328.790 298.883,328.790 298.856 C 328.790 298.729,328.633 298.871,327.847 299.702 M108.683 333.348 L 107.581 334.497 108.731 333.395 C 109.799 332.371,109.959 332.198,109.833 332.198 C 109.807 332.198,109.290 332.715,108.683 333.348 "
          stroke="none" fill="#047494" fill-rule="evenodd"></path>
  </g>
</svg>