<!DOCTYPE svg PUBLIC "-//W3C//DTD SVG 20010904//EN" "http://www.w3.org/TR/2001/REC-SVG-20010904/DTD/svg10.dtd">
<svg version="1.0" xmlns="http://www.w3.org/2000/svg" width="599px" height="600px" viewBox="0 0 5990 6000" preserveAspectRatio="xMidYMid meet">
<g id="layer101" fill="#e2e6e7" stroke="none">
 <path d="M2890 5973 c-779 -44 -1459 -342 -1990 -873 -845 -845 -1106 -2105 -664 -3208 366 -912 1152 -1583 2105 -1796 797 -178 1623 -24 2299 428 74 50 143 89 153 88 26 -5 67 25 80 57 7 16 79 93 160 172 277 266 466 523 624 845 32 65 70 129 85 142 34 29 68 119 68 177 0 25 15 96 34 158 92 303 133 657 115 1003 -22 437 -150 889 -357 1259 -31 55 -77 144 -104 197 -36 75 -64 116 -121 175 -41 43 -106 114 -144 158 -532 609 -1254 963 -2069 1015 -88 5 -172 9 -189 8 -16 -1 -55 -3 -85 -5z"/>
 </g>
<g id="layer102" fill="#c7ced1" stroke="none">
 <path d="M2760 5949 c-548 -42 -1104 -252 -1545 -584 -357 -269 -642 -605 -853 -1005 -151 -286 -261 -651 -308 -1015 -20 -160 -23 -505 -5 -660 23 -201 93 -512 136 -610 7 -16 29 -73 49 -125 133 -351 382 -740 655 -1023 147 -153 520 -457 560 -457 6 0 11 -4 11 -9 0 -5 8 -11 17 -15 10 -3 50 -24 88 -46 171 -97 383 -186 585 -245 69 -20 132 -39 140 -42 8 -3 24 -7 35 -8 41 -5 291 -48 305 -52 22 -7 97 -13 162 -12 32 0 85 -5 119 -11 75 -14 342 1 533 30 466 71 936 266 1309 544 37 27 75 51 83 52 18 3 39 20 39 32 0 4 36 40 80 78 309 273 565 619 730 984 31 69 67 135 80 147 28 27 49 85 42 119 -2 14 4 53 15 87 147 469 172 1046 67 1522 -71 320 -196 633 -360 902 -22 36 -36 69 -33 80 6 22 -77 152 -125 197 -17 17 -31 27 -31 23 0 -3 34 -53 76 -112 42 -58 75 -108 72 -110 -2 -3 -30 32 -61 78 -31 45 -86 120 -123 167 -87 109 -344 366 -454 454 -594 473 -1338 703 -2090 645z m-632 -2201 c21 1 45 -6 65 -22 40 -29 74 -38 97 -24 25 16 131 -17 123 -38 -3 -8 1 -14 9 -14 8 0 32 -18 53 -40 22 -22 45 -38 52 -36 6 3 21 -10 33 -28 17 -28 56 -53 67 -42 1 1 -3 17 -10 35 -11 29 -10 34 7 43 37 21 58 50 53 74 -5 27 10 31 39 10 16 -13 17 -18 7 -35 -24 -39 -16 -59 32 -81 42 -19 72 -19 60 0 -3 4 6 15 20 24 24 16 25 15 60 -36 19 -29 35 -63 35 -76 0 -13 12 -34 26 -47 29 -27 27 -54 -6 -62 -19 -5 -19 -6 3 -24 l22 -18 -29 -1 c-24 0 -27 -3 -23 -21 4 -15 0 -23 -14 -26 -24 -7 -24 -15 1 -31 30 -19 24 -32 -15 -32 -19 0 -35 -4 -35 -10 0 -5 -11 -10 -25 -10 -14 0 -25 -4 -25 -9 0 -5 -10 -7 -21 -4 -14 4 -25 0 -31 -11 -5 -9 -13 -16 -18 -16 -15 0 -122 103 -146 141 -13 22 -44 49 -74 65 -39 21 -50 32 -48 48 2 15 11 21 28 22 34 0 33 15 -2 37 -32 19 -42 22 -33 8 3 -5 1 -12 -5 -16 -6 -4 -8 -11 -5 -16 8 -12 5 -12 -46 6 -24 9 -46 20 -50 26 -9 15 -119 25 -119 10 0 -8 -33 -9 -117 -6 -65 3 -130 6 -145 6 -35 0 -36 7 -4 19 17 6 27 20 31 42 11 59 27 71 83 63 48 -6 50 -6 81 32 17 20 31 41 31 46 0 4 -12 20 -26 34 -24 24 -30 25 -85 19 -32 -3 -59 -3 -59 1 0 13 36 32 50 26 8 -3 30 -6 48 -5z m-711 -2627 c6 -10 28 -22 48 -25 24 -5 39 -15 47 -31 8 -17 25 -29 57 -38 39 -11 47 -17 49 -40 4 -33 35 -36 72 -7 33 26 45 25 58 -4 8 -18 22 -27 49 -32 21 -4 50 -17 65 -30 16 -13 35 -20 47 -17 23 6 39 -16 20 -28 -8 -5 -33 -9 -57 -9 -61 0 -44 -15 40 -35 40 -10 79 -23 87 -31 12 -11 9 -16 -20 -33 -19 -12 -44 -24 -57 -27 -26 -7 -139 19 -197 46 -22 10 -48 21 -59 24 -13 4 -15 10 -9 19 6 6 13 22 16 35 4 17 1 22 -15 22 -12 0 -18 5 -15 13 3 7 -8 20 -24 29 -33 19 -37 9 -14 -32 22 -38 18 -43 -15 -20 -23 17 -30 18 -30 7 0 -8 -7 -17 -15 -21 -23 -8 -102 33 -114 60 -6 13 -22 26 -36 30 -20 5 -25 11 -22 25 3 11 1 19 -5 19 -6 0 -7 11 -4 25 4 14 2 25 -4 25 -10 0 -8 36 5 78 9 27 36 29 52 3z m677 -208 c7 3 19 -3 27 -14 7 -10 18 -19 25 -19 6 0 16 -11 22 -25 6 -14 17 -25 23 -25 8 0 9 -4 0 -13 -6 -8 -8 -17 -4 -20 3 -4 -3 -7 -15 -7 -15 0 -22 6 -22 18 0 34 -77 92 -122 92 -22 1 -22 1 -4 15 14 10 24 12 38 4 11 -6 25 -8 32 -6z m-66 -165 c-4 -16 -26 -27 -58 -27 -21 0 -19 3 15 19 22 10 41 19 43 19 1 1 1 -5 0 -11z m-328 -165 c42 -38 49 -40 82 -14 24 19 25 19 141 -9 65 -15 121 -30 124 -34 4 -3 -18 -6 -48 -6 -30 -1 -85 -4 -124 -9 -99 -11 -143 -4 -147 23 -2 13 -11 22 -27 24 -13 2 -31 10 -38 18 -8 8 -20 14 -28 14 -7 0 -15 7 -19 15 -3 8 -15 15 -26 15 -19 0 -26 11 -14 22 11 11 90 -26 124 -59z"/>
 </g>
<g id="layer103" fill="#b1bbbe" stroke="none">
 <path d="M2745 5944 c-16 -2 -73 -9 -125 -15 -317 -36 -689 -152 -986 -308 -206 -108 -447 -274 -579 -398 -53 -50 -35 -40 28 14 20 18 48 33 62 33 13 0 49 11 78 24 33 14 60 21 68 16 15 -10 47 4 69 30 8 9 54 31 102 48 88 31 88 31 85 9 -1 -16 4 -23 22 -25 38 -6 69 6 109 42 46 42 109 54 114 21 2 -15 10 -20 30 -18 30 2 77 32 78 49 0 17 165 33 282 28 89 -4 112 -2 133 12 14 9 25 12 25 6 0 -17 -51 -52 -75 -52 -16 0 -26 -9 -35 -30 -16 -38 -72 -88 -108 -96 -43 -9 -49 -12 -24 -13 21 -1 22 -2 8 -17 -19 -18 -12 -34 14 -34 32 0 50 11 50 31 0 11 7 19 18 20 9 0 26 3 37 6 11 2 35 6 53 7 18 2 41 10 50 20 16 16 16 17 -6 22 -22 6 -31 24 -12 24 6 0 30 18 54 40 42 39 45 40 113 40 39 0 98 -3 132 -6 54 -6 61 -9 55 -26 -3 -10 1 -30 10 -43 29 -44 111 -42 161 5 20 18 24 17 199 -36 99 -31 223 -71 275 -91 117 -43 330 -145 431 -207 41 -25 78 -46 83 -46 4 0 7 15 7 34 0 43 13 52 51 36 32 -14 37 -25 14 -34 -28 -10 -15 -34 27 -51 23 -9 44 -12 46 -7 1 5 8 16 15 25 11 14 18 14 67 1 30 -7 62 -11 72 -8 32 10 120 -41 158 -91 10 -14 5 -12 -15 6 -63 54 -127 81 -163 68 -70 -26 34 -180 148 -219 l52 -18 -23 -21 c-31 -28 -59 -35 -119 -27 -47 6 -50 5 -74 -27 -33 -44 -33 -54 4 -62 16 -4 32 -11 35 -16 4 -5 21 -9 38 -9 18 0 41 -6 52 -13 11 -8 35 -17 54 -20 28 -6 32 -4 27 9 -3 9 -8 41 -10 72 -3 32 -3 46 0 32 3 -14 19 -72 36 -130 29 -100 48 -143 48 -108 0 25 32 118 41 118 7 0 39 -40 64 -81 6 -9 45 -62 88 -119 77 -104 86 -120 66 -120 -6 0 15 -28 47 -62 51 -55 55 -63 37 -66 -20 -3 -17 -11 39 -119 42 -78 56 -114 45 -110 -24 9 -21 -6 7 -32 26 -25 31 -61 8 -61 -7 0 -10 -5 -7 -10 7 -12 17 -58 17 -80 1 -8 6 -22 13 -30 12 -15 35 -75 35 -92 0 -5 -9 -4 -20 2 -11 6 -20 9 -20 6 0 -14 28 -67 58 -109 l34 -48 -26 7 c-16 4 -26 2 -26 -5 0 -16 -38 -51 -55 -51 -8 0 -15 9 -15 19 0 25 -26 51 -51 51 -11 0 -37 -11 -59 -25 -31 -19 -53 -25 -99 -25 -69 0 -91 -6 -91 -27 0 -8 -8 -13 -17 -11 -12 2 -19 -4 -21 -18 -2 -12 -32 -45 -68 -75 -63 -52 -134 -137 -134 -161 0 -6 -16 -39 -35 -73 -43 -78 -113 -135 -165 -135 -20 0 -44 -6 -54 -13 -17 -12 -17 -17 -4 -58 13 -37 23 -48 61 -67 26 -13 76 -27 111 -32 35 -4 69 -11 75 -15 6 -3 11 -1 11 5 0 7 6 10 13 7 22 -8 46 11 40 33 -4 15 0 20 13 20 11 0 50 21 88 46 56 38 77 46 120 48 28 2 63 6 78 10 21 5 30 2 38 -14 10 -18 9 -19 -15 -10 -22 8 -25 7 -25 -11 0 -13 -6 -19 -17 -17 -12 2 -19 -7 -26 -34 -8 -33 -13 -38 -38 -38 -22 0 -29 -5 -29 -20 0 -11 -7 -20 -15 -20 -8 0 -15 -7 -15 -15 0 -10 -11 -15 -35 -15 -25 0 -33 -4 -29 -14 3 -8 1 -17 -5 -21 -6 -3 -11 -15 -11 -26 0 -10 -7 -20 -15 -20 -8 -1 -20 -2 -26 -3 -6 0 -13 -16 -14 -34 -3 -41 -14 -53 -22 -24 -8 32 -43 29 -43 -4 l0 -25 -32 23 c-18 12 -37 23 -43 23 -5 0 -25 6 -43 14 -27 11 -45 12 -108 1 -42 -7 -78 -19 -81 -26 -2 -7 -16 -15 -31 -19 -14 -3 -37 -17 -50 -30 -13 -13 -37 -27 -54 -30 -21 -5 -34 -16 -43 -38 -8 -18 -23 -38 -34 -44 -12 -8 -18 -19 -15 -28 4 -9 -3 -19 -20 -26 -15 -7 -29 -23 -32 -35 -3 -12 -14 -30 -25 -40 -10 -9 -19 -24 -19 -32 0 -8 -13 -30 -30 -49 -17 -19 -30 -45 -30 -61 0 -15 -11 -45 -25 -67 -49 -80 -64 -121 -67 -175 -3 -51 -5 -55 -27 -55 -23 0 -44 -30 -34 -47 2 -5 -3 -8 -11 -8 -9 0 -16 -4 -16 -8 0 -5 -11 -14 -25 -20 -16 -8 -28 -23 -31 -42 -4 -16 -10 -30 -15 -30 -5 0 -9 -6 -9 -12 0 -14 -22 -17 -118 -18 -37 -1 -60 -5 -57 -10 9 -14 -19 -12 -33 2 -9 9 -15 9 -24 0 -7 -7 -20 -12 -29 -12 -10 0 -30 -10 -46 -23 -15 -13 -36 -26 -45 -30 -10 -3 -18 -13 -18 -21 0 -9 -13 -41 -29 -73 -37 -74 -50 -121 -56 -215 -4 -59 -2 -78 10 -88 8 -7 15 -27 15 -45 0 -37 12 -45 71 -45 22 0 54 -7 70 -16 30 -15 30 -15 19 6 -6 12 -9 24 -6 27 3 3 10 -6 17 -20 6 -14 17 -24 23 -21 6 2 43 -7 81 -20 55 -18 71 -28 73 -45 3 -17 -3 -23 -30 -28 -18 -4 -35 -7 -38 -6 -3 1 -4 -18 -3 -42 3 -46 44 -148 51 -127 2 7 10 12 18 12 8 0 14 9 14 21 0 16 4 19 23 13 12 -3 30 -13 40 -22 15 -13 23 -14 49 -4 25 9 34 9 40 -1 4 -6 8 -8 8 -3 0 5 6 3 14 -3 9 -8 29 -10 53 -5 36 6 37 5 18 -10 -20 -16 -20 -16 5 -37 23 -19 25 -20 37 -3 12 16 13 16 13 1 0 -21 29 -22 56 -2 10 8 29 15 41 15 12 0 25 5 28 10 3 6 17 10 30 10 34 0 44 42 20 82 -33 56 -81 98 -113 98 -43 0 -62 9 -73 36 -4 13 -15 24 -24 24 -22 0 -19 27 5 40 11 6 27 24 35 40 14 27 20 30 64 30 54 0 101 28 101 60 0 12 10 20 35 24 19 4 39 15 45 26 15 27 12 60 -5 66 -10 4 7 17 48 38 34 18 91 51 127 74 46 31 72 41 88 37 13 -3 32 1 44 9 16 11 25 13 35 4 10 -8 24 -1 59 32 25 23 70 52 99 66 30 13 65 34 77 46 13 13 25 23 28 24 13 2 47 19 70 34 24 16 181 80 196 80 4 0 18 10 31 22 34 32 105 49 129 31 11 -8 29 -11 42 -8 17 4 22 2 16 -6 -5 -9 0 -10 20 -5 19 5 26 3 26 -9 0 -9 9 -15 26 -15 15 0 23 -4 19 -10 -4 -7 3 -8 21 -4 19 5 25 4 20 -5 -9 -14 6 -15 21 0 8 8 13 8 17 0 4 -6 4 -11 0 -11 -4 0 1 -9 11 -20 16 -17 16 -20 3 -15 -9 4 -26 2 -37 -4 -13 -7 -22 -8 -26 -1 -3 5 -26 10 -50 10 -38 0 -48 -5 -67 -30 -16 -22 -24 -27 -30 -18 -6 10 -8 10 -8 1 0 -7 -9 -13 -20 -13 -27 0 -80 -27 -80 -41 0 -6 -16 -33 -36 -60 -24 -34 -34 -56 -31 -70 4 -15 -3 -29 -23 -48 -15 -14 -30 -37 -32 -51 -3 -22 -46 -61 -81 -73 -8 -3 -7 -10 5 -24 10 -10 20 -33 24 -49 5 -25 1 -33 -21 -48 -33 -22 -28 -28 30 -33 36 -3 52 -10 75 -36 l29 -32 33 31 c43 42 94 67 118 59 30 -9 24 -18 -29 -43 -44 -20 -114 -84 -169 -156 -12 -16 -31 -29 -42 -30 -11 0 -19 -5 -18 -11 2 -5 6 -9 10 -8 4 2 4 -5 1 -14 -5 -13 -2 -15 11 -10 10 4 15 3 11 -3 -10 -16 18 -11 51 9 108 66 156 117 204 216 46 94 149 192 188 178 19 -8 14 -23 -9 -23 -47 0 -199 -185 -199 -243 0 -8 -7 -20 -15 -27 -19 -15 -19 -30 -2 -30 22 0 100 41 135 71 34 30 56 36 67 19 3 -5 1 -10 -5 -10 -6 0 -31 -19 -56 -42 l-45 -42 23 -17 c12 -10 26 -15 30 -13 4 3 5 -2 2 -10 -5 -12 -10 -13 -24 -4 -13 9 -25 8 -49 -1 -34 -15 -111 -93 -111 -114 0 -9 -9 -12 -27 -10 -52 8 -145 -79 -116 -108 8 -8 17 -8 33 1 24 13 70 6 70 -10 0 -6 -9 -10 -20 -10 -53 0 -110 -55 -110 -105 0 -24 -1 -25 -16 -11 -14 14 -18 14 -44 1 -32 -16 -55 -50 -41 -59 24 -15 80 10 197 89 71 48 149 107 174 131 25 24 50 44 55 45 6 1 78 73 160 161 200 214 209 223 205 223 -2 0 28 43 67 95 38 52 83 115 98 140 15 25 31 47 34 50 26 22 271 540 271 574 0 9 4 14 10 11 5 -3 7 0 4 9 -3 8 6 52 21 98 38 120 70 262 97 428 20 128 23 179 23 435 -1 250 -4 310 -23 434 -101 643 -390 1213 -847 1666 -472 469 -1082 762 -1745 839 -122 14 -493 20 -585 10z m700 -135 c16 -1 41 -4 55 -9 24 -7 23 -7 -12 -15 -65 -13 -148 15 -148 49 0 11 9 9 37 -5 21 -10 51 -19 68 -20z m-1111 -62 c-13 -35 -99 -81 -181 -97 -71 -14 -109 -8 -116 19 -4 16 -1 17 24 8 40 -15 127 4 209 46 36 19 66 35 67 35 1 1 0 -4 -3 -11z m766 -57 c44 -1 44 -1 20 -15 -45 -26 -90 -14 -90 24 0 12 3 12 12 3 7 -7 32 -12 58 -12z m583 -18 c-32 -3 -73 12 -73 27 0 4 23 0 52 -8 49 -15 50 -16 21 -19z m-1034 6 c15 -9 28 -9 55 -1 38 12 49 1 17 -17 -33 -17 -79 -12 -91 10 -12 23 -8 25 19 8z m1216 -112 l40 -15 -38 0 c-52 -1 -77 14 -77 45 l0 26 18 -21 c9 -11 35 -27 57 -35z m-55 -337 c41 -15 42 -16 18 -22 -31 -8 -84 9 -92 29 -3 9 -1 25 6 37 l12 22 6 -25 c4 -18 18 -29 50 -41z m712 -24 l33 -14 -28 -1 c-38 0 -83 25 -90 50 l-5 20 28 -20 c16 -11 44 -27 62 -35z m-661 -42 l24 -28 -30 25 c-16 14 -32 26 -34 28 -2 1 0 2 6 2 5 0 20 -12 34 -27z m743 -626 c31 -46 88 -146 128 -222 39 -77 73 -134 76 -127 7 23 19 12 19 -18 0 -16 7 -38 16 -48 21 -23 22 -36 2 -28 -13 4 -13 2 -5 -14 5 -10 10 -22 10 -27 0 -4 -40 71 -88 167 -48 96 -116 222 -151 280 -78 129 -73 120 -67 120 3 0 30 -37 60 -83z m386 57 c0 -31 15 -61 48 -96 31 -33 13 -37 -30 -7 -35 26 -51 62 -43 101 8 35 25 37 25 2z m382 -54 c56 -81 41 -85 -17 -5 -43 60 -51 75 -38 75 4 -1 29 -32 55 -70z m-155 -47 c-3 -10 -5 -2 -5 17 0 19 2 27 5 18 2 -10 2 -26 0 -35z m95 -182 l23 -25 -25 16 c-30 18 -77 91 -85 133 -5 21 4 11 29 -34 20 -35 46 -76 58 -90z m-252 -6 c17 -20 -4 -20 -24 1 -17 16 -21 55 -9 68 5 4 11 -6 14 -23 4 -17 12 -38 19 -46z m240 -184 c-5 -11 -10 -29 -10 -40 0 -34 49 -177 70 -204 26 -33 26 -45 -1 -21 -33 30 -67 106 -78 173 -10 62 -7 90 13 103 17 12 18 10 6 -11z m150 -35 c0 -19 55 -153 72 -175 7 -10 -2 -2 -19 17 -46 49 -91 172 -63 172 6 0 10 -6 10 -14z m-336 -151 c-3 -14 1 -37 10 -56 22 -43 20 -46 -9 -19 -27 25 -33 68 -13 88 17 17 19 15 12 -13z m465 -365 c6 -36 15 -83 20 -105 9 -35 8 -38 -4 -21 -17 23 -35 104 -35 158 0 56 6 46 19 -32z m-267 -32 c-15 -15 -16 -62 -1 -91 l11 -22 -20 20 c-30 29 -37 68 -17 89 9 9 22 16 28 16 8 0 7 -4 -1 -12z m-291 -44 c-27 -34 -27 -89 -1 -132 20 -32 20 -33 1 -22 -63 33 -71 152 -11 173 29 10 31 7 11 -19z m729 -183 c9 -27 13 -48 10 -46 -9 6 -35 61 -45 95 -14 47 17 5 35 -49z m-101 -9 c-7 -21 -8 -51 -1 -92 6 -42 6 -58 -2 -50 -15 15 -20 133 -6 159 16 31 22 21 9 -17z m-745 -21 c2 -9 8 -31 11 -49 7 -32 6 -33 -14 -22 -21 11 -21 9 -15 -32 l7 -43 -22 19 c-21 19 -29 82 -15 132 7 25 41 22 48 -5z m420 -156 c-11 -17 -14 -36 -10 -58 5 -30 5 -31 -9 -13 -23 31 -19 75 8 86 12 5 23 9 25 9 1 1 -5 -10 -14 -24z m225 3 c-7 -13 -13 -51 -13 -86 0 -36 -3 -57 -8 -50 -14 21 -6 121 10 141 21 24 25 21 11 -5z m223 -91 c-17 -18 -21 -32 -17 -55 3 -18 7 -47 9 -64 l5 -33 -19 40 c-24 49 -24 56 -6 100 9 21 22 35 32 35 15 0 15 -3 -4 -23z m-161 -362 l-8 -90 -1 70 c-2 63 6 121 14 113 1 -2 -1 -44 -5 -93z m-60 -87 c-25 -45 -41 -96 -56 -186 l-13 -77 -1 70 c-2 110 36 225 74 225 12 0 11 -6 -4 -32z m-480 -590 c-3 -21 -6 -26 -9 -15 -3 17 3 47 11 47 2 0 1 -15 -2 -32z m341 -4 c-28 -20 -68 -97 -87 -170 -8 -32 -18 -60 -21 -63 -16 -14 6 111 26 150 24 45 74 99 93 99 6 0 1 -7 -11 -16z m164 -103 c-15 -16 -36 -55 -46 -87 l-18 -59 -1 55 c-1 71 26 120 66 120 l27 0 -28 -29z m-170 -190 c-9 -10 -21 -32 -26 -47 l-8 -29 -1 33 c-1 20 7 40 20 53 25 25 39 17 15 -10z m-86 -21 c0 -5 -6 -10 -13 -10 -20 0 -52 -38 -81 -95 -21 -42 -26 -46 -26 -25 -1 23 -2 23 -10 5 -7 -17 -9 -17 -9 -3 -1 18 58 103 87 126 19 14 52 16 52 2z m-205 -102 c-16 -4 -39 -20 -52 -35 -18 -21 -21 -23 -14 -6 16 32 60 63 79 56 12 -5 9 -9 -13 -15z m154 -207 c11 -7 7 -12 -16 -24 -27 -14 -74 -72 -86 -107 -4 -11 -6 -11 -6 3 -1 10 -5 15 -11 12 -18 -11 22 70 48 98 27 28 47 33 71 18z m-152 -264 c-15 -12 -36 -35 -47 -52 -11 -16 -20 -25 -20 -18 0 14 73 93 86 93 5 0 -4 -10 -19 -23z m12 -30 c-15 -12 -32 -31 -38 -42 -8 -16 -10 -16 -11 -4 0 23 38 69 58 69 13 0 11 -5 -9 -23z m-281 -356 c10 -6 5 -12 -18 -21 -17 -7 -37 -22 -45 -34 -13 -18 -15 -18 -15 -3 0 18 42 67 57 67 4 0 14 -4 21 -9z"/>
 <path d="M2450 5445 c-15 -18 -5 -35 20 -35 32 0 50 11 50 31 0 24 -51 27 -70 4z"/>
 <path d="M2048 5404 c-19 -10 -28 -23 -28 -39 0 -22 4 -25 34 -25 43 0 93 38 83 63 -8 21 -52 22 -89 1z"/>
 <path d="M1902 5378 c-16 -16 -15 -38 1 -38 17 0 57 29 57 41 0 13 -44 11 -58 -3z"/>
 <path d="M1394 5340 c-28 -11 -74 -67 -74 -90 0 -9 7 -23 15 -30 35 -29 158 71 141 115 -6 16 -48 19 -82 5z"/>
 <path d="M2779 5272 c-26 -22 -20 -52 10 -52 14 0 23 9 27 25 4 17 13 25 28 25 17 0 18 2 6 10 -23 15 -45 12 -71 -8z"/>
 <path d="M1445 5207 c-4 -10 -5 -21 -1 -24 10 -10 18 4 13 24 -4 17 -4 17 -12 0z"/>
 <path d="M1285 5157 c-4 -10 -5 -21 -1 -24 10 -10 18 4 13 24 -4 17 -4 17 -12 0z"/>
 <path d="M1032 5097 c-25 -26 -29 -47 -9 -47 7 0 20 16 29 35 18 40 11 45 -20 12z"/>
 <path d="M3529 5084 c-11 -14 -10 -18 6 -30 21 -16 51 -18 59 -6 6 10 -30 52 -43 52 -5 0 -15 -7 -22 -16z"/>
 <path d="M3677 5025 c29 -17 43 -34 48 -55 5 -22 20 -38 60 -62 46 -27 53 -36 50 -58 l-3 -27 51 12 c86 21 87 22 87 75 0 26 -6 52 -12 57 -25 20 -179 62 -283 78 l-40 6 42 -26z"/>
 <path d="M737 4863 c-10 -9 -9 -33 1 -33 4 0 8 9 9 20 2 21 0 24 -10 13z"/>
 <path d="M2132 4853 c-18 -9 -37 -24 -43 -35 -11 -20 -3 -42 12 -33 13 9 11 -12 -3 -35 -11 -17 -10 -26 4 -50 17 -30 17 -30 -10 -47 -15 -9 -29 -18 -31 -20 -2 -1 1 -8 7 -16 34 -40 -91 -80 -146 -46 -16 10 -21 20 -17 36 6 27 -3 53 -20 53 -8 0 -25 4 -40 10 -21 8 -24 13 -16 29 9 16 6 20 -17 29 -55 21 -83 23 -104 8 -16 -11 -25 -13 -35 -5 -19 16 -146 -49 -210 -108 -51 -47 -51 -49 -56 -117 -4 -59 -2 -71 15 -88 25 -25 71 -18 105 14 l23 21 0 -51 c0 -37 4 -54 17 -60 14 -9 15 -16 6 -53 -6 -24 -14 -52 -18 -61 -6 -15 -2 -18 28 -18 19 0 55 3 81 6 44 6 46 8 30 25 -20 22 -6 52 36 74 26 14 39 13 131 -5 56 -11 120 -29 143 -40 35 -17 69 -21 197 -25 233 -9 377 19 385 72 5 33 -18 158 -32 174 -8 8 -14 22 -14 30 0 8 -7 23 -16 34 -12 17 -17 18 -35 7 -19 -12 -24 -9 -57 28 -19 23 -45 46 -56 51 -15 7 -2 8 42 4 34 -2 62 -3 62 0 0 20 -23 55 -39 60 -12 3 -21 13 -21 20 0 8 -5 26 -12 40 -10 22 -18 25 -59 25 -40 0 -51 4 -73 31 -14 17 -26 34 -26 38 0 15 -84 10 -118 -6z"/>
 <path d="M3920 4820 c-12 -8 -10 -15 16 -42 17 -18 42 -50 56 -71 l25 -38 27 35 c14 19 26 39 26 43 0 11 -106 83 -123 83 -6 0 -19 -5 -27 -10z"/>
 <path d="M5346 4820 c11 -22 86 -120 91 -120 2 0 -2 10 -9 23 -7 12 -12 24 -12 27 1 3 -17 23 -39 45 -21 22 -36 33 -31 25z"/>
 <path d="M943 4406 c4 -10 -2 -17 -16 -21 -36 -11 -126 -68 -132 -83 -8 -22 1 -25 27 -9 12 8 34 18 48 22 23 6 22 4 -7 -20 -21 -17 -33 -35 -33 -51 0 -25 -31 -64 -51 -64 -7 0 -9 -11 -5 -30 7 -35 -9 -55 -73 -90 -46 -27 -36 -49 11 -24 56 29 76 34 81 19 3 -7 0 -21 -7 -30 -10 -14 -17 -15 -33 -7 -28 15 -58 -8 -74 -55 -12 -37 -95 -173 -105 -173 -3 0 -17 9 -31 20 -37 29 -49 25 -73 -24 -20 -42 -20 -46 -5 -82 14 -34 14 -42 -1 -86 -8 -26 -19 -48 -22 -48 -4 0 -7 -26 -7 -57 -1 -47 -8 -73 -40 -138 -44 -90 -51 -98 -77 -84 -26 14 -52 3 -68 -26 -10 -20 -11 -28 -2 -37 17 -17 15 -95 -2 -105 -32 -19 -40 -98 -15 -145 6 -10 6 -18 1 -18 -12 0 -12 -110 0 -133 6 -12 5 -17 -4 -15 -7 2 -14 -8 -16 -22 -2 -14 0 -22 4 -17 13 12 43 -64 44 -109 0 -24 -6 -47 -14 -54 -18 -15 -12 -33 26 -71 26 -26 29 -34 24 -67 -17 -92 -17 -131 -2 -182 9 -30 16 -76 16 -103 0 -31 7 -61 19 -81 10 -17 26 -56 35 -87 19 -66 44 -102 85 -119 18 -7 31 -21 33 -33 2 -15 14 -26 37 -33 19 -6 38 -20 42 -32 11 -30 45 -45 88 -37 68 12 71 14 71 54 0 23 6 44 16 52 11 9 15 26 12 58 -4 57 17 65 63 27 29 -24 38 -26 128 -27 53 0 116 0 140 -1 31 0 47 5 53 16 12 21 62 21 82 0 19 -18 19 -17 4 -49 -10 -22 -8 -28 10 -48 12 -13 22 -28 22 -35 0 -6 12 -17 28 -24 21 -10 27 -21 28 -46 0 -17 7 -38 16 -44 9 -7 26 -34 38 -60 12 -25 30 -54 41 -64 10 -9 19 -28 19 -42 0 -14 11 -44 24 -67 21 -35 30 -42 54 -40 21 1 29 -3 28 -14 -1 -12 13 -18 54 -24 102 -16 162 -29 156 -34 -7 -8 15 -28 51 -47 17 -8 40 -27 51 -41 31 -39 33 -18 7 70 -38 135 -37 156 4 40 35 -101 40 -110 62 -107 13 1 31 2 39 1 52 -3 96 -6 100 -8 3 -1 22 -4 43 -6 27 -3 37 0 37 10 0 18 41 29 80 21 27 -5 30 -3 30 18 0 17 -7 26 -25 30 -14 4 -25 13 -25 21 0 8 -11 17 -25 20 -14 3 -36 7 -50 10 -25 5 -75 46 -75 61 0 5 -13 22 -30 37 -16 16 -30 34 -30 40 0 7 -9 18 -20 25 -11 7 -20 17 -20 23 0 6 -14 30 -31 55 -16 24 -31 54 -31 67 -1 12 -11 33 -22 46 -15 17 -17 25 -8 28 19 7 14 28 -14 58 -18 20 -24 35 -21 53 6 34 -8 72 -28 72 -8 0 -15 4 -15 8 0 5 -11 15 -25 22 -21 11 -25 20 -25 62 0 47 -1 48 -30 48 -31 0 -41 16 -15 26 22 9 18 34 -4 34 -11 0 -23 5 -26 10 -3 6 -17 10 -30 10 -12 0 -25 7 -29 15 -4 10 -21 15 -58 16 -46 1 -48 2 -19 8 66 12 45 28 -46 34 -59 4 -89 11 -95 20 -4 8 -21 20 -37 27 -17 7 -49 37 -71 67 -23 30 -47 52 -53 50 -21 -7 -19 -49 3 -79 12 -16 20 -31 18 -32 -26 -22 -51 -26 -74 -11 -14 9 -22 20 -19 25 3 5 -1 20 -9 32 -8 13 -17 39 -20 58 -5 45 -23 111 -35 129 -7 11 -13 12 -23 4 -7 -5 -22 -13 -33 -15 -11 -3 -29 -9 -39 -14 -14 -5 -17 -4 -11 5 4 7 1 24 -6 39 -11 20 -11 26 -1 29 16 6 15 38 -3 74 -9 16 -14 33 -11 38 3 4 -1 28 -9 54 -8 28 -10 49 -4 52 5 4 6 23 3 44 -4 22 -1 48 6 60 11 22 10 35 -16 208 -4 27 -11 34 -40 42 -40 11 -74 45 -74 73 0 15 -8 18 -45 18 -54 0 -58 7 -47 80 7 48 10 55 30 54 12 0 21 4 19 10 -2 6 -11 10 -20 8 -12 -2 -15 2 -11 13 5 11 2 14 -12 8 -13 -5 -16 -3 -11 10 9 24 -51 67 -93 67 -31 0 -32 1 -17 18 10 10 17 22 17 26 0 5 36 50 80 101 56 66 89 95 110 100 16 3 34 13 41 21 6 8 17 14 24 14 17 0 62 68 70 107 9 45 25 52 18 8 l-6 -35 53 35 c57 39 70 42 70 20 0 -8 9 -15 19 -15 21 0 36 26 20 36 -6 3 -9 15 -6 25 3 11 1 19 -5 19 -5 0 -12 -9 -15 -20 -3 -11 -13 -20 -22 -20 -20 1 -150 38 -135 39 5 1 19 9 30 19 10 10 34 24 51 31 18 7 30 17 28 21 -3 5 6 26 20 46 31 46 31 91 0 86 -11 -2 -36 -3 -56 -3 -30 1 -38 -3 -43 -22 -3 -12 -18 -32 -35 -44 l-29 -22 -5 24 c-3 17 0 25 9 25 29 0 49 54 44 120 -1 8 2 25 5 37 6 18 2 25 -16 31 -20 8 -18 11 37 43 l59 34 -33 3 c-18 2 -30 8 -27 13 4 5 -4 9 -15 9 -15 0 -20 -5 -17 -14z m-183 -623 c0 -12 -13 -38 -30 -56 -16 -19 -39 -56 -50 -83 -12 -27 -28 -57 -37 -66 -14 -16 -17 -14 -37 25 l-21 42 22 12 c12 7 28 34 37 61 23 67 89 127 108 98 4 -6 8 -21 8 -33z m225 -1367 c20 -30 22 -37 9 -34 -23 4 -58 53 -49 68 8 13 7 15 40 -34z m773 -701 c0 -16 -2 -15 -8 5 -4 14 -8 36 -8 50 0 22 1 22 8 -5 4 -16 8 -39 8 -50z m281 -419 c-2 -2 -15 -7 -29 -10 l-25 -7 25 15 c21 12 42 14 29 2z"/>
 <path d="M1135 4330 c-3 -6 -17 -7 -31 -4 -31 8 -69 -16 -90 -59 -9 -17 -23 -36 -30 -40 -8 -4 -14 -16 -14 -26 0 -16 8 -14 70 15 39 19 79 34 89 34 13 0 18 8 19 35 1 20 4 40 7 45 4 6 2 10 -4 10 -5 0 -13 -5 -16 -10z"/>
 <path d="M2625 4271 c-13 -43 23 -55 64 -20 28 23 25 28 -22 36 -29 4 -36 2 -42 -16z"/>
 <path d="M1805 4230 c-14 -6 1 -9 48 -9 43 -1 66 3 62 9 -7 12 -82 12 -110 0z"/>
 <path d="M696 4208 c-17 -24 -22 -78 -7 -78 15 0 41 42 41 67 0 32 -16 37 -34 11z"/>
 <path d="M1075 3638 c-11 -6 -28 -19 -38 -29 -17 -18 -17 -19 1 -19 18 0 70 46 61 54 -2 3 -13 0 -24 -6z"/>
 <path d="M992 3577 c-14 -18 -25 -104 -13 -111 16 -10 41 36 41 76 0 40 -12 55 -28 35z"/>
 <path d="M937 3456 c-4 -10 -1 -13 9 -9 10 4 14 -3 15 -28 1 -19 3 -26 6 -16 11 41 -17 88 -30 53z"/>
 <path d="M316 3404 c-19 -18 -19 -16 -6 -50 13 -34 23 -24 26 26 2 45 2 46 -20 24z"/>
 <path d="M958 2970 c6 -41 20 -47 18 -8 -1 17 -6 33 -12 35 -7 2 -9 -8 -6 -27z"/>
 <path d="M4280 2706 c0 -2 6 -18 14 -37 13 -30 14 -31 21 -10 4 13 2 28 -5 36 -11 14 -30 20 -30 11z"/>
 <path d="M4920 1741 c0 -10 30 -24 37 -17 3 3 2 9 -2 15 -8 13 -35 15 -35 2z"/>
 <path d="M4533 1643 c-18 -6 -16 -23 1 -23 17 0 30 16 19 23 -5 2 -14 2 -20 0z"/>
 <path d="M4509 1461 l-23 -18 32 5 c31 4 41 15 23 26 -5 3 -19 -2 -32 -13z"/>
 <path d="M2441 1259 c-13 -11 -30 -18 -38 -15 -7 3 -13 1 -13 -4 0 -4 -17 -14 -37 -20 -51 -17 -59 -26 -34 -39 28 -15 86 14 124 63 32 41 32 43 -2 15z"/>
 <path d="M2072 1231 c-8 -5 0 -7 23 -6 20 1 39 5 42 9 9 9 -50 7 -65 -3z"/>
 <path d="M4528 1056 c-26 -20 -22 -26 17 -26 28 0 35 4 35 20 0 23 -26 26 -52 6z"/>
 <path d="M1950 1035 c0 -12 4 -25 10 -31 5 -5 16 -27 24 -49 12 -32 15 -35 15 -15 0 14 -11 45 -24 70 -17 31 -24 39 -25 25z"/>
 <path d="M4464 905 c-18 -15 -18 -15 10 -13 16 2 31 9 34 16 5 17 -20 15 -44 -3z"/>
 <path d="M4711 863 c-32 -39 -36 -49 -23 -57 14 -9 72 35 72 55 0 10 0 22 1 26 2 21 -22 9 -50 -24z"/>
 <path d="M2005 881 c-3 -6 14 -18 37 -29 24 -10 49 -26 56 -35 19 -23 45 -11 31 15 -22 40 -108 74 -124 49z"/>
 <path d="M4337 873 c-3 -5 6 -8 19 -8 13 0 24 3 24 8 0 4 -9 7 -19 7 -11 0 -22 -3 -24 -7z"/>
 <path d="M3165 820 c-4 -6 -2 -17 4 -23 15 -15 25 -2 13 19 -7 12 -11 13 -17 4z"/>
 <path d="M4371 817 c-8 -11 -5 -13 19 -9 16 2 27 8 24 13 -8 13 -30 11 -43 -4z"/>
 <path d="M4185 773 c11 -3 27 -10 35 -17 13 -10 13 -9 1 7 -7 9 -23 16 -35 16 -20 -1 -20 -2 -1 -6z"/>
 <path d="M4580 760 c-25 -25 -26 -40 -2 -40 24 0 62 28 62 46 0 21 -37 17 -60 -6z"/>
 <path d="M4334 714 c-18 -15 -18 -15 6 -10 14 3 33 6 43 6 10 0 15 5 12 10 -9 15 -39 12 -61 -6z"/>
 <path d="M4426 669 c-30 -24 -34 -49 -7 -49 14 0 17 6 13 25 -5 27 14 35 35 14 13 -13 33 -4 33 17 0 21 -43 17 -74 -7z"/>
 <path d="M4584 674 c-16 -9 -37 -23 -46 -31 -24 -21 -23 -53 0 -53 25 0 102 56 102 74 0 22 -25 26 -56 10z"/>
 <path d="M4344 665 c-20 -15 -11 -18 20 -6 11 4 15 10 9 14 -5 3 -19 0 -29 -8z"/>
 <path d="M4385 553 c-16 -9 -41 -25 -54 -37 l-24 -21 12 23 c6 12 9 22 5 22 -17 0 -95 -52 -104 -70 -15 -27 2 -34 58 -21 26 6 63 13 83 16 50 7 129 59 129 85 0 17 -6 20 -37 19 -21 -1 -51 -8 -68 -16z"/>
 <path d="M4143 510 c-46 -28 -45 -54 2 -47 40 7 98 44 90 58 -10 15 -58 10 -92 -11z"/>
 <path d="M3720 443 c0 -5 11 -8 24 -8 13 0 22 3 19 8 -2 4 -13 7 -24 7 -10 0 -19 -3 -19 -7z"/>
 <path d="M4196 412 l-29 -4 29 -14 c28 -15 54 -13 54 5 0 12 -20 17 -54 13z"/>
 <path d="M3170 386 c0 -7 82 -57 86 -53 7 7 -56 57 -72 57 -8 0 -14 -2 -14 -4z"/>
 <path d="M3293 338 c-39 -19 -28 -38 21 -38 53 0 76 8 76 25 0 25 -56 33 -97 13z"/>
 <path d="M3434 326 c-43 -19 -49 -33 -17 -41 17 -4 29 -2 31 4 2 6 13 11 24 11 13 0 18 6 16 17 -4 22 -17 25 -54 9z"/>
 </g>
<g id="layer104" fill="#98a6aa" stroke="none">
 <path d="M2730 5939 c-108 -10 -320 -45 -365 -59 l-30 -10 30 6 c17 3 108 8 204 11 139 4 175 2 182 -8 6 -10 34 -14 99 -15 69 -1 95 -5 108 -18 19 -16 76 -20 262 -16 56 1 80 -3 95 -15 20 -16 20 -16 -2 -6 -26 13 -102 14 -121 2 -26 -16 33 -42 73 -31 21 5 35 -1 35 -15 0 -8 6 -15 14 -15 7 0 25 -11 40 -25 31 -29 39 -30 56 -10 10 12 8 16 -11 24 -22 8 -22 10 -6 16 23 9 90 -10 107 -30 7 -8 28 -15 48 -15 21 0 40 -7 48 -17 12 -16 12 -15 7 7 -3 14 -10 31 -16 38 -18 23 9 12 31 -13 20 -23 33 -28 87 -38 11 -2 19 -7 18 -13 -1 -5 14 -19 33 -32 19 -12 34 -18 34 -12 0 5 5 10 11 10 5 0 8 -4 5 -9 -10 -16 28 -49 74 -65 25 -8 39 -15 33 -16 -26 0 -12 -19 19 -25 17 -4 39 -16 47 -26 9 -10 41 -25 72 -33 71 -18 115 -41 129 -65 5 -11 26 -25 45 -32 21 -8 35 -20 37 -33 3 -17 5 -16 9 7 5 22 3 27 -13 27 -25 0 -58 18 -58 31 0 5 13 3 30 -6 37 -19 50 -19 50 1 0 8 5 12 10 9 6 -3 10 -22 10 -40 0 -38 20 -55 64 -55 16 0 27 7 31 20 9 28 25 25 25 -6 0 -14 5 -34 11 -45 14 -27 97 -79 126 -79 42 0 24 -20 -19 -21 -40 -1 -41 -2 -13 -8 40 -10 75 -29 75 -42 0 -6 -10 -3 -22 5 -29 21 -38 20 -38 -2 0 -28 6 -30 54 -19 39 9 43 12 33 28 -14 23 -1 38 16 17 6 -8 23 -22 36 -31 l24 -16 -24 -5 c-13 -4 -42 -10 -64 -15 l-40 -9 36 -1 c43 -1 71 -25 39 -34 -46 -12 -29 -72 31 -102 39 -21 63 -5 54 34 -5 26 -5 26 13 6 10 -11 43 -43 73 -72 46 -42 53 -52 38 -56 -33 -9 -24 -61 17 -107 40 -44 76 -59 98 -41 11 9 22 2 52 -36 21 -26 41 -52 45 -57 4 -4 6 6 6 24 -1 19 3 35 11 37 7 3 12 -4 12 -16 0 -12 9 -30 21 -42 24 -24 19 -35 -9 -20 -27 14 -35 14 -26 -1 4 -7 -2 -4 -14 6 -12 11 -22 16 -22 11 0 -4 -9 4 -21 19 -27 34 -43 34 -35 -1 7 -27 92 -122 110 -123 4 0 6 15 4 32 l-5 33 16 -25 c9 -14 31 -41 49 -60 l34 -35 -5 30 c-6 33 7 65 26 65 9 0 11 -13 9 -41 -5 -51 45 -158 97 -208 29 -27 32 -33 15 -29 -39 10 -49 -6 -27 -43 11 -19 30 -51 43 -73 23 -38 23 -38 2 -27 -12 7 -22 18 -22 26 0 24 -28 17 -30 -7 -9 -116 13 -208 70 -287 45 -61 80 -51 80 24 1 35 2 38 12 20 7 -11 18 -26 25 -33 15 -15 17 -28 13 -89 -1 -32 2 -45 15 -49 27 -11 39 10 26 48 -10 31 -10 32 5 13 15 -20 15 -63 -1 -110 -6 -18 -5 -18 5 -2 6 9 18 17 26 17 9 0 25 10 36 23 16 18 19 19 14 4 -3 -10 -6 -22 -6 -27 0 -4 -9 -10 -19 -13 -13 -3 -22 -17 -26 -40 -9 -47 12 -172 38 -222 l20 -40 -23 20 -23 20 7 -29 c4 -16 13 -37 19 -47 12 -16 14 -16 35 -1 17 13 23 31 28 82 8 92 12 110 29 110 12 0 12 -4 -1 -27 -16 -32 -18 -71 -4 -93 8 -12 10 -11 10 7 0 23 32 63 50 63 5 0 0 -16 -12 -36 -25 -42 -20 -114 11 -175 14 -25 16 -36 7 -33 -22 8 -54 58 -67 105 -11 37 -13 40 -17 19 -2 -13 -11 -30 -20 -36 -14 -10 -17 -30 -16 -106 0 -94 13 -138 38 -138 8 0 19 -13 26 -29 12 -29 12 -29 31 -10 17 17 49 26 49 14 0 -3 -7 -16 -15 -29 -18 -27 -23 -87 -11 -135 6 -25 5 -32 -4 -26 -19 12 -40 70 -40 110 0 20 -4 34 -9 31 -5 -4 -12 0 -15 6 -8 17 2 -34 11 -59 6 -16 5 -17 -12 -3 -16 14 -17 13 -11 -8 5 -13 3 -22 -4 -22 -17 0 -32 -50 -20 -65 8 -10 8 -15 -1 -20 -33 -21 -66 -206 -49 -280 21 -91 18 -95 -8 -15 l-28 84 -27 -54 c-31 -65 -57 -158 -58 -215 -1 -22 -5 -51 -9 -65 l-8 -25 -1 25 c-1 14 -6 65 -11 114 -6 61 -6 94 1 102 6 7 12 37 14 66 2 29 2 45 -1 36 -8 -27 -25 -21 -18 6 9 36 -10 64 -41 60 -52 -5 -71 -48 -40 -90 19 -25 19 -35 0 -28 -11 5 -13 2 -8 -12 4 -12 3 -15 -5 -10 -7 4 -12 1 -12 -8 0 -19 -11 -21 -27 -5 -9 9 -14 5 -18 -14 -5 -18 -11 -24 -23 -20 -11 5 -13 3 -7 -7 6 -10 4 -12 -9 -7 -10 4 -23 7 -30 7 -7 0 -18 12 -25 26 -9 21 -8 41 10 110 11 45 19 89 16 96 -3 7 -6 3 -6 -10 -1 -14 -6 -22 -13 -20 -13 5 -38 -34 -38 -58 0 -17 -12 -18 -26 -4 -13 13 -44 2 -39 -13 2 -7 6 -25 10 -40 5 -24 3 -28 -12 -23 -12 4 -24 -1 -32 -13 -8 -11 -21 -17 -30 -13 -9 3 -13 2 -9 -3 4 -4 3 -16 -3 -26 -7 -15 -14 -17 -28 -10 -15 9 -20 4 -30 -28 -6 -22 -8 -47 -4 -57 6 -17 5 -17 -10 -5 -23 19 -49 -3 -45 -38 2 -21 8 -25 27 -23 22 2 23 0 16 -35 -4 -21 -8 -38 -8 -39 -1 0 -19 -11 -41 -24 -37 -22 -38 -24 -32 -67 3 -24 13 -58 22 -75 11 -22 14 -44 10 -75 l-6 -43 47 25 c35 18 50 22 60 13 7 -6 15 -9 16 -7 2 2 11 16 20 32 17 27 50 36 62 17 3 -5 -1 -10 -9 -10 -13 0 -36 -28 -36 -42 0 -2 16 -2 35 0 21 3 35 10 35 18 0 13 30 34 49 34 6 0 11 -7 11 -15 0 -16 0 -16 75 -20 54 -3 75 7 75 36 0 24 15 32 32 16 12 -12 65 -27 93 -27 6 0 10 10 10 23 1 33 14 64 30 71 17 6 20 -5 6 -19 -9 -10 -14 -38 -12 -62 1 -18 30 -16 37 2 5 12 9 12 30 -1 13 -9 31 -14 39 -10 12 4 15 -4 14 -47 -1 -29 -3 -44 -6 -34 -6 24 -29 21 -47 -5 -21 -30 -20 -35 7 -42 l22 -6 -21 -18 c-22 -17 -46 -58 -59 -102 -7 -21 -6 -23 7 -12 9 7 23 9 32 6 14 -5 12 -9 -12 -24 -16 -10 -36 -33 -45 -51 -18 -40 -33 -101 -20 -81 7 9 17 10 34 4 20 -8 29 -4 53 20 25 27 28 35 22 74 -3 28 0 55 10 80 9 20 13 46 10 57 -3 11 -2 33 1 49 4 21 10 27 22 23 12 -4 22 5 34 30 33 70 67 115 81 109 11 -4 6 -13 -18 -35 -50 -43 -81 -172 -57 -233 18 -46 141 310 196 567 46 217 60 356 60 607 0 256 -10 366 -55 590 -54 272 -136 504 -267 763 -142 278 -292 485 -522 721 -432 441 -976 730 -1581 840 -232 43 -552 56 -790 35z m365 -41 c22 -3 62 -2 88 2 33 5 45 4 38 -3 -14 -14 -119 -21 -166 -13 -21 4 -35 13 -35 22 0 11 5 12 18 6 9 -5 35 -12 57 -14z m312 -74 c21 -7 62 -13 92 -14 46 0 52 -2 41 -15 -10 -12 -9 -15 4 -15 10 0 14 -5 11 -10 -5 -8 -11 -8 -19 -1 -7 6 -43 10 -81 10 -80 -1 -118 20 -123 67 -4 28 -3 28 16 10 12 -10 38 -24 59 -32z m574 -233 c13 -11 22 -22 19 -24 -3 -3 -18 6 -35 19 -16 13 -25 24 -19 24 7 0 22 -9 35 -19z m329 -141 c6 -11 9 -20 7 -20 -2 0 -12 9 -22 20 -10 11 -13 20 -7 20 6 0 16 -9 22 -20z m-114 -27 c-11 -11 -19 6 -11 24 8 17 8 17 12 0 3 -10 2 -21 -1 -24z m417 -183 c9 0 17 -4 17 -9 0 -6 -12 -6 -32 0 -18 5 -34 9 -35 9 -2 0 -3 7 -3 17 0 15 1 15 18 0 10 -10 26 -17 35 -17z m209 -152 c18 -16 27 -28 20 -28 -24 0 -82 62 -82 89 l0 26 15 -30 c9 -16 30 -42 47 -57z m93 -108 c3 -10 27 -37 52 -60 49 -43 48 -52 -4 -20 -31 19 -83 100 -64 100 5 0 12 -9 16 -20z m341 -176 c1 -57 70 -197 148 -301 l54 -71 -38 26 c-49 36 -103 109 -151 209 -50 102 -59 151 -34 169 11 8 19 14 19 14 1 0 1 -21 2 -46z m150 -408 c8 -21 29 -60 46 -85 l31 -46 -27 25 c-37 33 -64 88 -70 142 -3 23 -3 34 0 23 3 -11 12 -37 20 -59z m-108 12 c8 -10 11 -18 5 -18 -20 0 -44 37 -36 56 7 18 8 18 11 -1 2 -11 11 -28 20 -37z m154 -213 c-9 -86 30 -219 87 -294 19 -26 22 -33 9 -28 -9 3 -19 1 -22 -6 -3 -7 -4 -5 -3 3 1 9 -13 35 -32 58 -67 86 -108 275 -63 301 28 17 30 13 24 -34z m288 -976 c-7 -11 -14 -19 -16 -16 -7 7 7 37 17 37 6 0 5 -9 -1 -21z m4 -148 c-8 -10 -24 14 -24 37 l1 27 13 -30 c7 -16 12 -32 10 -34z m115 -155 c-20 -34 -28 -144 -15 -198 4 -16 1 -14 -9 7 -8 17 -14 50 -15 74 0 55 29 151 46 151 10 0 7 -10 -7 -34z m-132 -53 c-3 -10 -5 -2 -5 17 0 19 2 27 5 18 2 -10 2 -26 0 -35z m13 -103 c-11 -11 -20 -25 -20 -32 0 -6 -2 -9 -5 -6 -10 10 15 58 30 58 12 0 11 -4 -5 -20z m-290 -168 c0 -13 -12 -22 -22 -16 -10 6 -1 24 13 24 5 0 9 -4 9 -8z m312 -40 c-37 -34 -56 -100 -48 -162 5 -43 5 -44 -9 -19 -42 77 -2 209 63 209 l24 0 -30 -28z"/>
 <path d="M2235 5819 c-65 -15 -126 -40 -119 -50 3 -5 -2 -12 -10 -15 -9 -3 -16 -10 -16 -15 0 -5 20 2 44 15 57 30 133 56 165 56 21 0 23 2 11 10 -17 11 -21 11 -75 -1z"/>
 <path d="M3055 5736 c-17 -12 -18 -17 -6 -28 11 -10 14 -10 18 0 3 6 9 10 14 6 5 -3 9 0 9 7 0 8 10 9 31 5 22 -4 29 -2 27 7 -6 18 -70 20 -93 3z"/>
 <path d="M3317 5704 c-11 -11 3 -24 25 -24 17 0 18 2 8 15 -13 16 -23 19 -33 9z"/>
 <path d="M3403 5695 c-18 -20 -17 -22 13 -29 37 -10 56 10 30 30 -24 17 -28 17 -43 -1z"/>
 <path d="M3474 5679 c-10 -17 12 -26 48 -21 29 4 30 6 13 18 -23 17 -51 18 -61 3z"/>
 <path d="M3575 5630 c-7 -12 2 -12 30 0 19 8 19 9 -2 9 -12 1 -25 -3 -28 -9z"/>
 <path d="M3715 5590 c-4 -6 5 -10 20 -10 15 0 24 4 20 10 -3 6 -12 10 -20 10 -8 0 -17 -4 -20 -10z"/>
 <path d="M3773 5483 c9 -2 25 -2 35 0 9 3 1 5 -18 5 -19 0 -27 -2 -17 -5z"/>
 <path d="M4040 5427 c0 -9 11 -14 31 -15 38 -1 34 22 -4 26 -18 2 -27 -1 -27 -11z"/>
 <path d="M4180 5320 c0 -5 12 -10 26 -10 14 0 23 4 19 10 -3 6 -15 10 -26 10 -10 0 -19 -4 -19 -10z"/>
 <path d="M4342 5283 c2 -9 21 -26 44 -38 l41 -22 -26 39 c-25 39 -65 54 -59 21z"/>
 <path d="M4370 5135 c0 -8 14 -17 35 -21 19 -3 38 -10 41 -15 3 -5 15 -9 26 -9 21 0 20 2 -7 30 -32 33 -95 43 -95 15z"/>
 <path d="M4460 5060 c-12 -8 -9 -10 13 -10 15 0 27 5 27 10 0 13 -20 13 -40 0z"/>
 <path d="M4500 5011 c0 -5 14 -12 30 -16 17 -4 30 -13 30 -21 0 -8 7 -14 15 -14 23 0 18 14 -15 38 -30 23 -60 29 -60 13z"/>
 <path d="M4760 4886 c0 -17 38 -41 48 -31 9 9 -13 40 -32 43 -9 2 -16 -3 -16 -12z"/>
 <path d="M4716 4842 c-3 -4 8 -13 25 -19 33 -13 35 -11 13 11 -17 18 -30 20 -38 8z"/>
 <path d="M4285 4805 c-16 -8 -23 -14 -14 -15 8 0 24 7 35 15 23 18 18 18 -21 0z"/>
 <path d="M5000 4567 c0 -29 69 -97 98 -97 l26 0 -25 22 c-13 11 -41 37 -61 57 -29 26 -38 31 -38 18z"/>
 <path d="M5237 4353 c27 -53 43 -73 39 -52 -3 19 -50 99 -58 99 -3 0 5 -21 19 -47z"/>
 <path d="M5047 4373 c-13 -12 -7 -18 18 -19 28 -2 34 11 9 20 -19 7 -19 7 -27 -1z"/>
 <path d="M5130 4338 c1 -13 70 -51 70 -39 0 4 -7 17 -16 29 -16 23 -54 30 -54 10z"/>
 <path d="M5497 3413 c-3 -4 1 -17 9 -28 10 -13 14 -15 14 -4 0 20 -16 43 -23 32z"/>
 <path d="M5340 3130 c-11 -7 -12 -10 -2 -10 7 0 10 -5 7 -10 -4 -6 -11 -8 -16 -5 -5 4 -8 -9 -8 -27 1 -18 3 -25 6 -15 8 30 23 18 23 -19 0 -21 4 -33 10 -29 12 7 13 94 2 112 -5 8 -13 9 -22 3z"/>
 <path d="M5562 3128 c-27 -35 -26 -146 3 -184 13 -18 15 -18 36 3 18 18 22 33 22 84 -1 86 -31 134 -61 97z"/>
 <path d="M5523 2943 c-18 -6 -16 -48 1 -62 21 -18 41 21 26 49 -6 11 -12 20 -13 19 -1 0 -8 -3 -14 -6z"/>
 <path d="M5490 2882 c0 -21 20 -62 30 -62 17 0 11 36 -10 55 -11 10 -20 13 -20 7z"/>
 <path d="M5377 2849 c-3 -12 -1 -33 4 -47 l10 -26 21 22 c19 18 20 25 10 47 -14 30 -38 33 -45 4z"/>
 <path d="M4800 2743 c0 -4 10 -17 23 -31 21 -23 22 -24 3 -37 -18 -14 -18 -15 5 -34 29 -25 54 -27 45 -5 -3 8 1 22 9 30 22 22 18 50 -7 68 -22 16 -78 22 -78 9z"/>
 <path d="M5347 2663 c-4 -3 -7 -16 -6 -27 0 -19 1 -19 10 3 10 24 8 36 -4 24z"/>
 <path d="M4851 2046 c-9 -11 -8 -15 5 -20 23 -9 24 -8 24 14 0 23 -13 26 -29 6z"/>
 <path d="M5453 2033 c-18 -7 -16 -23 2 -23 8 0 15 7 15 15 0 8 -1 15 -2 14 -2 0 -9 -3 -15 -6z"/>
 <path d="M4038 2001 c-28 -16 -47 -68 -34 -90 3 -5 2 -20 -3 -34 -12 -31 -3 -67 16 -67 11 0 11 -4 2 -21 -8 -17 -17 -20 -40 -15 -39 8 -37 -11 2 -19 30 -7 39 -2 53 30 3 6 7 6 13 -1 4 -6 22 -15 38 -19 l30 -8 -27 -10 c-29 -11 -38 -27 -15 -27 42 0 87 80 74 132 -4 13 -20 32 -38 42 -29 17 -31 21 -25 61 8 53 -7 69 -46 46z"/>
 <path d="M5404 1978 c-4 -7 -14 -23 -22 -36 -13 -20 -13 -22 0 -17 9 4 22 -1 30 -9 14 -13 17 -12 27 10 17 38 14 64 -8 64 -11 0 -23 -6 -27 -12z"/>
 <path d="M5438 1793 c-9 -10 -20 -27 -26 -38 -9 -18 -7 -21 11 -22 28 -3 57 24 57 54 0 27 -21 30 -42 6z"/>
 <path d="M5355 1780 c-3 -11 -11 -20 -16 -20 -5 0 -9 -7 -9 -15 0 -36 51 -4 57 36 4 26 -24 25 -32 -1z"/>
 <path d="M5412 1697 c-24 -26 -31 -47 -7 -24 8 9 20 17 26 19 7 2 10 10 8 17 -3 8 -12 4 -27 -12z"/>
 <path d="M5304 1657 c-6 -17 2 -37 15 -37 9 0 8 37 -2 46 -4 4 -9 0 -13 -9z"/>
 <path d="M4969 1565 c-1 -8 -2 -19 -3 -24 0 -6 -19 -26 -41 -46 -29 -26 -36 -38 -27 -43 9 -7 8 -13 -8 -27 -30 -27 -26 -60 11 -77 23 -12 27 -17 15 -21 -9 -4 -16 -14 -16 -24 0 -13 3 -14 12 -5 7 7 19 12 28 12 23 0 80 44 101 80 10 16 26 30 34 30 8 0 23 16 32 35 9 19 19 35 23 35 3 0 7 11 8 25 1 13 3 30 4 37 2 7 -6 14 -17 16 -28 4 -71 -44 -95 -104 -18 -47 -19 -48 -20 -16 0 18 6 48 14 67 13 30 13 35 -3 49 -22 20 -51 21 -52 1z"/>
 <path d="M5440 1533 c0 -5 7 -17 15 -27 14 -19 15 -19 15 7 0 17 -5 27 -15 27 -8 0 -15 -3 -15 -7z"/>
 <path d="M5398 1493 c-43 -49 -62 -123 -32 -123 38 0 98 99 79 130 -9 15 -30 12 -47 -7z"/>
 <path d="M4810 1451 c-16 -31 -12 -51 10 -51 20 0 40 27 40 54 0 23 -37 20 -50 -3z"/>
 <path d="M5315 1320 c-8 -13 4 -32 16 -25 12 8 12 35 0 35 -6 0 -13 -4 -16 -10z"/>
 <path d="M4761 1276 c-6 -7 -8 -21 -5 -30 6 -16 8 -16 25 0 11 9 19 23 19 31 0 17 -24 17 -39 -1z"/>
 <path d="M5271 1266 c-18 -44 2 -54 30 -14 13 19 16 27 7 20 -14 -11 -17 -10 -21 5 -3 14 -6 12 -16 -11z"/>
 <path d="M4785 1110 c-16 -11 -25 -20 -20 -20 10 0 64 39 55 40 -3 0 -18 -9 -35 -20z"/>
 <path d="M5127 1069 c-19 -11 -51 -68 -43 -76 8 -8 22 4 56 47 31 39 25 51 -13 29z"/>
 <path d="M3286 331 c-5 -8 84 -3 93 5 2 2 -16 4 -42 4 -25 0 -48 -4 -51 -9z"/>
 </g>

</svg>