<!DOCTYPE svg PUBLIC "-//W3C//DTD SVG 20010904//EN" "http://www.w3.org/TR/2001/REC-SVG-20010904/DTD/svg10.dtd">
<svg version="1.0" xmlns="http://www.w3.org/2000/svg" width="320px" height="480px" viewBox="0 0 3200 4800"
     preserveAspectRatio="xMidYMid meet">
  <g id="layer101" fill="#060606" stroke="none">
    <path
      d="M1180 4365 c-74 -24 -161 -51 -193 -60 -57 -16 -60 -18 -84 -73 -60 -137 -85 -187 -102 -201 -10 -9 -48 -43 -85 -76 -63 -55 -169 -114 -207 -115 -26 0 -40 -24 -51 -92 -38 -240 -54 -306 -94 -393 -12 -27 -33 -80 -47 -116 -14 -36 -36 -91 -51 -122 -14 -32 -26 -60 -26 -63 0 -6 -7 -23 -44 -106 -44 -100 -46 -109 -34 -270 l12 -152 54 -81 54 -80 -18 -45 c-22 -54 -24 -151 -6 -295 7 -55 17 -141 22 -192 15 -143 4 -130 161 -205 132 -64 139 -68 139 -96 0 -34 14 -42 71 -42 21 0 39 -3 39 -7 0 -3 -11 -21 -25 -39 -27 -35 -31 -77 -15 -169 8 -47 6 -54 -31 -116 -21 -36 -39 -76 -38 -90 0 -13 15 -64 33 -114 l33 -90 97 -3 c96 -3 99 -3 151 -42 29 -22 91 -64 137 -94 45 -30 97 -67 113 -83 53 -51 174 -152 194 -162 22 -12 59 -2 79 21 6 8 73 39 148 68 146 58 144 57 171 145 l8 30 119 12 118 13 32 -25 c18 -14 38 -25 44 -25 6 0 104 92 218 205 114 113 225 220 247 238 83 66 116 99 122 120 4 12 13 36 20 53 8 17 46 109 84 205 l71 174 77 72 c75 69 77 73 76 115 -3 78 -14 232 -23 313 -5 44 -14 135 -21 202 l-12 123 -101 39 c-56 21 -112 42 -125 46 -25 8 -25 7 -2 130 6 28 17 88 26 135 26 141 34 183 45 234 9 46 6 89 -10 111 -4 6 -14 28 -22 50 -9 22 -32 74 -52 116 -20 42 -36 80 -36 83 0 14 -70 154 -82 164 -7 5 -47 20 -88 32 -41 12 -80 27 -86 33 -12 13 -22 47 -80 262 -19 72 -39 144 -43 160 -5 17 -20 72 -34 123 -14 52 -29 98 -34 103 -6 6 -82 5 -209 -5 l-199 -15 -35 35 c-20 18 -42 34 -49 34 -8 0 -57 -20 -111 -44 -147 -67 -149 -67 -201 -7 -23 28 -50 51 -58 50 -9 0 -77 -20 -151 -44z"/>
  </g>
  <g id="layer102" fill="#3f3e42" stroke="none">
    <path
      d="M1178 4291 c-82 -25 -148 -49 -148 -52 0 -4 84 -49 187 -100 181 -91 188 -95 209 -139 43 -87 84 -180 84 -189 0 -7 77 -67 258 -198 34 -25 44 -63 16 -63 -34 0 -314 216 -314 243 0 6 -9 29 -19 51 -10 23 -30 67 -44 99 -41 90 -61 97 -323 97 -211 0 -212 0 -218 -22 -3 -13 -6 -180 -6 -371 0 -326 -1 -348 -17 -345 -16 3 -18 23 -21 229 l-2 226 -78 35 c-102 46 -116 42 -120 -41 -3 -58 -2 -62 23 -71 14 -5 28 -17 31 -25 9 -23 27 -18 21 6 -7 26 10 72 23 64 5 -3 10 -30 10 -59 0 -80 56 -470 101 -707 10 -53 9 -64 -26 -175 -63 -203 -73 -229 -87 -229 -15 0 -14 108 2 210 6 33 10 128 10 212 0 123 3 154 15 160 12 7 10 36 -15 213 -16 113 -30 222 -30 243 0 76 -18 33 -47 -115 l-31 -153 28 -150 c39 -211 39 -205 15 -205 -8 0 -15 2 -15 3 0 2 -11 64 -25 138 -48 252 -64 350 -60 362 2 7 6 66 9 132 4 66 9 135 13 154 6 33 5 34 -23 27 -16 -4 -35 -13 -41 -20 -7 -6 -26 -86 -43 -176 -27 -151 -52 -231 -111 -366 -10 -22 -27 -65 -39 -95 -11 -30 -27 -67 -35 -84 -30 -67 -65 -159 -65 -173 0 -9 6 -12 17 -7 10 3 43 13 74 21 l57 15 116 -60 c64 -32 123 -64 131 -71 17 -14 19 -48 6 -82 -5 -13 -14 -48 -21 -78 -7 -30 -26 -104 -42 -164 -24 -88 -27 -110 -16 -117 21 -14 31 -11 125 32 154 72 177 82 213 96 19 7 36 13 36 13 1 0 5 -7 8 -16 7 -18 -10 -54 -24 -54 -6 0 -29 -9 -53 -19 -23 -11 -80 -36 -126 -55 -134 -57 -131 -54 -130 -144 l0 -77 58 -48 c31 -27 73 -58 92 -69 l34 -21 -42 44 c-24 25 -43 52 -43 60 0 20 88 82 106 75 23 -9 16 -43 -13 -65 -26 -20 -27 -22 -10 -32 10 -6 41 -45 69 -87 27 -42 75 -98 106 -125 52 -43 58 -46 69 -30 16 20 17 43 3 43 -5 0 -10 -9 -10 -20 0 -27 -7 -25 -37 10 -13 17 -30 30 -36 30 -7 0 -21 14 -32 30 -11 16 -23 30 -27 30 -5 0 -8 6 -8 13 0 7 -16 36 -35 64 -19 29 -35 56 -35 60 0 4 21 -24 47 -62 25 -39 49 -72 53 -75 3 -3 9 -13 13 -23 9 -24 42 -18 42 8 0 11 3 22 6 25 4 3 15 32 25 66 11 33 22 61 27 62 26 7 37 0 37 -24 0 -14 4 -23 10 -19 6 3 10 16 10 28 0 17 -17 30 -80 61 -66 32 -80 43 -80 62 0 32 13 31 116 -16 l89 -39 -2 -37 c-6 -83 -56 -317 -72 -333 -9 -9 -40 -37 -69 -63 l-53 -47 -29 -158 c-17 -87 -30 -167 -30 -179 0 -28 -22 -46 -105 -89 -58 -30 -95 -66 -95 -92 0 -9 63 10 95 29 25 14 48 18 92 16 l58 -3 5 -50 c4 -43 6 -47 16 -30 6 11 19 47 28 80 36 131 60 195 73 195 19 0 16 -44 -6 -109 -11 -31 -31 -93 -45 -137 -14 -45 -41 -107 -60 -137 -20 -31 -36 -60 -36 -65 0 -5 53 -45 118 -90 64 -44 160 -117 212 -162 52 -44 107 -90 122 -101 27 -20 27 -20 38 1 9 17 7 28 -7 53 -17 29 -54 54 -169 112 -46 23 -74 53 -68 70 7 17 14 18 47 6 21 -8 31 -3 78 41 86 81 150 118 203 118 35 0 48 5 56 20 10 18 8 20 -28 20 -43 0 -57 11 -68 54 -6 24 -21 35 -103 73 -90 42 -141 76 -141 94 0 5 -20 40 -45 78 -49 76 -51 90 -15 161 49 95 69 150 56 150 -2 0 -46 -18 -97 -39 -52 -21 -97 -37 -101 -34 -5 2 -8 13 -8 24 0 14 13 25 43 38 47 21 126 55 174 77 28 13 35 24 53 87 11 40 29 101 39 137 11 36 22 77 25 93 7 29 30 36 40 12 3 -8 1 -25 -4 -38 -5 -12 -28 -89 -51 -172 -23 -82 -66 -206 -95 -275 -30 -68 -54 -130 -54 -137 0 -7 19 -42 42 -77 39 -58 51 -69 131 -110 49 -25 92 -46 96 -46 5 0 21 35 36 77 14 43 31 87 36 98 5 11 27 72 49 135 26 78 44 116 56 118 24 6 16 -48 -45 -286 -28 -112 -51 -209 -51 -217 0 -19 109 -21 132 -3 9 7 28 35 42 62 14 27 30 54 35 60 27 35 96 180 121 254 18 55 34 88 44 90 24 5 20 -26 -13 -121 -25 -74 -55 -135 -137 -284 -28 -52 -25 -52 86 -23 98 26 120 26 120 0 0 -24 11 -25 51 -5 23 12 28 21 24 38 -22 90 -89 420 -92 455 -4 34 -2 42 11 42 9 0 16 -1 16 -3 0 -6 72 -357 91 -441 11 -49 17 -96 15 -103 -3 -8 -66 -43 -140 -79 l-135 -64 -72 -96 -73 -97 29 -23 c16 -12 32 -21 36 -19 3 3 12 25 19 49 15 55 4 51 213 70 32 3 62 8 66 11 5 2 20 39 35 82 30 84 36 99 60 155 9 20 19 50 22 67 4 17 11 34 15 37 5 3 9 13 9 22 0 18 91 102 109 102 26 0 8 -46 -33 -85 -26 -26 -50 -61 -61 -91 -9 -27 -21 -58 -26 -69 -10 -23 -36 -96 -50 -140 -5 -16 -16 -45 -25 -63 -12 -26 -13 -36 -4 -48 7 -8 17 -14 22 -14 6 0 101 90 211 199 111 109 231 223 267 253 66 55 65 53 136 223 6 17 26 63 43 104 17 41 29 76 26 79 -5 6 -9 3 -115 -89 -93 -80 -155 -129 -166 -129 -4 0 -15 -7 -25 -16 -21 -19 -37 -11 -144 65 -87 63 -109 74 -215 109 -97 33 -112 54 -64 91 32 25 27 36 -10 21 -42 -15 -56 -12 -56 13 0 25 38 144 71 227 21 49 24 78 28 270 4 129 10 214 16 214 5 -1 46 -67 90 -148 71 -127 105 -181 105 -165 0 19 100 793 106 822 3 15 10 27 15 27 6 0 31 -19 57 -43 103 -93 104 -93 53 -12 -54 85 -66 125 -37 125 12 0 62 -67 86 -115 18 -35 94 -156 101 -161 10 -6 9 -11 54 225 l35 183 -93 207 -92 208 -71 21 c-39 12 -76 22 -81 22 -16 0 -22 -43 -29 -220 l-7 -165 -69 -135 c-50 -99 -86 -190 -134 -340 -63 -196 -67 -207 -110 -247 l-44 -42 0 -100 0 -99 -52 -45 -52 -45 3 -104 c1 -57 -1 -116 -4 -131 -7 -27 -8 -27 -94 -27 l-86 0 -24 -75 c-13 -41 -28 -78 -33 -81 -24 -15 -24 24 2 109 26 89 28 92 113 177 80 78 87 89 87 125 0 24 7 47 19 59 10 12 35 80 56 151 34 121 39 133 80 170 36 33 48 54 70 123 15 46 24 86 21 89 -9 9 -75 -57 -82 -81 -3 -12 -14 -40 -24 -62 -11 -23 -22 -55 -26 -70 -4 -16 -10 -33 -14 -39 -4 -5 -15 -32 -25 -60 -10 -27 -25 -67 -33 -87 l-15 -36 -93 -7 c-51 -4 -97 -4 -103 0 -6 3 -53 -16 -104 -43 -50 -28 -126 -68 -167 -89 -41 -22 -91 -50 -110 -61 -39 -24 -76 -28 -82 -10 -4 12 26 103 58 175 8 17 14 34 14 39 0 7 48 135 75 199 30 73 47 126 42 131 -3 3 -43 -8 -89 -25 -133 -50 -287 -99 -293 -93 -3 3 -5 15 -5 27 0 17 12 25 63 42 129 44 349 122 352 125 3 3 11 111 21 280 3 58 7 114 7 124 1 12 -28 39 -88 80 -140 97 -143 101 -188 188 -47 92 -59 125 -52 145 9 22 28 -2 76 -95 48 -94 68 -113 289 -262 138 -94 160 -112 160 -133 0 -38 -18 -33 -105 29 -25 19 -49 31 -53 27 -4 -3 -7 -30 -9 -58 -13 -320 -15 -341 -45 -427 -16 -47 -35 -98 -43 -115 -32 -73 -118 -316 -113 -320 4 -4 162 68 177 82 3 1 -5 13 -16 26 -11 12 -23 28 -27 34 -4 7 22 74 59 149 36 75 65 139 65 143 0 5 9 16 20 26 16 15 45 18 174 23 l155 5 19 46 c11 25 36 81 56 125 l37 78 -58 -7 c-38 -4 -80 -19 -123 -43 -141 -78 -242 -124 -252 -114 -21 21 -1 48 62 80 211 108 239 120 308 132 l72 13 -6 50 c-8 57 1 67 57 67 34 0 39 4 80 73 31 50 51 73 67 75 26 4 26 7 7 62 -8 23 -15 53 -15 65 0 12 27 76 61 141 41 81 59 127 56 144 -5 30 -60 236 -120 450 l-44 155 -39 -1 c-21 0 -93 -4 -159 -9 -127 -8 -178 -8 -209 1 -15 5 -18 3 -12 -12 4 -11 21 -73 38 -139 28 -116 31 -122 78 -166 35 -34 50 -57 58 -90 5 -24 36 -144 67 -267 43 -166 55 -226 47 -234 -7 -7 -14 -9 -18 -6 -5 6 -63 218 -114 423 -21 81 -27 94 -67 130 -43 39 -45 43 -92 218 -26 97 -50 180 -54 183 -3 3 -27 -4 -54 -16 -74 -33 -84 -37 -147 -62 l-59 -23 -51 56 -51 56 -147 -46z"/>
    <path d="M1422 4316 c13 -15 21 -17 45 -7 l28 11 -28 -5 c-16 -3 -36 0 -45 7 -16 11 -16 11 0 -6z"/>
    <path d="M942 4293 c-14 -6 -46 -62 -39 -70 3 -2 8 5 12 17 4 11 16 30 28 40 21 21 21 22 -1 13z"/>
    <path
      d="M931 4161 c-11 -27 -21 -52 -21 -55 0 -3 54 -6 120 -6 66 0 120 4 120 8 0 7 -46 31 -191 100 -3 1 -16 -20 -28 -47z"/>
    <path d="M810 4042 c-8 -10 -34 -34 -58 -55 -23 -20 -39 -37 -35 -37 13 1 118 98 113 103 -3 3 -12 -2 -20 -11z"/>
    <path d="M2281 4040 c0 -8 4 -24 9 -35 5 -13 9 -14 9 -5 0 8 -4 24 -9 35 -5 13 -9 14 -9 5z"/>
    <path
      d="M761 3909 c-24 -21 -42 -41 -40 -43 7 -6 88 -46 94 -46 3 0 5 29 5 65 0 36 -3 65 -7 65 -5 -1 -28 -19 -52 -41z"/>
    <path d="M2351 3780 c0 -8 4 -24 9 -35 5 -13 9 -14 9 -5 0 8 -4 24 -9 35 -5 13 -9 14 -9 5z"/>
    <path
      d="M608 3547 c-3 -45 -4 -83 -3 -85 2 -2 9 23 15 55 6 32 14 68 17 79 3 13 -1 23 -10 27 -12 4 -15 -10 -19 -76z"/>
    <path d="M2615 3523 c15 -36 25 -52 25 -41 0 11 -30 78 -35 78 -3 0 2 -17 10 -37z"/>
    <path
      d="M2295 3493 c-9 -21 -23 -50 -30 -65 -11 -23 -10 -30 9 -57 11 -17 24 -31 27 -31 7 0 21 181 15 187 -2 2 -11 -13 -21 -34z"/>
    <path d="M2220 3188 c0 -13 4 -29 8 -36 8 -11 14 -4 40 51 2 4 -8 7 -22 7 -20 0 -26 -5 -26 -22z"/>
    <path
      d="M2156 3123 c-9 -18 -26 -42 -38 -53 -12 -11 -16 -20 -9 -20 15 0 41 25 41 39 0 6 9 11 20 11 22 0 23 4 11 35 -7 18 -9 17 -25 -12z"/>
    <path d="M2746 3099 c-8 -42 0 -50 9 -9 4 17 5 34 2 36 -2 3 -7 -10 -11 -27z"/>
    <path
      d="M2180 3081 c0 -33 -53 -160 -69 -164 -9 -2 -22 -20 -28 -40 -10 -34 -10 -36 7 -27 24 13 60 59 60 77 0 8 12 44 26 80 19 47 23 68 15 76 -8 8 -11 8 -11 -2z"/>
    <path d="M2060 3046 c0 -3 21 -65 35 -105 3 -8 8 -11 11 -9 8 9 -26 118 -37 118 -5 0 -9 -2 -9 -4z"/>
    <path d="M771 2950 c-1 -52 -4 -106 -8 -119 -4 -16 -3 -22 5 -17 6 3 16 30 22 59 9 42 9 64 -3 112 l-15 60 -1 -95z"/>
    <path
      d="M2004 2833 c-25 -54 -57 -122 -71 -150 l-25 -53 -159 0 -159 0 -27 -62 c-16 -35 -42 -92 -60 -127 l-32 -64 20 -28 19 -28 47 21 c26 11 61 29 77 39 24 15 51 19 122 19 102 0 102 0 128 75 10 28 26 68 36 90 9 22 21 51 24 65 4 14 14 40 23 59 8 18 25 63 38 100 13 36 31 83 39 104 9 20 14 37 11 37 -3 0 -26 -44 -51 -97z"/>
    <path
      d="M2387 2883 c-2 -4 -8 -35 -11 -68 -8 -66 -32 -257 -71 -550 -20 -152 -23 -191 -13 -201 17 -17 291 -95 300 -86 4 4 -17 102 -46 217 -29 116 -51 216 -48 223 2 6 9 12 16 12 8 0 25 -47 45 -127 17 -71 40 -159 50 -198 43 -164 44 -174 22 -255 -11 -41 -32 -115 -46 -164 -14 -48 -24 -91 -21 -94 3 -3 27 15 54 39 26 24 102 90 168 146 67 57 126 109 133 116 8 11 7 55 -5 178 -8 90 -21 220 -27 289 l-12 124 -60 21 c-33 11 -64 23 -70 26 -5 4 -28 12 -50 19 -75 23 -87 36 -80 84 7 47 1 56 -116 161 -24 22 -58 53 -75 68 -18 16 -34 25 -37 20z"/>
    <path
      d="M285 2817 c-92 -25 -85 -10 -71 -167 8 -94 8 -95 67 -181 60 -87 66 -105 50 -137 -27 -53 -34 -73 -27 -79 4 -5 40 -17 79 -28 71 -20 72 -21 119 -90 26 -39 47 -73 47 -78 1 -4 12 -25 26 -47 38 -61 34 -76 -25 -90 -28 -7 -50 -17 -50 -23 0 -7 7 -59 15 -117 8 -58 15 -109 15 -113 0 -4 20 -17 45 -28 43 -19 50 -27 46 -56 -1 -9 16 -13 59 -13 33 0 60 1 60 3 0 1 -9 46 -19 101 -19 95 -21 100 -65 140 -29 25 -46 50 -46 64 0 32 19 27 73 -23 47 -43 47 -44 72 -166 14 -67 25 -133 25 -146 0 -27 -18 -64 -62 -127 -27 -38 -34 -73 -20 -109 6 -13 33 34 102 175 71 146 104 202 134 231 l41 38 -48 43 c-27 24 -88 70 -135 102 -48 32 -117 85 -154 118 l-68 59 0 83 c0 97 -5 112 -37 125 -35 13 -37 30 -13 126 12 48 25 104 30 123 21 86 41 166 46 182 4 14 -18 29 -105 73 -61 30 -114 55 -118 54 -5 0 -44 -10 -88 -22z"/>
    <path d="M163 2685 c0 -22 2 -30 4 -17 2 12 2 30 0 40 -3 9 -5 -1 -4 -23z"/>
    <path d="M2661 2648 c-1 -17 36 -45 46 -35 2 3 -5 8 -16 12 -11 3 -22 14 -24 23 -4 16 -5 16 -6 0z"/>
    <path
      d="M2765 2592 c6 -5 37 -19 70 -31 33 -12 66 -29 73 -38 11 -15 12 -15 12 -1 0 9 -8 19 -17 23 -80 32 -146 55 -138 47z"/>
    <path d="M186 2508 c21 -36 85 -128 89 -128 3 0 -16 32 -41 70 -26 39 -49 70 -51 70 -2 0 -1 -6 3 -12z"/>
    <path d="M2921 2423 c-1 -23 3 -44 7 -47 4 -2 6 12 4 32 -5 56 -10 62 -11 15z"/>
    <path
      d="M2078 2175 c4 -144 2 -157 -63 -329 -14 -38 -23 -71 -20 -74 3 -3 47 6 98 21 l92 27 184 -35 c102 -20 188 -32 191 -28 9 10 44 142 39 147 -2 1 -58 20 -124 40 -66 21 -144 45 -174 55 l-55 17 -77 138 c-43 76 -81 142 -86 147 -4 4 -6 -52 -5 -126z"/>
    <path d="M2941 2214 c1 -21 5 -52 9 -69 5 -19 6 -6 3 35 -6 73 -14 94 -12 34z"/>
    <path
      d="M296 2128 c21 -195 41 -329 48 -331 4 -1 32 18 61 43 38 31 54 53 55 70 1 35 14 53 48 65 l29 10 -46 82 -46 82 -67 20 c-36 12 -71 21 -78 21 -8 0 -9 -18 -4 -62z"/>
    <path d="M242 2165 c-1 -11 3 -38 7 -60 7 -34 9 -35 9 -10 0 35 -15 101 -16 70z"/>
    <path d="M1800 2025 c-22 -23 -29 -35 -19 -35 19 0 62 45 57 60 -2 6 -19 -5 -38 -25z"/>
    <path d="M2963 2000 c0 -25 2 -35 4 -22 2 12 2 32 0 45 -2 12 -4 2 -4 -23z"/>
    <path d="M1050 1989 c0 -11 5 -17 10 -14 6 3 10 13 10 21 0 8 -4 14 -10 14 -5 0 -10 -9 -10 -21z"/>
    <path d="M269 1932 c5 -34 6 -35 9 -8 2 16 0 32 -5 37 -5 5 -7 -7 -4 -29z"/>
    <path d="M1040 1934 c0 -14 4 -23 10 -19 6 3 10 15 10 26 0 10 -4 19 -10 19 -5 0 -10 -12 -10 -26z"/>
    <path d="M1030 1879 c0 -11 5 -17 10 -14 6 3 10 13 10 21 0 8 -4 14 -10 14 -5 0 -10 -9 -10 -21z"/>
    <path d="M2905 1804 l-60 -56 63 52 c54 45 69 61 60 60 -2 0 -30 -26 -63 -56z"/>
    <path d="M413 1781 l-43 -39 55 -27 c30 -16 57 -26 59 -24 8 8 -9 122 -19 125 -5 2 -29 -14 -52 -35z"/>
    <path d="M287 1770 c3 -25 7 -47 9 -49 8 -9 2 55 -6 74 -6 13 -7 5 -3 -25z"/>
    <path
      d="M2121 1710 c-53 -41 -61 -51 -45 -56 83 -28 142 -57 220 -111 51 -35 97 -63 102 -63 22 0 63 24 60 35 -2 7 -55 56 -118 110 -63 54 -124 106 -135 116 -20 18 -22 17 -84 -31z"/>
    <path d="M2300 1727 c139 -125 189 -167 198 -167 12 0 45 107 39 125 -5 10 -196 55 -237 55 -12 0 -12 -2 0 -13z"/>
    <path d="M2742 1545 c-7 -14 -12 -31 -12 -38 1 -7 7 3 16 22 17 39 13 54 -4 16z"/>
    <path d="M580 1512 c0 -12 22 -19 83 -25 20 -1 37 1 37 5 0 4 -22 8 -48 8 -26 0 -53 5 -60 12 -9 9 -12 9 -12 0z"/>
    <path
      d="M803 1385 c-28 -58 -47 -105 -41 -105 5 0 22 7 38 15 23 12 30 25 39 67 18 91 23 128 19 128 -2 0 -27 -47 -55 -105z"/>
    <path d="M606 1138 l-18 -33 21 25 c18 22 26 40 18 40 -1 0 -11 -15 -21 -32z"/>
    <path d="M2447 1105 c-15 -14 -24 -25 -19 -25 5 0 19 11 32 25 30 32 23 32 -13 0z"/>
    <path
      d="M780 1095 c-14 -8 -49 -20 -78 -26 -29 -7 -55 -15 -57 -19 -2 -3 3 -30 11 -58 10 -35 19 -50 27 -45 7 4 33 22 59 40 36 27 45 38 40 55 -6 24 20 48 52 48 17 0 15 -4 -11 -21 -29 -18 -43 -39 -28 -39 15 0 85 55 85 66 0 19 -67 18 -100 -1z"/>
    <path
      d="M1715 1036 l-119 -31 -36 -52 c-34 -51 -37 -53 -82 -53 -57 0 -113 -28 -182 -92 l-51 -46 30 -13 c66 -29 107 -64 131 -110 l24 -48 92 36 c51 20 97 40 103 45 6 5 -2 18 -23 34 -17 14 -32 34 -32 46 0 11 38 71 86 135 75 101 92 118 140 140 29 13 54 29 54 34 0 11 11 13 -135 -25z"/>
    <path d="M2352 1014 c-19 -20 -32 -37 -30 -40 2 -2 22 14 43 36 22 22 35 40 30 39 -6 0 -25 -16 -43 -35z"/>
    <path d="M823 979 c-29 -22 -53 -42 -53 -44 0 -3 18 -5 39 -5 35 0 41 4 60 40 34 65 27 66 -46 9z"/>
    <path d="M2185 850 c-10 -11 -15 -20 -11 -20 11 0 39 30 34 36 -3 2 -13 -5 -23 -16z"/>
    <path d="M850 857 c0 -8 131 -100 136 -95 2 3 -22 22 -53 43 -32 22 -64 43 -70 48 -7 5 -13 7 -13 4z"/>
    <path d="M2111 774 c-12 -14 -21 -27 -19 -30 3 -2 17 10 33 26 16 17 25 30 19 29 -5 0 -20 -11 -33 -25z"/>
    <path d="M1936 772 c-3 -5 8 -6 25 -4 16 2 29 6 29 8 0 8 -49 4 -54 -4z"/>
    <path d="M2020 740 c27 -21 46 -25 54 -11 4 5 -2 7 -12 4 -10 -2 -24 3 -31 11 -8 9 -19 16 -25 16 -6 0 0 -9 14 -20z"/>
    <path d="M1245 555 c42 -36 79 -65 83 -65 8 0 -20 25 -95 88 -28 23 -55 42 -58 42 -4 0 28 -29 70 -65z"/>
    <path d="M1545 574 c-49 -19 -94 -40 -100 -45 -5 -6 15 -1 45 11 133 53 155 62 159 66 10 10 -20 1 -104 -32z"/>
  </g>
  <g id="layer103" fill="#807e89" stroke="none">
    <path
      d="M1177 4286 c-70 -24 -128 -46 -128 -50 1 -3 76 -45 168 -92 93 -47 176 -93 185 -102 9 -9 39 -66 66 -127 l48 -110 140 -105 c114 -86 139 -110 139 -130 0 -14 -6 -25 -12 -25 -19 0 -273 187 -292 215 -10 14 -37 70 -61 126 -42 97 -45 102 -94 127 -51 27 -54 27 -253 27 -190 0 -203 -1 -213 -19 -6 -13 -10 -148 -10 -371 0 -329 -1 -351 -17 -348 -16 3 -18 23 -21 228 l-3 225 -73 33 c-98 45 -109 42 -120 -32 -8 -48 -7 -61 4 -64 8 -3 24 -16 37 -28 13 -13 26 -24 27 -24 2 0 4 16 3 35 -1 19 4 40 10 46 22 22 33 -3 33 -79 0 -84 35 -350 75 -570 14 -77 25 -151 25 -163 0 -32 -100 -340 -116 -358 -25 -28 -28 19 -11 183 10 89 17 214 17 278 0 87 3 119 13 125 11 7 8 43 -14 198 -16 105 -28 214 -29 243 0 28 -3 52 -7 52 -5 0 -21 -69 -37 -153 l-29 -154 30 -164 c21 -113 27 -170 20 -183 -18 -37 -34 9 -73 219 -42 224 -44 257 -30 463 l8 133 -34 -16 -33 -16 -31 -172 c-17 -95 -40 -192 -52 -217 -58 -129 -203 -493 -198 -498 4 -3 37 2 75 12 l68 18 131 -66 c117 -59 132 -69 132 -91 0 -14 -20 -106 -45 -205 -25 -99 -45 -186 -45 -194 0 -35 39 -25 197 50 160 76 193 84 193 46 0 -25 -10 -32 -90 -67 -274 -119 -244 -97 -248 -187 l-3 -77 61 -50 c79 -66 118 -87 73 -39 -18 19 -33 41 -33 50 0 18 82 78 106 78 10 0 14 -12 14 -46 0 -36 8 -57 42 -107 23 -34 44 -64 48 -67 4 -3 9 -13 13 -23 9 -24 42 -18 42 8 0 11 3 22 6 25 14 10 46 136 40 152 -3 10 -27 28 -51 40 -46 24 -57 42 -41 68 8 12 26 6 108 -33 62 -30 99 -54 101 -65 1 -9 -11 -89 -27 -176 l-29 -160 -71 -65 -71 -66 -30 -170 c-17 -93 -33 -177 -36 -185 -2 -8 -39 -34 -83 -58 -114 -61 -155 -131 -48 -82 37 17 71 24 117 24 l65 1 5 -50 c3 -27 8 -45 11 -40 6 10 46 139 70 225 14 51 27 72 40 64 13 -8 11 -49 -6 -102 -8 -26 -26 -85 -40 -131 -14 -46 -43 -113 -65 -149 -21 -36 -37 -69 -34 -73 2 -4 55 -43 117 -85 61 -43 141 -103 177 -134 157 -135 170 -144 187 -128 29 30 -5 67 -128 138 -110 63 -135 88 -111 112 6 6 20 4 41 -6 31 -16 31 -16 67 24 20 22 67 60 104 85 56 37 76 45 113 45 36 0 49 5 57 19 9 18 6 20 -32 23 -37 3 -44 7 -62 43 -18 34 -34 47 -113 85 -50 25 -98 51 -105 57 -21 18 -118 179 -118 195 0 7 20 58 45 112 25 55 45 101 45 103 0 9 -35 1 -73 -16 -63 -29 -118 -51 -129 -51 -5 0 -8 12 -6 27 3 24 16 33 123 79 92 41 122 58 127 76 26 79 68 227 68 237 0 6 7 28 15 48 14 33 17 35 31 21 15 -14 14 -24 -9 -104 -14 -49 -35 -125 -47 -169 -12 -44 -48 -142 -81 -217 -32 -76 -59 -140 -59 -143 0 -2 19 -36 43 -74 41 -66 49 -72 135 -117 50 -26 94 -46 96 -43 3 4 112 301 144 397 18 52 42 56 42 6 0 -19 -11 -79 -25 -132 -27 -104 -85 -351 -85 -359 0 -12 135 6 143 19 86 145 156 282 182 358 21 62 38 96 49 98 41 9 -12 -160 -104 -326 -34 -62 -60 -115 -58 -117 2 -2 48 7 101 21 54 13 102 22 107 19 6 -4 10 -15 10 -26 0 -23 3 -23 42 -3 36 19 37 5 -22 286 -41 190 -47 242 -31 252 16 10 28 -18 44 -99 8 -44 31 -162 52 -263 20 -100 35 -188 32 -195 -2 -6 -64 -39 -137 -72 l-132 -60 -69 -92 c-38 -50 -69 -95 -69 -100 0 -5 11 -20 25 -33 27 -25 26 -26 45 46 l10 41 136 14 137 14 28 75 c15 41 46 127 69 190 36 98 48 121 87 158 25 23 51 42 59 42 29 0 13 -45 -31 -90 -36 -36 -52 -65 -81 -145 -91 -254 -88 -243 -74 -260 11 -14 37 8 209 178 108 106 231 221 273 256 58 47 80 73 91 104 9 23 40 102 71 174 30 73 53 133 50 133 -3 0 -51 -40 -107 -89 -90 -77 -205 -161 -222 -161 -3 0 -53 32 -110 70 -72 49 -130 80 -188 99 -137 47 -150 60 -105 108 l22 24 -42 -7 c-59 -9 -61 7 -19 124 69 190 67 177 67 391 0 156 3 201 14 210 16 13 19 9 58 -59 14 -25 36 -63 49 -85 12 -22 33 -60 46 -84 51 -94 45 -115 102 337 29 229 55 420 58 425 10 16 34 5 84 -42 30 -27 55 -48 57 -46 3 2 -14 32 -37 67 -44 67 -50 92 -26 102 15 6 45 -35 165 -229 26 -42 36 -52 39 -38 2 10 20 104 40 209 l37 190 -32 70 c-18 38 -42 92 -54 119 -12 28 -38 88 -59 134 l-37 84 -69 24 c-38 13 -74 23 -80 23 -14 0 -35 -179 -35 -297 0 -81 -1 -84 -66 -215 -59 -121 -128 -306 -183 -494 -17 -58 -28 -76 -61 -103 l-40 -32 0 -97 0 -98 -55 -54 -55 -54 0 -106 c0 -156 4 -149 -98 -152 l-85 -3 -26 -79 c-14 -44 -32 -81 -39 -84 -24 -8 -24 29 2 111 14 46 26 88 26 94 0 6 38 45 85 88 81 74 85 79 85 120 0 28 7 51 21 69 19 24 83 215 75 223 -1 2 -15 -28 -30 -67 l-28 -70 -102 0 c-100 0 -106 -1 -191 -41 -49 -23 -146 -72 -216 -110 -70 -38 -132 -69 -137 -69 -5 0 -12 8 -14 18 -4 16 65 213 163 466 17 43 28 80 26 82 -3 3 -83 -25 -178 -61 -96 -36 -181 -65 -190 -65 -19 0 -31 23 -23 43 2 7 98 47 212 89 l207 75 6 84 c4 46 10 140 13 209 l7 125 -111 75 -110 75 -56 105 c-30 58 -53 114 -52 124 7 44 29 23 77 -71 45 -91 54 -102 113 -142 182 -126 295 -206 316 -224 23 -22 29 -51 11 -62 -10 -7 -76 31 -116 68 -13 11 -25 19 -27 16 -2 -2 -10 -96 -16 -209 -12 -209 -15 -224 -70 -365 -17 -44 -35 -91 -40 -105 -5 -14 -18 -50 -30 -80 -24 -60 -51 -152 -46 -157 2 -3 147 65 155 73 3 2 -5 18 -17 34 -12 16 -22 35 -22 43 0 8 35 83 78 168 l79 154 156 3 156 3 31 67 c18 37 44 91 58 120 14 28 23 54 20 57 -15 15 -130 -27 -264 -96 -83 -43 -154 -76 -157 -72 -12 11 -8 50 6 61 6 5 80 44 162 85 100 50 167 77 200 82 74 9 80 15 64 60 -13 34 -12 38 6 51 10 8 35 14 55 14 35 0 38 3 79 75 24 41 48 75 55 75 32 1 36 16 15 69 l-20 54 65 134 c73 150 71 126 26 288 -38 136 -78 286 -101 375 -12 47 -24 88 -28 92 -3 3 -91 0 -196 -8 -104 -8 -195 -12 -202 -9 -17 6 -18 10 23 -139 34 -123 39 -133 79 -171 41 -38 45 -46 80 -180 19 -77 49 -191 66 -252 32 -118 34 -158 9 -158 -10 0 -21 26 -36 85 -30 117 -91 348 -103 389 -6 19 -29 54 -52 77 -43 44 -44 46 -111 289 -16 61 -31 111 -32 113 -3 2 -178 -72 -208 -88 -33 -18 -54 -10 -103 40 -27 28 -54 50 -60 49 -5 0 -68 -20 -138 -43z"/>
    <path
      d="M935 4164 c-8 -20 -15 -40 -15 -45 0 -5 51 -9 113 -8 l112 0 -85 44 c-47 24 -91 44 -97 44 -7 1 -20 -15 -28 -35z"/>
    <path
      d="M767 3909 c-20 -17 -37 -34 -37 -38 0 -8 65 -41 80 -41 6 0 10 25 10 55 0 30 -3 55 -8 55 -4 0 -24 -14 -45 -31z"/>
    <path d="M614 3596 c-3 -13 -4 -38 -2 -57 3 -30 4 -27 14 24 10 55 1 82 -12 33z"/>
    <path d="M2296 3485 c-32 -49 -37 -74 -20 -106 8 -17 18 -29 20 -26 5 5 22 157 18 157 -1 0 -9 -11 -18 -25z"/>
    <path d="M772 2925 c0 -100 0 -100 14 -59 13 36 13 49 0 100 l-14 59 0 -100z"/>
    <path
      d="M2016 2858 c-13 -29 -42 -92 -64 -140 l-41 -88 -158 0 -159 0 -61 -127 -62 -128 24 -25 25 -24 67 34 c60 31 79 35 168 40 l99 5 74 190 c114 294 121 315 116 315 -3 0 -16 -24 -28 -52z"/>
    <path
      d="M2389 2878 c-10 -45 -104 -805 -100 -810 9 -11 291 -91 298 -85 3 4 -19 103 -48 221 -42 170 -51 218 -41 228 8 8 15 9 22 2 13 -13 130 -469 130 -507 0 -16 -18 -92 -41 -169 -22 -77 -39 -144 -37 -149 3 -8 61 39 275 224 69 60 81 75 78 97 -3 14 -14 135 -25 270 -12 135 -25 254 -30 266 -6 15 -35 30 -106 54 -55 18 -112 39 -128 47 -27 14 -28 17 -23 64 l6 48 -105 98 c-97 90 -123 111 -125 101z"/>
    <path
      d="M285 2811 c-33 -9 -65 -20 -71 -23 -7 -5 -6 -42 1 -120 l12 -113 57 -82 c31 -44 56 -90 56 -101 0 -11 -9 -41 -20 -66 l-20 -47 23 -9 c12 -5 49 -17 81 -27 l60 -18 68 -115 c37 -63 67 -125 68 -137 0 -21 -5 -24 -64 -38 l-29 -6 7 -80 c14 -164 13 -164 62 -187 29 -14 46 -30 50 -47 6 -23 11 -25 59 -25 l52 0 -20 101 c-20 98 -21 102 -70 148 -35 33 -48 53 -44 65 10 26 30 19 83 -31 l51 -48 27 -136 c14 -75 23 -145 19 -155 -4 -10 -26 -49 -49 -85 -35 -54 -42 -71 -36 -94 8 -30 -1 -46 148 245 31 62 69 119 90 139 l37 34 -29 24 c-45 37 -134 104 -189 142 -27 19 -83 61 -122 95 l-73 60 0 96 0 96 -31 11 c-29 11 -31 14 -27 55 3 24 24 116 47 206 22 89 41 169 41 178 0 16 -197 115 -228 113 -9 0 -44 -8 -77 -18z"/>
    <path
      d="M2053 2741 c-18 -15 -33 -33 -33 -39 0 -6 -13 -45 -30 -87 -16 -42 -30 -78 -30 -81 0 -3 18 12 40 33 32 30 46 54 66 117 13 43 23 80 22 81 -2 2 -18 -9 -35 -24z"/>
    <path
      d="M2078 2172 l4 -138 -40 -114 c-22 -63 -43 -123 -47 -134 -7 -15 -4 -17 11 -12 167 51 179 51 360 17 88 -17 167 -31 176 -31 15 0 22 14 47 91 14 45 14 59 -1 59 -6 0 -48 11 -92 25 -45 13 -120 36 -167 50 -78 23 -87 28 -105 63 -58 108 -145 262 -147 262 -1 0 0 -62 1 -138z"/>
    <path
      d="M296 2153 c3 -21 11 -87 19 -148 8 -60 16 -130 19 -154 3 -23 7 -45 10 -48 3 -3 17 9 31 26 15 17 33 31 40 31 19 0 45 45 45 80 0 26 4 31 30 37 17 3 29 8 28 12 -2 3 -20 40 -41 82 l-39 77 -67 21 c-37 12 -69 21 -73 21 -3 0 -4 -17 -2 -37z"/>
    <path d="M419 1782 l-44 -39 52 -27 c29 -14 54 -26 56 -26 5 0 -10 120 -15 126 -3 2 -25 -13 -49 -34z"/>
    <path
      d="M2122 1708 c-29 -23 -49 -45 -45 -49 4 -4 36 -17 71 -28 38 -12 101 -47 157 -86 51 -36 97 -65 100 -65 4 0 18 9 31 19 l24 19 -135 116 c-75 64 -139 116 -143 115 -4 0 -31 -19 -60 -41z"/>
    <path
      d="M2300 1736 c0 -7 193 -176 200 -176 6 0 35 103 35 124 0 5 -43 18 -95 27 -52 10 -105 21 -117 24 -13 3 -23 3 -23 1z"/>
    <path
      d="M801 1379 c-22 -45 -39 -85 -37 -87 2 -2 18 3 34 12 26 14 31 24 41 82 7 36 10 69 7 71 -3 3 -23 -32 -45 -78z"/>
    <path d="M712 1064 c-30 -7 -56 -15 -59 -18 -6 -6 17 -96 24 -96 17 0 95 68 100 88 8 34 -6 40 -65 26z"/>
    <path
      d="M1705 1031 l-109 -28 -36 -54 c-34 -52 -37 -54 -90 -60 -30 -3 -68 -11 -83 -17 -32 -13 -127 -91 -127 -103 0 -4 28 -24 63 -43 50 -28 67 -44 85 -81 12 -25 26 -45 32 -45 5 0 51 16 101 36 l90 37 -30 31 c-17 18 -31 42 -31 55 0 30 173 257 203 265 24 6 68 36 52 35 -5 0 -59 -13 -120 -28z"/>
    <path d="M828 982 c-66 -52 -66 -52 -22 -52 35 0 41 4 62 40 36 63 29 65 -40 12z"/>
  </g>
  <g id="layer104" fill="#a4a3ac" stroke="none">
    <path
      d="M1641 4311 c-8 -5 -59 -28 -113 -52 l-98 -42 -23 21 c-21 20 -34 22 -153 22 -134 0 -204 -7 -204 -20 0 -5 81 -49 181 -100 179 -91 181 -92 201 -138 61 -144 98 -209 124 -227 16 -10 77 -55 137 -99 83 -62 107 -85 107 -103 0 -13 -6 -26 -14 -29 -7 -3 -78 42 -157 100 -138 100 -145 108 -168 163 -13 32 -34 79 -47 105 -13 26 -24 54 -24 61 0 7 -25 25 -55 40 -55 27 -58 27 -254 27 -172 0 -200 -2 -205 -16 -3 -9 -6 -170 -6 -358 0 -271 -3 -346 -13 -361 -31 -42 -37 -8 -37 218 l0 222 -75 38 c-91 47 -115 44 -115 -13 0 -21 -3 -45 -6 -53 -3 -9 8 -22 30 -35 36 -21 36 -21 36 -1 0 11 5 29 11 40 8 16 13 18 25 8 9 -8 14 -32 14 -76 0 -79 29 -298 75 -562 l34 -193 -58 -177 c-39 -121 -62 -177 -73 -179 -27 -5 -28 23 -8 190 11 90 20 218 20 285 0 80 4 123 11 125 8 3 4 58 -15 188 -14 102 -28 204 -30 228 -2 23 -5 45 -8 47 -2 3 -16 -59 -31 -138 l-27 -142 31 -169 c16 -92 28 -174 25 -182 -8 -20 -34 -17 -40 4 -3 9 -24 116 -47 237 -39 209 -41 227 -34 345 3 69 9 147 12 174 6 47 5 48 -18 41 -13 -4 -28 -11 -32 -15 -5 -4 -24 -86 -42 -181 -32 -166 -38 -186 -143 -439 -60 -146 -108 -266 -107 -268 1 -1 35 5 75 15 l72 17 125 -64 c68 -36 128 -72 133 -81 6 -11 -8 -82 -40 -214 -28 -108 -47 -201 -44 -206 3 -5 11 -9 17 -9 13 0 155 61 274 118 39 19 76 31 82 28 6 -4 11 -20 11 -35 0 -25 -7 -31 -52 -51 -29 -12 -95 -42 -145 -66 -51 -25 -104 -49 -118 -54 -23 -9 -25 -14 -25 -79 0 -69 1 -71 40 -107 22 -20 49 -44 61 -52 21 -14 21 -14 5 10 -22 34 -14 48 46 86 57 35 78 30 75 -16 -1 -31 111 -209 123 -195 8 10 50 156 50 176 0 9 -19 26 -42 39 -47 25 -63 63 -32 75 19 7 200 -80 207 -100 2 -7 -4 -50 -14 -97 l-18 -85 66 -62 c36 -35 68 -63 72 -63 6 0 12 20 56 173 16 57 39 75 52 41 3 -9 -16 -93 -42 -187 -49 -175 -61 -212 -94 -282 -24 -51 -42 -92 -57 -132 -10 -29 -9 -36 20 -80 17 -27 36 -57 42 -68 5 -11 52 -42 102 -68 l92 -48 14 33 c8 18 42 112 76 208 34 97 65 182 70 189 9 16 40 7 40 -11 0 -7 -26 -121 -58 -253 l-58 -240 53 -3 c66 -4 86 7 112 60 11 24 31 59 43 78 47 76 82 149 108 225 38 111 40 115 55 115 7 0 16 -7 19 -17 8 -21 -59 -224 -85 -257 -10 -13 -19 -27 -19 -30 0 -4 -18 -38 -39 -76 -46 -81 -47 -80 69 -50 96 25 110 25 110 0 0 -11 4 -20 10 -20 16 0 60 23 60 31 0 4 -23 117 -51 250 -27 133 -48 248 -45 255 8 20 34 17 40 -3 17 -55 106 -512 104 -533 -3 -27 -6 -29 -173 -106 -106 -48 -99 -42 -214 -201 -23 -32 -24 -34 -6 -53 10 -11 22 -20 26 -20 4 0 15 22 24 50 18 56 5 50 180 70 55 6 103 14 106 18 4 4 13 27 22 52 23 67 125 331 129 334 1 1 22 19 46 39 35 31 46 36 58 26 23 -19 16 -37 -35 -87 -41 -39 -55 -62 -80 -132 -16 -47 -43 -123 -60 -170 -31 -85 -33 -110 -9 -110 7 0 81 68 163 151 83 83 204 199 270 259 97 87 122 116 132 148 7 23 23 65 37 94 41 92 76 181 73 185 -2 1 -46 -34 -98 -78 -145 -126 -236 -179 -254 -149 -18 29 -192 128 -284 162 -58 21 -106 38 -108 38 -2 0 -3 13 -3 29 0 18 8 34 23 45 l22 16 -28 -6 c-50 -11 -61 -9 -65 10 -4 20 64 232 82 255 7 9 13 99 16 240 7 300 8 300 155 27 58 -107 57 -107 80 84 10 74 21 164 26 200 5 36 13 103 19 150 14 111 37 277 45 315 3 17 0 71 -8 120 l-13 90 -58 -114 c-36 -71 -80 -185 -118 -300 -78 -245 -74 -236 -119 -267 l-39 -27 0 -103 0 -102 -55 -47 -55 -47 0 -122 c0 -82 -4 -126 -12 -134 -7 -7 -43 -12 -93 -12 l-81 0 -19 -71 c-20 -71 -36 -96 -55 -84 -15 9 -13 30 16 124 25 82 29 90 107 168 75 76 82 87 87 130 4 37 0 59 -17 96 l-23 47 -63 0 c-61 0 -72 -4 -281 -111 -126 -64 -223 -108 -232 -105 -17 7 -13 44 11 101 32 78 75 192 75 199 0 4 6 22 14 39 30 69 78 209 73 214 -5 4 -97 -25 -162 -52 -57 -24 -170 -64 -189 -67 -10 -2 -23 5 -30 14 -18 30 5 50 90 79 124 41 308 111 320 120 7 6 14 70 18 167 4 86 9 176 12 198 l6 42 -114 80 -113 80 -53 105 c-30 59 -52 114 -50 124 8 40 35 15 81 -76 l48 -95 174 -120 c181 -125 235 -168 235 -183 0 -5 -6 -17 -13 -26 -11 -16 -18 -14 -77 27 -36 25 -68 46 -71 46 -3 0 -11 -93 -17 -207 l-12 -208 23 -17 c31 -24 57 -29 64 -12 3 9 20 14 48 14 l43 0 11 51 c6 29 10 54 7 56 -2 2 -25 -6 -50 -19 -40 -19 -48 -20 -56 -8 -24 37 -11 50 100 108 52 27 120 63 150 80 32 18 84 35 126 42 l72 11 -10 39 c-15 57 -6 70 45 70 43 0 64 13 81 50 3 8 16 33 29 54 19 33 30 44 66 63 1 1 -5 24 -14 52 -19 58 -21 52 66 232 l47 95 -84 303 c-45 167 -85 305 -88 308 -3 3 -89 0 -191 -7 -101 -7 -192 -10 -200 -6 -12 4 -15 1 -11 -12 3 -9 19 -69 36 -132 29 -106 35 -118 75 -157 27 -26 48 -56 54 -80 97 -365 129 -497 124 -509 -8 -21 -32 -17 -43 9 -5 12 -37 128 -70 257 l-60 235 -44 40 c-43 39 -45 43 -92 218 -49 181 -55 192 -93 168z"/>
    <path d="M937 4150 l-15 -40 101 0 102 1 -75 39 c-41 21 -80 39 -86 40 -6 0 -18 -18 -27 -40z"/>
    <path
      d="M2375 3617 c-6 -20 -24 -247 -26 -332 -2 -75 0 -85 37 -157 25 -52 44 -78 56 -78 10 0 36 -32 70 -87 29 -49 58 -95 63 -104 33 -55 50 -79 55 -79 4 0 23 89 43 197 l37 197 -81 185 c-100 229 -101 231 -108 231 -3 0 -37 9 -74 19 -50 15 -69 17 -72 8z"/>
    <path d="M780 2920 c0 -29 3 -50 7 -47 7 8 6 88 -2 95 -3 3 -5 -19 -5 -48z"/>
    <path
      d="M2390 2873 c0 -7 -24 -194 -85 -667 -9 -70 -13 -132 -8 -136 10 -9 286 -90 291 -86 1 2 -20 94 -48 204 -27 111 -50 211 -50 222 0 20 25 38 36 27 4 -3 35 -119 69 -257 l64 -251 -19 -72 c-11 -40 -30 -111 -44 -160 -14 -51 -19 -84 -13 -80 32 19 329 277 334 289 5 13 -30 448 -43 535 -5 36 -6 36 -122 79 -64 23 -123 47 -131 53 -9 8 -12 26 -9 59 l5 47 -82 75 c-112 102 -145 129 -145 119z"/>
    <path
      d="M282 2806 c-41 -11 -74 -23 -75 -26 0 -3 5 -54 12 -114 13 -108 14 -111 72 -199 l58 -90 -20 -51 c-10 -28 -19 -56 -19 -61 0 -6 32 -20 71 -30 56 -16 77 -27 95 -51 13 -17 24 -35 24 -39 0 -5 6 -16 14 -24 7 -9 24 -36 37 -61 13 -25 29 -52 37 -62 7 -9 12 -29 10 -45 -3 -24 -9 -29 -47 -37 l-43 -9 7 -61 c4 -34 10 -88 14 -121 6 -59 6 -60 53 -85 29 -15 48 -32 48 -42 0 -15 9 -18 51 -18 51 0 51 0 45 28 -3 15 -11 59 -17 97 -12 67 -14 72 -61 108 -47 36 -57 58 -39 86 10 16 27 7 90 -51 36 -34 39 -41 64 -169 15 -74 27 -144 27 -156 0 -31 18 -29 30 3 29 76 79 163 110 192 l35 33 -40 35 c-22 19 -85 67 -140 107 -55 39 -128 96 -162 125 l-63 54 0 93 0 93 -35 21 c-19 11 -35 24 -35 29 0 6 22 97 50 203 27 107 50 199 50 204 0 11 -208 116 -225 114 -5 -1 -43 -11 -83 -23z"/>
    <path
      d="M1972 2752 c-64 -132 -36 -116 -216 -122 l-158 -5 -59 -115 c-32 -63 -59 -120 -59 -126 0 -7 9 -22 19 -35 l20 -24 69 38 c67 35 74 37 166 37 96 0 97 0 106 28 6 15 14 36 19 47 21 47 130 339 127 342 -1 1 -17 -28 -34 -65z"/>
    <path
      d="M2080 2148 c0 -126 -3 -153 -21 -195 -26 -59 -60 -166 -54 -171 2 -2 36 6 77 18 111 33 111 33 297 -5 96 -19 175 -34 177 -32 1 1 11 32 22 69 l20 68 -62 19 c-34 10 -114 33 -177 51 l-116 32 -38 70 c-21 39 -58 105 -82 147 l-43 76 0 -147z"/>
    <path d="M301 2156 c0 -17 6 -74 13 -126 l13 -95 2 93 1 92 60 0 c80 0 72 20 -20 47 l-70 20 1 -31z"/>
    <path d="M417 1775 l-39 -34 51 -26 51 -25 0 22 c0 37 -12 98 -19 98 -3 -1 -23 -16 -44 -35z"/>
    <path
      d="M1005 1704 l-70 -65 -35 -187 -35 -187 -78 -41 c-111 -58 -149 -120 -49 -80 26 11 77 21 115 23 l67 5 0 -48 c0 -53 11 -50 28 6 6 19 25 81 42 138 30 100 51 127 63 82 11 -43 -86 -329 -129 -380 -7 -8 -15 -26 -19 -40 -6 -23 3 -32 97 -95 57 -39 130 -92 162 -120 155 -132 200 -164 213 -154 9 8 9 17 -3 42 -12 25 -42 47 -130 96 -95 54 -114 69 -114 88 0 29 21 38 50 23 19 -10 28 -5 83 43 88 76 144 107 198 107 33 0 47 5 57 20 11 19 10 20 -31 20 -41 0 -45 2 -61 38 -15 32 -32 45 -121 92 -104 55 -104 55 -160 141 -30 47 -55 95 -55 106 0 20 65 179 83 201 20 25 -2 22 -91 -14 -93 -38 -122 -39 -122 -5 0 21 43 45 183 102 l58 23 -27 21 c-15 11 -44 30 -63 41 l-36 22 -70 -64z"/>
    <path
      d="M2128 1705 c-27 -20 -48 -37 -48 -39 0 -2 28 -14 63 -25 34 -12 105 -51 159 -88 91 -62 100 -66 124 -54 23 10 25 14 13 25 -74 70 -245 216 -253 216 -6 0 -32 -16 -58 -35z"/>
    <path d="M2325 1712 c110 -101 175 -153 180 -141 16 43 34 114 30 118 -6 5 -183 40 -210 40 -19 1 -19 1 0 -17z"/>
    <path d="M807 1368 c-15 -33 -26 -62 -24 -64 2 -2 12 2 22 9 14 11 40 104 31 114 -1 1 -14 -25 -29 -59z"/>
    <path
      d="M1695 1025 c-74 -20 -95 -29 -117 -56 -15 -18 -27 -34 -25 -35 1 -1 37 6 80 16 55 12 83 24 93 39 9 12 32 30 52 41 48 25 28 24 -83 -5z"/>
    <path d="M833 981 c-71 -51 -71 -51 -30 -51 32 0 40 5 63 41 14 22 24 42 22 44 -2 2 -27 -13 -55 -34z"/>
    <path
      d="M1359 852 c-34 -23 -102 -82 -98 -87 2 -1 32 -20 67 -40 49 -28 68 -46 84 -80 l21 -43 76 27 c42 15 85 32 96 38 19 12 19 13 -12 42 -18 16 -33 38 -33 48 0 12 -27 34 -78 66 -43 26 -82 47 -87 46 -6 0 -22 -8 -36 -17z"/>
  </g>
  <g id="layer105" fill="#d3d1da" stroke="none">
    <path
      d="M1556 4270 c-119 -55 -128 -57 -146 -35 -10 12 -43 15 -180 15 -91 0 -170 -3 -173 -7 -4 -3 66 -44 155 -91 90 -46 173 -90 184 -97 12 -8 43 -64 74 -134 36 -83 61 -126 79 -138 14 -9 77 -54 139 -101 89 -67 112 -89 112 -108 0 -45 -27 -37 -137 42 -183 131 -173 120 -231 251 l-53 119 -54 27 c-54 26 -59 27 -249 27 -168 0 -195 -2 -200 -16 -3 -9 -6 -172 -6 -362 0 -191 -4 -353 -9 -361 -5 -8 -16 -11 -25 -8 -13 5 -16 37 -18 229 l-3 223 -77 37 c-42 21 -84 35 -92 32 -12 -5 -16 -21 -16 -63 0 -52 2 -57 30 -73 l30 -17 0 28 c0 31 22 57 40 46 5 -3 10 -33 10 -66 0 -86 37 -358 86 -631 l25 -138 -57 -176 c-32 -102 -62 -178 -71 -181 -32 -12 -37 13 -23 114 7 54 16 183 19 286 4 137 9 190 19 196 10 6 6 53 -20 236 l-33 228 -26 -138 -27 -139 31 -173 c28 -156 29 -175 16 -189 -13 -12 -18 -13 -26 -2 -14 17 -97 452 -96 503 0 22 5 101 10 175 6 74 9 136 8 138 -1 1 -14 -2 -28 -9 -22 -10 -27 -23 -46 -128 -40 -212 -49 -245 -111 -391 -34 -80 -75 -180 -92 -223 -16 -42 -38 -94 -48 -115 -10 -20 -17 -38 -16 -39 1 -1 34 6 73 16 l71 18 131 -66 c72 -36 134 -74 137 -83 4 -13 -53 -259 -92 -394 -4 -14 0 -23 10 -27 31 -12 63 12 117 88 30 42 71 102 92 132 44 62 48 61 92 -21 23 -42 35 -56 53 -56 18 0 22 -5 22 -34 l0 -33 -162 -75 -163 -76 -3 -72 c-3 -77 3 -91 58 -130 26 -18 26 -18 25 8 0 20 11 32 54 58 59 36 85 32 79 -11 -4 -28 112 -212 123 -193 7 14 49 163 49 176 0 4 -20 18 -45 30 -36 17 -45 27 -45 47 0 14 7 28 15 32 18 6 189 -63 206 -83 9 -10 7 -34 -5 -94 -9 -44 -16 -88 -16 -98 0 -14 104 -111 129 -120 4 -1 20 42 36 97 33 116 38 126 59 118 24 -9 21 -31 -33 -219 -57 -198 -69 -233 -117 -341 l-35 -77 41 -74 c40 -73 42 -75 130 -121 l90 -46 9 23 c5 13 39 109 76 213 73 206 84 226 105 200 15 -18 15 -19 -61 -331 -21 -89 -39 -166 -39 -173 0 -12 69 -15 106 -5 31 8 169 257 208 374 32 96 57 125 71 81 10 -32 -51 -195 -117 -314 -33 -59 -58 -110 -56 -112 2 -3 41 4 87 15 114 28 128 26 122 -12 -1 -10 0 -10 38 3 26 9 32 16 28 33 -44 193 -98 479 -93 492 3 8 14 14 23 12 15 -3 27 -48 70 -253 29 -138 52 -267 50 -289 l-2 -39 -130 -56 -130 -56 -74 -98 c-72 -95 -74 -98 -56 -117 26 -29 33 -25 46 25 6 25 17 49 23 52 10 7 57 14 202 29 l62 7 50 131 c28 72 61 158 73 191 15 44 33 71 68 102 51 47 67 52 76 24 8 -27 -2 -45 -44 -79 -34 -28 -45 -49 -106 -212 -96 -261 -96 -261 175 10 69 69 170 164 225 212 l100 86 54 134 c30 73 61 149 69 168 14 34 14 34 -4 19 -11 -9 -54 -46 -97 -83 -82 -71 -193 -146 -215 -146 -7 0 -59 31 -115 68 -71 48 -131 79 -197 102 -52 18 -100 39 -107 47 -13 17 -8 39 16 66 14 17 13 17 -14 7 -70 -26 -70 2 -5 191 l50 144 0 198 c0 166 2 199 15 203 10 4 15 20 15 45 0 45 -8 48 -38 16 -19 -21 -22 -34 -22 -120 l0 -96 -55 -47 -55 -48 0 -120 c0 -67 -4 -126 -8 -133 -5 -7 -40 -13 -92 -15 l-84 -3 -23 -78 c-19 -61 -28 -78 -41 -75 -27 5 -26 34 5 136 l28 95 83 75 c81 74 82 76 82 123 0 30 -9 66 -22 94 l-22 45 -57 0 c-53 0 -74 -8 -278 -111 -124 -62 -228 -109 -236 -105 -23 8 -19 29 34 170 126 337 141 379 138 383 -3 2 -84 -26 -182 -62 -98 -36 -184 -64 -191 -61 -17 7 -18 58 -2 74 7 7 22 12 34 12 30 0 365 126 374 140 4 6 10 84 14 173 4 89 9 176 12 193 6 30 2 34 -103 106 -59 42 -115 84 -124 94 -9 11 -37 61 -63 112 -47 92 -53 132 -21 132 17 0 30 -18 84 -120 38 -73 43 -78 169 -165 282 -197 298 -211 257 -245 -12 -10 -26 -4 -79 34 -55 39 -65 43 -70 29 -2 -10 -7 -90 -11 -178 -3 -88 -8 -172 -11 -187 -5 -23 0 -30 34 -47 23 -11 43 -16 48 -11 5 5 27 10 48 12 39 3 40 4 51 56 7 28 10 52 8 52 -2 0 -21 -10 -42 -22 -47 -27 -74 -19 -69 19 3 25 21 37 156 110 121 64 168 84 222 93 l69 12 -2 51 -2 52 48 3 47 3 46 79 c26 44 55 82 65 85 16 6 17 9 3 47 -8 22 -14 49 -14 58 0 10 27 74 60 142 33 67 60 129 60 137 0 15 -160 604 -165 609 -2 2 -80 -2 -173 -8 -93 -7 -183 -11 -200 -8 -29 4 -29 3 -21 -26 5 -17 21 -76 35 -131 24 -92 30 -103 71 -140 39 -36 46 -49 67 -130 92 -349 116 -449 112 -461 -3 -8 -14 -14 -24 -14 -21 0 -19 -5 -102 315 l-52 200 -44 40 c-43 39 -45 42 -91 218 -26 97 -52 177 -58 177 -5 0 -59 -23 -119 -50z"/>
    <path
      d="M2375 3607 c-9 -40 -25 -251 -25 -325 0 -65 4 -81 40 -152 22 -45 47 -80 55 -80 8 0 49 -57 92 -126 43 -69 79 -121 81 -116 1 5 -7 45 -18 88 -65 239 -63 224 -57 439 4 147 3 207 -6 225 -9 18 -30 30 -85 46 l-72 22 -5 -21z"/>
    <path d="M783 2915 c0 -22 2 -30 4 -17 2 12 2 30 0 40 -3 9 -5 -1 -4 -23z"/>
    <path
      d="M2387 2822 c-7 -61 -23 -187 -37 -292 -29 -215 -58 -454 -56 -457 1 -1 62 -21 136 -43 74 -22 141 -43 149 -46 9 -3 11 1 6 13 -4 10 -13 45 -20 78 -8 33 -27 114 -44 180 -37 144 -39 185 -12 185 23 0 29 -19 102 -312 31 -122 47 -207 43 -222 -6 -25 40 -161 58 -172 12 -8 208 168 208 187 0 26 -50 553 -53 554 -1 1 -24 10 -52 20 -27 9 -85 31 -129 47 l-78 30 4 53 5 54 -71 63 c-39 35 -89 81 -112 101 l-41 37 -6 -58z"/>
    <path
      d="M290 2806 c-41 -12 -75 -26 -75 -31 0 -6 4 -55 8 -110 6 -80 12 -107 31 -135 13 -19 40 -62 60 -96 l37 -61 -21 -53 c-12 -29 -17 -56 -13 -60 4 -4 40 -17 78 -28 54 -17 74 -28 86 -49 9 -15 42 -72 73 -125 65 -109 65 -132 1 -144 -40 -7 -40 -9 -28 -162 l6 -83 49 -25 c33 -17 48 -30 48 -44 0 -17 7 -20 48 -20 l49 0 -14 73 c-7 39 -15 82 -18 95 -2 13 -25 42 -50 64 -36 31 -45 46 -43 66 2 14 8 27 14 29 12 4 103 -67 116 -91 10 -17 49 -201 57 -271 l7 -50 51 101 c29 56 66 113 83 127 l31 26 -33 31 c-18 17 -86 70 -152 118 -65 47 -141 106 -167 130 l-49 44 0 93 0 93 -30 12 c-16 7 -32 20 -35 30 -3 9 17 107 44 216 28 109 47 202 43 206 -7 7 -210 109 -215 107 -1 0 -36 -10 -77 -23z"/>
    <path
      d="M1956 2715 l-38 -85 -159 0 -159 0 -54 -110 c-68 -138 -69 -140 -47 -168 l18 -24 71 36 c67 34 77 36 166 36 l95 0 19 53 c11 28 46 117 76 196 31 79 55 145 53 147 -2 2 -20 -35 -41 -81z"/>
    <path
      d="M304 2133 c4 -27 10 -79 14 -118 l7 -70 5 90 5 90 55 5 c30 3 51 8 45 11 -12 8 -115 39 -128 39 -6 0 -7 -19 -3 -47z"/>
    <path
      d="M2037 1889 c-20 -57 -35 -104 -33 -106 4 -4 150 37 158 45 4 4 -5 27 -21 52 -15 25 -37 60 -48 78 l-20 33 -36 -102z"/>
    <path d="M420 1775 c-18 -19 -32 -37 -29 -39 9 -9 82 -36 87 -32 7 7 -9 106 -17 106 -4 0 -22 -16 -41 -35z"/>
    <path
      d="M1010 1705 c-35 -30 -67 -61 -71 -68 -4 -6 -21 -91 -39 -187 -18 -96 -34 -178 -37 -183 -2 -4 -39 -25 -82 -46 -51 -26 -81 -48 -89 -65 -15 -33 -7 -33 68 -1 59 25 123 32 147 17 7 -4 16 -25 20 -46 8 -37 10 -33 49 100 29 103 44 140 57 142 9 2 20 -4 23 -13 11 -28 -74 -293 -117 -367 -21 -36 -39 -70 -38 -75 0 -4 50 -43 112 -85 62 -43 166 -122 232 -177 91 -77 122 -97 132 -89 11 9 10 16 -5 42 -12 21 -53 51 -130 95 -102 58 -112 66 -112 92 0 31 16 37 51 18 17 -8 28 -2 77 41 82 74 150 110 205 110 32 0 47 5 51 16 9 24 9 24 -32 24 -35 0 -41 4 -56 38 -15 33 -30 45 -120 89 l-103 52 -57 89 c-31 49 -56 99 -56 112 0 12 18 63 40 112 22 50 40 94 40 99 0 4 -42 -10 -92 -31 -95 -40 -118 -40 -118 0 0 24 10 31 128 79 56 24 102 46 102 50 -1 5 -103 71 -112 71 -1 0 -32 -25 -68 -55z"/>
    <path d="M2316 1721 c42 -40 177 -151 183 -151 5 0 43 120 37 120 0 0 -47 9 -104 20 -116 23 -130 24 -116 11z"/>
    <path
      d="M1683 1018 c-68 -16 -86 -25 -104 -49 -24 -34 -20 -35 64 -15 33 8 70 24 85 39 15 13 36 29 47 35 29 16 3 14 -92 -10z"/>
    <path d="M821 972 c-51 -35 -52 -37 -26 -40 15 -2 33 -1 40 2 14 5 50 65 43 71 -2 2 -28 -13 -57 -33z"/>
    <path
      d="M1348 840 c-24 -16 -53 -39 -65 -52 l-22 -24 61 -33 c35 -20 67 -46 77 -63 36 -66 29 -65 130 -28 50 18 91 36 91 40 0 4 -11 15 -25 24 -14 9 -28 28 -31 42 -6 24 -63 67 -142 108 -28 15 -32 14 -74 -14z"/>
  </g>

</svg>