<!DOCTYPE svg PUBLIC "-//W3C//DTD SVG 20010904//EN" "http://www.w3.org/TR/2001/REC-SVG-20010904/DTD/svg10.dtd">
<svg version="1.0" xmlns="http://www.w3.org/2000/svg" width="800px" height="800px" viewBox="0 0 8000 8000"
     preserveAspectRatio="xMidYMid meet">
  <g id="layer101" fill="#696969" stroke="none">
    <path
      d="M3885 5239 c-239 -22 -423 -63 -542 -120 -103 -49 -121 -77 -162 -250 -80 -333 -213 -1194 -346 -2229 -25 -195 -47 -367 -50 -382 -4 -25 0 -28 77 -58 181 -70 453 -131 738 -167 184 -22 787 -26 975 -5 277 31 569 93 755 161 47 17 90 35 97 39 28 18 -254 2001 -358 2511 -59 294 -74 324 -191 380 -208 99 -646 152 -993 120z"/>
  </g>
  <g id="layer102" fill="#949494" stroke="none">
    <path
      d="M3885 5239 c-239 -22 -423 -63 -542 -120 -103 -49 -121 -77 -162 -250 -80 -336 -214 -1201 -351 -2269 -22 -173 -42 -327 -45 -342 -4 -25 0 -28 77 -58 152 -59 336 -103 651 -155 15 -3 26 -1 23 3 -3 4 148 100 335 212 l340 203 152 -6 c371 -16 771 -93 1000 -192 l78 -33 -5 26 c-3 15 -19 137 -36 272 -135 1084 -306 2169 -380 2420 -31 103 -48 124 -142 169 -208 99 -646 152 -993 120z"/>
  </g>
  <g id="layer103" fill="#c7c7c7" stroke="none">
    <path
      d="M3885 5239 c-239 -22 -423 -63 -542 -120 -103 -49 -121 -77 -162 -250 -80 -336 -214 -1201 -351 -2269 -22 -173 -42 -328 -45 -344 -4 -20 -1 -27 8 -22 6 3 50 21 97 40 483 198 1376 251 2034 120 155 -31 334 -81 434 -123 47 -19 72 -26 72 -18 0 16 -51 413 -91 707 -16 123 -32 242 -34 265 -3 22 -7 54 -10 70 -10 67 -24 162 -29 200 -49 369 -62 453 -67 434 -3 -10 -203 217 -567 645 l-564 661 94 6 c85 5 81 5 -47 6 -77 0 -180 -3 -230 -8z"/>
    <path d="M4288 5233 c18 -2 45 -2 60 0 15 2 0 4 -33 4 -33 0 -45 -2 -27 -4z"/>
    <path d="M4398 5223 c12 -2 32 -2 45 0 12 2 2 4 -23 4 -25 0 -35 -2 -22 -4z"/>
    <path d="M4483 5213 c9 -2 25 -2 35 0 9 3 1 5 -18 5 -19 0 -27 -2 -17 -5z"/>
    <path d="M4935 5084 c11 -11 28 -28 38 -39 18 -20 18 -20 8 1 -6 12 -23 29 -38 39 -27 17 -28 17 -8 -1z"/>
  </g>

</svg>