<?xml version="1.0" standalone="no"?>
<!DOCTYPE svg PUBLIC "-//W3C//DTD SVG 20010904//EN"
 "http://www.w3.org/TR/2001/REC-SVG-20010904/DTD/svg10.dtd">
<svg version="1.0" xmlns="http://www.w3.org/2000/svg"
 width="150.000000pt" height="40.000000pt" viewBox="100.0 100.0 250.000000 140.000000"
 preserveAspectRatio="xMidYMid meet">

<g transform="translate(0.000000,326.000000) scale(0.100000,-0.100000)"
fill="lightgray" stroke="none">
<path d="M2487 2072 c-10 -10 -21 -50 -27 -93 -10 -77 -30 -344 -30 -415 0
-41 -1 -42 -32 -40 -41 1 -47 -27 -6 -32 l26 -3 5 -227 c2 -125 8 -237 12
-249 9 -28 31 -30 44 -4 15 28 26 161 14 161 -11 0 -23 -46 -23 -86 0 -13 -4
-24 -9 -24 -13 0 -20 140 -14 295 l6 142 56 18 c70 22 160 44 184 45 12 0 17
-8 17 -30 0 -38 31 -70 69 -70 22 0 37 10 59 36 26 31 33 34 50 25 43 -23 79
-10 204 73 28 18 28 18 38 -8 8 -23 12 -25 35 -16 15 6 35 15 45 20 16 9 22 5
35 -20 33 -65 102 -81 215 -52 82 22 408 136 454 159 17 9 25 18 19 24 -5 5
-48 -6 -109 -30 -175 -68 -375 -131 -435 -138 -46 -4 -64 -2 -84 11 -37 24
-55 71 -42 106 15 40 3 60 -34 60 -25 0 -41 -9 -69 -40 -20 -22 -43 -40 -51
-40 -8 0 -45 -21 -83 -45 -88 -57 -121 -59 -142 -10 -16 40 -29 39 -37 -3 -9
-44 -53 -91 -78 -85 -18 5 -39 39 -39 64 0 6 16 17 35 25 39 16 43 25 20 44
-12 10 -21 10 -40 2 -14 -7 -25 -16 -25 -20 0 -5 -28 -15 -62 -21 -35 -7 -92
-21 -127 -32 -35 -10 -66 -19 -70 -19 -13 0 17 432 36 508 3 12 10 22 15 22 5
0 45 -33 89 -72 66 -62 79 -78 79 -105 0 -32 29 -63 57 -63 20 0 15 27 -5 32
-12 4 -23 21 -31 49 -9 35 -26 58 -84 110 -83 76 -106 87 -130 61z m716 -424
c-19 -33 -43 -48 -43 -27 0 15 39 59 53 59 5 0 1 -14 -10 -32z"/>
<path d="M1012 1988 c-13 -16 -20 -78 -32 -283 -5 -88 -16 -195 -25 -238 -19
-97 -19 -127 -2 -127 15 0 47 31 47 44 0 5 -7 6 -15 2 -18 -7 -18 -10 0 94 12
68 34 349 35 445 1 42 14 48 56 27 22 -11 75 -27 118 -36 44 -9 86 -22 94 -28
21 -18 10 -157 -18 -230 -21 -53 -24 -56 -45 -46 -39 18 -71 3 -89 -42 -19
-47 -20 -74 -6 -101 16 -30 35 -23 84 31 l45 51 40 -21 c22 -11 56 -20 76 -20
19 0 35 -1 35 -3 0 -1 -5 -18 -10 -37 -20 -69 -59 -317 -65 -410 -7 -109 2
-154 32 -158 25 -4 51 24 36 39 -8 8 -13 7 -17 0 -47 -76 -25 249 34 498 11
46 29 99 40 116 11 18 20 40 20 49 0 29 -31 17 -45 -19 -8 -19 -23 -38 -32
-43 -26 -14 -76 -3 -106 21 l-26 22 26 75 c14 41 28 107 31 147 4 66 3 73 -20
96 -17 17 -44 28 -94 36 -38 7 -93 23 -123 37 -62 28 -65 28 -79 12z m204
-402 c18 -14 18 -15 -11 -57 -38 -54 -55 -60 -55 -19 0 32 25 90 38 90 5 0 17
-6 28 -14z"/>
<path d="M1830 1874 c-12 -14 -28 -134 -29 -226 -1 -27 -5 -38 -16 -38 -8 0
-15 -5 -15 -10 0 -6 7 -13 15 -16 12 -5 15 -27 15 -109 0 -57 4 -106 9 -109
25 -16 45 70 22 98 -10 11 -11 31 -7 70 7 50 9 54 38 60 60 12 68 9 68 -29 0
-76 101 -65 132 14 l9 25 18 -28 c52 -78 164 -94 259 -36 47 29 30 45 -20 19
-61 -31 -135 -35 -176 -9 -36 22 -71 88 -72 133 0 27 -13 36 -25 17 -4 -6 -10
-8 -15 -5 -14 9 -76 -21 -92 -43 -10 -14 -30 -23 -66 -28 l-52 -7 1 69 c0 38
4 92 7 119 7 47 9 50 40 53 34 3 42 16 16 26 -27 10 -51 7 -64 -10z m210 -279
c-12 -35 -35 -55 -64 -55 -12 0 -16 10 -16 38 0 35 3 39 43 54 23 8 43 11 45
7 2 -5 -2 -25 -8 -44z"/>
<path d="M1629 1651 c-27 -27 -29 -35 -29 -103 0 -84 8 -103 39 -93 35 11 90
141 75 179 -8 20 -28 21 -44 1 -11 -13 -11 -20 0 -39 10 -20 9 -31 -11 -72
l-22 -49 -10 43 c-13 54 4 118 33 127 21 7 28 35 9 35 -6 0 -24 -13 -40 -29z"/>
</g>
</svg>
